<ttFont>
<head>
    <!-- Most of this table will be recalculated by the compiler -->
    <tableVersion value="1.0"/>
    <fontRevision value="1.00299072266"/>
    <checkSumAdjustment value="0x306ae7ad"/>
    <magicNumber value="0x5f0f3cf5"/>
    <flags value="00100000 00001011"/>
    <unitsPerEm value="2048"/>
    <created value="Fri Jul 29 19:49:26 2011"/>
    <modified value="Fri Jul 29 19:49:26 2011"/>
    <xMin value="-86"/>
    <yMin value="-640"/>
    <xMax value="2457"/>
    <yMax value="1920"/>
    <macStyle value="00000000 00000000"/>
    <lowestRecPPEM value="8"/>
    <fontDirectionHint value="2"/>
    <indexToLocFormat value="0"/>
    <glyphDataFormat value="0"/>
  </head>
    <TTGlyph name=".notdef" xMin="177" yMin="0" xMax="1593" yMax="1416">
      <contour>
        <pt x="177" y="1416" on="1"/>
        <pt x="1593" y="1416" on="1"/>
        <pt x="1593" y="0" on="1"/>
        <pt x="177" y="0" on="1"/>
      </contour>
      <contour>
        <pt x="559" y="252" on="1"/>
        <pt x="883" y="605" on="1"/>
        <pt x="1220" y="252" on="1"/>
        <pt x="1333" y="365" on="1"/>
        <pt x="985" y="708" on="1"/>
        <pt x="1333" y="1042" on="1"/>
        <pt x="1214" y="1158" on="1"/>
        <pt x="886" y="807" on="1"/>
        <pt x="553" y="1159" on="1"/>
        <pt x="439" y="1043" on="1"/>
        <pt x="783" y="705" on="1"/>
        <pt x="440" y="387" on="1"/>
      </contour>
    </TTGlyph>
    <TTGlyph name="A" xMin="2" yMin="0" xMax="1491" yMax="1553">
      <contour>
        <pt x="2" y="85" on="1"/>
        <pt x="145" y="114" on="1"/>
        <pt x="666" y="1553" on="1"/>
        <pt x="834" y="1553" on="1"/>
        <pt x="1332" y="115" on="1"/>
        <pt x="1491" y="85" on="1"/>
        <pt x="1491" y="0" on="1"/>
        <pt x="963" y="0" on="1"/>
        <pt x="963" y="85" on="1"/>
        <pt x="1129" y="115" on="1"/>
        <pt x="1021" y="437" on="1"/>
        <pt x="421" y="437" on="1"/>
        <pt x="313" y="115" on="1"/>
        <pt x="480" y="85" on="1"/>
        <pt x="480" y="0" on="1"/>
        <pt x="2" y="0" on="1"/>
      </contour>
      <contour>
        <pt x="982" y="554" on="1"/>
        <pt x="819" y="1042" on="1"/>
        <pt x="724" y="1343" on="1"/>
        <pt x="460" y="554" on="1"/>
      </contour>
    </TTGlyph>
    <TTGlyph name="AE" xMin="2" yMin="0" xMax="1877" yMax="1553">
      <contour>
        <pt x="2" y="85" on="1"/>
        <pt x="143" y="114" on="1"/>
        <pt x="727" y="1553" on="1"/>
        <pt x="1698" y="1553" on="1"/>
        <pt x="1727" y="1268" on="1"/>
        <pt x="1627" y="1266" on="1"/>
        <pt x="1581" y="1435" on="1"/>
        <pt x="970" y="1447" on="1"/>
        <pt x="1143" y="868" on="1"/>
        <pt x="1529" y="874" on="1"/>
        <pt x="1559" y="1031" on="1"/>
        <pt x="1651" y="1031" on="1"/>
        <pt x="1651" y="611" on="1"/>
        <pt x="1559" y="611" on="1"/>
        <pt x="1529" y="754" on="1"/>
        <pt x="1176" y="758" on="1"/>
        <pt x="1369" y="111" on="1"/>
        <pt x="1690" y="127" on="1"/>
        <pt x="1790" y="334" on="1"/>
        <pt x="1877" y="291" on="1"/>
        <pt x="1832" y="0" on="1"/>
        <pt x="986" y="0" on="1"/>
        <pt x="986" y="85" on="1"/>
        <pt x="1149" y="115" on="1"/>
        <pt x="1044" y="456" on="1"/>
        <pt x="439" y="456" on="1"/>
        <pt x="311" y="115" on="1"/>
        <pt x="480" y="85" on="1"/>
        <pt x="480" y="0" on="1"/>
        <pt x="2" y="0" on="1"/>
      </contour>
      <contour>
        <pt x="1008" y="573" on="1"/>
        <pt x="820" y="1185" on="1"/>
        <pt x="784" y="1376" on="1"/>
        <pt x="483" y="573" on="1"/>
      </contour>
    </TTGlyph>
    <TTGlyph name="Aacute" xMin="2" yMin="0" xMax="1491" yMax="1920">
      <contour>
        <pt x="687" y="1661" on="1"/>
        <pt x="993" y="1920" on="1"/>
        <pt x="1139" y="1771" on="1"/>
        <pt x="1092" y="1741" on="0"/>
        <pt x="991" y="1688" on="0"/>
        <pt x="888" y="1646" on="0"/>
        <pt x="786" y="1615" on="0"/>
        <pt x="740" y="1607" on="1"/>
      </contour>
      <contour>
        <pt x="2" y="85" on="1"/>
        <pt x="145" y="114" on="1"/>
        <pt x="666" y="1553" on="1"/>
        <pt x="834" y="1553" on="1"/>
        <pt x="1332" y="115" on="1"/>
        <pt x="1491" y="85" on="1"/>
        <pt x="1491" y="0" on="1"/>
        <pt x="963" y="0" on="1"/>
        <pt x="963" y="85" on="1"/>
        <pt x="1129" y="115" on="1"/>
        <pt x="1021" y="437" on="1"/>
        <pt x="421" y="437" on="1"/>
        <pt x="313" y="115" on="1"/>
        <pt x="480" y="85" on="1"/>
        <pt x="480" y="0" on="1"/>
        <pt x="2" y="0" on="1"/>
      </contour>
      <contour>
        <pt x="982" y="554" on="1"/>
        <pt x="819" y="1042" on="1"/>
        <pt x="724" y="1343" on="1"/>
        <pt x="460" y="554" on="1"/>
      </contour>
    </TTGlyph>
    <TTGlyph name="Acircumflex" xMin="2" yMin="0" xMax="1491" yMax="1920">
      <contour>
        <pt x="401" y="1662" on="1"/>
        <pt x="654" y="1920" on="1"/>
        <pt x="843" y="1920" on="1"/>
        <pt x="1100" y="1665" on="1"/>
        <pt x="1013" y="1616" on="1"/>
        <pt x="749" y="1784" on="1"/>
        <pt x="479" y="1616" on="1"/>
      </contour>
      <contour>
        <pt x="2" y="85" on="1"/>
        <pt x="145" y="114" on="1"/>
        <pt x="666" y="1553" on="1"/>
        <pt x="834" y="1553" on="1"/>
        <pt x="1332" y="115" on="1"/>
        <pt x="1491" y="85" on="1"/>
        <pt x="1491" y="0" on="1"/>
        <pt x="963" y="0" on="1"/>
        <pt x="963" y="85" on="1"/>
        <pt x="1129" y="115" on="1"/>
        <pt x="1021" y="437" on="1"/>
        <pt x="421" y="437" on="1"/>
        <pt x="313" y="115" on="1"/>
        <pt x="480" y="85" on="1"/>
        <pt x="480" y="0" on="1"/>
        <pt x="2" y="0" on="1"/>
      </contour>
      <contour>
        <pt x="982" y="554" on="1"/>
        <pt x="819" y="1042" on="1"/>
        <pt x="724" y="1343" on="1"/>
        <pt x="460" y="554" on="1"/>
      </contour>
    </TTGlyph>
    <TTGlyph name="Adieresis" xMin="2" yMin="0" xMax="1491" yMax="1920">
      <contour>
        <pt x="968" y="1651" on="1"/>
        <pt x="944" y="1651" on="0"/>
        <pt x="898" y="1668" on="0"/>
        <pt x="863" y="1699" on="0"/>
        <pt x="842" y="1745" on="0"/>
        <pt x="842" y="1774" on="1"/>
        <pt x="842" y="1805" on="0"/>
        <pt x="869" y="1859" on="0"/>
        <pt x="911" y="1898" on="0"/>
        <pt x="964" y="1920" on="0"/>
        <pt x="991" y="1920" on="1"/>
        <pt x="1057" y="1920" on="0"/>
        <pt x="1118" y="1847" on="0"/>
        <pt x="1118" y="1796" on="1"/>
        <pt x="1118" y="1763" on="0"/>
        <pt x="1092" y="1709" on="0"/>
        <pt x="1050" y="1672" on="0"/>
        <pt x="996" y="1651" on="0"/>
      </contour>
      <contour>
        <pt x="502" y="1651" on="1"/>
        <pt x="478" y="1651" on="0"/>
        <pt x="432" y="1668" on="0"/>
        <pt x="397" y="1699" on="0"/>
        <pt x="376" y="1745" on="0"/>
        <pt x="376" y="1774" on="1"/>
        <pt x="376" y="1805" on="0"/>
        <pt x="403" y="1859" on="0"/>
        <pt x="445" y="1898" on="0"/>
        <pt x="498" y="1920" on="0"/>
        <pt x="525" y="1920" on="1"/>
        <pt x="591" y="1920" on="0"/>
        <pt x="652" y="1847" on="0"/>
        <pt x="652" y="1796" on="1"/>
        <pt x="652" y="1763" on="0"/>
        <pt x="626" y="1709" on="0"/>
        <pt x="584" y="1672" on="0"/>
        <pt x="530" y="1651" on="0"/>
      </contour>
      <contour>
        <pt x="2" y="85" on="1"/>
        <pt x="145" y="114" on="1"/>
        <pt x="666" y="1553" on="1"/>
        <pt x="834" y="1553" on="1"/>
        <pt x="1332" y="115" on="1"/>
        <pt x="1491" y="85" on="1"/>
        <pt x="1491" y="0" on="1"/>
        <pt x="963" y="0" on="1"/>
        <pt x="963" y="85" on="1"/>
        <pt x="1129" y="115" on="1"/>
        <pt x="1021" y="437" on="1"/>
        <pt x="421" y="437" on="1"/>
        <pt x="313" y="115" on="1"/>
        <pt x="480" y="85" on="1"/>
        <pt x="480" y="0" on="1"/>
        <pt x="2" y="0" on="1"/>
      </contour>
      <contour>
        <pt x="982" y="554" on="1"/>
        <pt x="819" y="1042" on="1"/>
        <pt x="724" y="1343" on="1"/>
        <pt x="460" y="554" on="1"/>
      </contour>
    </TTGlyph>
    <TTGlyph name="Agrave" xMin="2" yMin="0" xMax="1491" yMax="1920">
      <contour>
        <pt x="760" y="1607" on="1"/>
        <pt x="713" y="1615" on="0"/>
        <pt x="612" y="1646" on="0"/>
        <pt x="509" y="1688" on="0"/>
        <pt x="408" y="1741" on="0"/>
        <pt x="361" y="1771" on="1"/>
        <pt x="507" y="1920" on="1"/>
        <pt x="813" y="1661" on="1"/>
      </contour>
      <contour>
        <pt x="2" y="85" on="1"/>
        <pt x="145" y="114" on="1"/>
        <pt x="666" y="1553" on="1"/>
        <pt x="834" y="1553" on="1"/>
        <pt x="1332" y="115" on="1"/>
        <pt x="1491" y="85" on="1"/>
        <pt x="1491" y="0" on="1"/>
        <pt x="963" y="0" on="1"/>
        <pt x="963" y="85" on="1"/>
        <pt x="1129" y="115" on="1"/>
        <pt x="1021" y="437" on="1"/>
        <pt x="421" y="437" on="1"/>
        <pt x="313" y="115" on="1"/>
        <pt x="480" y="85" on="1"/>
        <pt x="480" y="0" on="1"/>
        <pt x="2" y="0" on="1"/>
      </contour>
      <contour>
        <pt x="982" y="554" on="1"/>
        <pt x="819" y="1042" on="1"/>
        <pt x="724" y="1343" on="1"/>
        <pt x="460" y="554" on="1"/>
      </contour>
    </TTGlyph>
    <TTGlyph name="Aogonek" xMin="2" yMin="-526" xMax="1491" yMax="1553">
      <contour>
        <pt x="2" y="85" on="1"/>
        <pt x="145" y="114" on="1"/>
        <pt x="666" y="1553" on="1"/>
        <pt x="834" y="1553" on="1"/>
        <pt x="1332" y="115" on="1"/>
        <pt x="1491" y="85" on="1"/>
        <pt x="1491" y="0" on="1"/>
        <pt x="1304" y="0" on="1"/>
        <pt x="1259" y="-18" on="0"/>
        <pt x="1161" y="-84" on="0"/>
        <pt x="1079" y="-164" on="0"/>
        <pt x="1025" y="-246" on="0"/>
        <pt x="1025" y="-280" on="1"/>
        <pt x="1025" y="-315" on="0"/>
        <pt x="1041" y="-359" on="0"/>
        <pt x="1073" y="-385" on="0"/>
        <pt x="1121" y="-397" on="0"/>
        <pt x="1152" y="-399" on="1"/>
        <pt x="1183" y="-401" on="0"/>
        <pt x="1250" y="-384" on="0"/>
        <pt x="1309" y="-359" on="0"/>
        <pt x="1356" y="-334" on="0"/>
        <pt x="1368" y="-328" on="1"/>
        <pt x="1390" y="-416" on="1"/>
        <pt x="1370" y="-431" on="0"/>
        <pt x="1311" y="-472" on="0"/>
        <pt x="1227" y="-508" on="0"/>
        <pt x="1116" y="-530" on="0"/>
        <pt x="1044" y="-526" on="1"/>
        <pt x="989" y="-523" on="0"/>
        <pt x="914" y="-488" on="0"/>
        <pt x="867" y="-435" on="0"/>
        <pt x="846" y="-371" on="0"/>
        <pt x="846" y="-338" on="1"/>
        <pt x="846" y="-292" on="0"/>
        <pt x="898" y="-193" on="0"/>
        <pt x="982" y="-102" on="0"/>
        <pt x="1087" y="-25" on="0"/>
        <pt x="1140" y="0" on="1"/>
        <pt x="963" y="0" on="1"/>
        <pt x="963" y="85" on="1"/>
        <pt x="1129" y="115" on="1"/>
        <pt x="1021" y="437" on="1"/>
        <pt x="421" y="437" on="1"/>
        <pt x="313" y="115" on="1"/>
        <pt x="480" y="85" on="1"/>
        <pt x="480" y="0" on="1"/>
        <pt x="2" y="0" on="1"/>
      </contour>
      <contour>
        <pt x="982" y="554" on="1"/>
        <pt x="819" y="1042" on="1"/>
        <pt x="724" y="1343" on="1"/>
        <pt x="460" y="554" on="1"/>
      </contour>
    </TTGlyph>
    <TTGlyph name="Aring" xMin="2" yMin="0" xMax="1491" yMax="1920">
      <contour>
        <pt x="2" y="85" on="1"/>
        <pt x="145" y="114" on="1"/>
        <pt x="636" y="1471" on="1"/>
        <pt x="573" y="1500" on="0"/>
        <pt x="495" y="1612" on="0"/>
        <pt x="495" y="1684" on="1"/>
        <pt x="495" y="1734" on="0"/>
        <pt x="535" y="1820" on="0"/>
        <pt x="604" y="1884" on="0"/>
        <pt x="695" y="1920" on="0"/>
        <pt x="747" y="1920" on="1"/>
        <pt x="799" y="1920" on="0"/>
        <pt x="890" y="1884" on="0"/>
        <pt x="959" y="1820" on="0"/>
        <pt x="999" y="1734" on="0"/>
        <pt x="999" y="1684" on="1"/>
        <pt x="999" y="1613" on="0"/>
        <pt x="923" y="1502" on="0"/>
        <pt x="861" y="1473" on="1"/>
        <pt x="1332" y="115" on="1"/>
        <pt x="1491" y="85" on="1"/>
        <pt x="1491" y="0" on="1"/>
        <pt x="963" y="0" on="1"/>
        <pt x="963" y="85" on="1"/>
        <pt x="1129" y="115" on="1"/>
        <pt x="1021" y="437" on="1"/>
        <pt x="421" y="437" on="1"/>
        <pt x="313" y="115" on="1"/>
        <pt x="480" y="85" on="1"/>
        <pt x="480" y="0" on="1"/>
        <pt x="2" y="0" on="1"/>
      </contour>
      <contour>
        <pt x="747" y="1554" on="1"/>
        <pt x="774" y="1554" on="0"/>
        <pt x="823" y="1573" on="0"/>
        <pt x="859" y="1607" on="0"/>
        <pt x="880" y="1654" on="0"/>
        <pt x="880" y="1682" on="1"/>
        <pt x="880" y="1709" on="0"/>
        <pt x="859" y="1755" on="0"/>
        <pt x="823" y="1790" on="0"/>
        <pt x="774" y="1809" on="0"/>
        <pt x="747" y="1809" on="1"/>
        <pt x="720" y="1809" on="0"/>
        <pt x="671" y="1790" on="0"/>
        <pt x="635" y="1755" on="0"/>
        <pt x="614" y="1709" on="0"/>
        <pt x="614" y="1682" on="1"/>
        <pt x="614" y="1654" on="0"/>
        <pt x="635" y="1607" on="0"/>
        <pt x="671" y="1573" on="0"/>
        <pt x="720" y="1554" on="0"/>
      </contour>
      <contour>
        <pt x="982" y="554" on="1"/>
        <pt x="819" y="1042" on="1"/>
        <pt x="724" y="1343" on="1"/>
        <pt x="460" y="554" on="1"/>
      </contour>
    </TTGlyph>
    <TTGlyph name="Atilde" xMin="2" yMin="0" xMax="1491" yMax="1920">
      <contour>
        <pt x="351" y="1750" on="1"/>
        <pt x="370" y="1785" on="0"/>
        <pt x="431" y="1847" on="0"/>
        <pt x="506" y="1893" on="0"/>
        <pt x="589" y="1920" on="0"/>
        <pt x="628" y="1920" on="1"/>
        <pt x="677" y="1920" on="0"/>
        <pt x="743" y="1881" on="0"/>
        <pt x="798" y="1833" on="0"/>
        <pt x="852" y="1794" on="0"/>
        <pt x="888" y="1794" on="1"/>
        <pt x="946" y="1794" on="0"/>
        <pt x="1041" y="1843" on="0"/>
        <pt x="1073" y="1875" on="1"/>
        <pt x="1125" y="1802" on="1"/>
        <pt x="1106" y="1767" on="0"/>
        <pt x="1045" y="1705" on="0"/>
        <pt x="970" y="1658" on="0"/>
        <pt x="887" y="1631" on="0"/>
        <pt x="848" y="1631" on="1"/>
        <pt x="815" y="1631" on="0"/>
        <pt x="765" y="1650" on="0"/>
        <pt x="723" y="1679" on="0"/>
        <pt x="688" y="1713" on="0"/>
        <pt x="652" y="1742" on="0"/>
        <pt x="612" y="1761" on="0"/>
        <pt x="588" y="1761" on="1"/>
        <pt x="562" y="1761" on="0"/>
        <pt x="509" y="1746" on="0"/>
        <pt x="460" y="1722" on="0"/>
        <pt x="418" y="1692" on="0"/>
        <pt x="403" y="1677" on="1"/>
      </contour>
      <contour>
        <pt x="2" y="85" on="1"/>
        <pt x="145" y="114" on="1"/>
        <pt x="666" y="1553" on="1"/>
        <pt x="834" y="1553" on="1"/>
        <pt x="1332" y="115" on="1"/>
        <pt x="1491" y="85" on="1"/>
        <pt x="1491" y="0" on="1"/>
        <pt x="963" y="0" on="1"/>
        <pt x="963" y="85" on="1"/>
        <pt x="1129" y="115" on="1"/>
        <pt x="1021" y="437" on="1"/>
        <pt x="421" y="437" on="1"/>
        <pt x="313" y="115" on="1"/>
        <pt x="480" y="85" on="1"/>
        <pt x="480" y="0" on="1"/>
        <pt x="2" y="0" on="1"/>
      </contour>
      <contour>
        <pt x="982" y="554" on="1"/>
        <pt x="819" y="1042" on="1"/>
        <pt x="724" y="1343" on="1"/>
        <pt x="460" y="554" on="1"/>
      </contour>
    </TTGlyph>
    <TTGlyph name="B" xMin="106" yMin="-14" xMax="1326" yMax="1567">
      <contour>
        <pt x="106" y="85" on="1"/>
        <pt x="275" y="115" on="1"/>
        <pt x="275" y="1438" on="1"/>
        <pt x="110" y="1455" on="1"/>
        <pt x="110" y="1553" on="1"/>
        <pt x="363" y="1553" on="1"/>
        <pt x="429" y="1555" on="0"/>
        <pt x="610" y="1568" on="0"/>
        <pt x="731" y="1567" on="1"/>
        <pt x="851" y="1566" on="0"/>
        <pt x="1036" y="1517" on="0"/>
        <pt x="1160" y="1426" on="0"/>
        <pt x="1224" y="1297" on="0"/>
        <pt x="1224" y="1217" on="1"/>
        <pt x="1224" y="1148" on="0"/>
        <pt x="1189" y="1024" on="0"/>
        <pt x="1117" y="924" on="0"/>
        <pt x="1007" y="852" on="0"/>
        <pt x="932" y="835" on="1"/>
        <pt x="1014" y="834" on="0"/>
        <pt x="1158" y="779" on="0"/>
        <pt x="1264" y="680" on="0"/>
        <pt x="1326" y="541" on="0"/>
        <pt x="1326" y="456" on="1"/>
        <pt x="1326" y="355" on="0"/>
        <pt x="1247" y="183" on="0"/>
        <pt x="1086" y="57" on="0"/>
        <pt x="843" y="-14" on="0"/>
        <pt x="678" y="-14" on="1"/>
        <pt x="635" y="-14" on="0"/>
        <pt x="545" y="-11" on="0"/>
        <pt x="461" y="-7" on="0"/>
        <pt x="387" y="-2" on="0"/>
        <pt x="361" y="0" on="1"/>
        <pt x="106" y="0" on="1"/>
      </contour>
      <contour>
        <pt x="470" y="879" on="1"/>
        <pt x="495" y="874" on="0"/>
        <pt x="558" y="871" on="0"/>
        <pt x="623" y="871" on="0"/>
        <pt x="686" y="872" on="0"/>
        <pt x="711" y="872" on="1"/>
        <pt x="787" y="872" on="0"/>
        <pt x="909" y="911" on="0"/>
        <pt x="994" y="989" on="0"/>
        <pt x="1040" y="1104" on="0"/>
        <pt x="1040" y="1180" on="1"/>
        <pt x="1040" y="1250" on="0"/>
        <pt x="987" y="1355" on="0"/>
        <pt x="893" y="1425" on="0"/>
        <pt x="766" y="1460" on="0"/>
        <pt x="691" y="1460" on="1"/>
        <pt x="672" y="1460" on="0"/>
        <pt x="612" y="1461" on="0"/>
        <pt x="547" y="1459" on="0"/>
        <pt x="489" y="1452" on="0"/>
        <pt x="472" y="1445" on="1"/>
      </contour>
      <contour>
        <pt x="470" y="135" on="1"/>
        <pt x="483" y="127" on="0"/>
        <pt x="542" y="112" on="0"/>
        <pt x="614" y="102" on="0"/>
        <pt x="691" y="96" on="0"/>
        <pt x="723" y="96" on="1"/>
        <pt x="805" y="96" on="0"/>
        <pt x="949" y="130" on="0"/>
        <pt x="1056" y="206" on="0"/>
        <pt x="1118" y="329" on="0"/>
        <pt x="1118" y="418" on="1"/>
        <pt x="1118" y="591" on="0"/>
        <pt x="929" y="750" on="0"/>
        <pt x="741" y="750" on="1"/>
        <pt x="706" y="750" on="0"/>
        <pt x="633" y="751" on="0"/>
        <pt x="562" y="750" on="0"/>
        <pt x="497" y="748" on="0"/>
        <pt x="470" y="745" on="1"/>
      </contour>
    </TTGlyph>
    <TTGlyph name="C" xMin="86" yMin="-28" xMax="1310" yMax="1567">
      <contour>
        <pt x="86" y="724" on="1"/>
        <pt x="86" y="853" on="0"/>
        <pt x="146" y="1078" on="0"/>
        <pt x="254" y="1266" on="0"/>
        <pt x="404" y="1412" on="0"/>
        <pt x="583" y="1514" on="0"/>
        <pt x="785" y="1567" on="0"/>
        <pt x="892" y="1567" on="1"/>
        <pt x="964" y="1567" on="0"/>
        <pt x="1088" y="1550" on="0"/>
        <pt x="1192" y="1527" on="0"/>
        <pt x="1276" y="1503" on="0"/>
        <pt x="1309" y="1496" on="1"/>
        <pt x="1293" y="1206" on="1"/>
        <pt x="1187" y="1206" on="1"/>
        <pt x="1135" y="1373" on="1"/>
        <pt x="1103" y="1394" on="0"/>
        <pt x="1039" y="1424" on="0"/>
        <pt x="966" y="1443" on="0"/>
        <pt x="881" y="1451" on="0"/>
        <pt x="829" y="1451" on="1"/>
        <pt x="722" y="1451" on="0"/>
        <pt x="527" y="1363" on="0"/>
        <pt x="378" y="1193" on="0"/>
        <pt x="290" y="945" on="0"/>
        <pt x="290" y="786" on="1"/>
        <pt x="290" y="644" on="0"/>
        <pt x="361" y="387" on="0"/>
        <pt x="502" y="192" on="0"/>
        <pt x="710" y="77" on="0"/>
        <pt x="847" y="77" on="1"/>
        <pt x="968" y="77" on="0"/>
        <pt x="1122" y="140" on="0"/>
        <pt x="1167" y="197" on="1"/>
        <pt x="1225" y="351" on="1"/>
        <pt x="1248" y="351" on="0"/>
        <pt x="1287" y="350" on="0"/>
        <pt x="1310" y="350" on="1"/>
        <pt x="1310" y="63" on="1"/>
        <pt x="1274" y="61" on="0"/>
        <pt x="1187" y="33" on="0"/>
        <pt x="1067" y="-1" on="0"/>
        <pt x="908" y="-28" on="0"/>
        <pt x="801" y="-28" on="1"/>
        <pt x="646" y="-28" on="0"/>
        <pt x="384" y="82" on="0"/>
        <pt x="193" y="281" on="0"/>
        <pt x="86" y="557" on="0"/>
      </contour>
    </TTGlyph>
    <TTGlyph name="Ccedilla" xMin="86" yMin="-528" xMax="1310" yMax="1567">
      <contour>
        <pt x="86" y="724" on="1"/>
        <pt x="86" y="853" on="0"/>
        <pt x="146" y="1078" on="0"/>
        <pt x="254" y="1266" on="0"/>
        <pt x="404" y="1412" on="0"/>
        <pt x="583" y="1514" on="0"/>
        <pt x="785" y="1567" on="0"/>
        <pt x="892" y="1567" on="1"/>
        <pt x="964" y="1567" on="0"/>
        <pt x="1088" y="1550" on="0"/>
        <pt x="1192" y="1527" on="0"/>
        <pt x="1276" y="1503" on="0"/>
        <pt x="1309" y="1496" on="1"/>
        <pt x="1293" y="1206" on="1"/>
        <pt x="1187" y="1206" on="1"/>
        <pt x="1135" y="1373" on="1"/>
        <pt x="1103" y="1394" on="0"/>
        <pt x="1039" y="1424" on="0"/>
        <pt x="966" y="1443" on="0"/>
        <pt x="881" y="1451" on="0"/>
        <pt x="829" y="1451" on="1"/>
        <pt x="722" y="1451" on="0"/>
        <pt x="527" y="1363" on="0"/>
        <pt x="378" y="1193" on="0"/>
        <pt x="290" y="945" on="0"/>
        <pt x="290" y="786" on="1"/>
        <pt x="290" y="644" on="0"/>
        <pt x="361" y="387" on="0"/>
        <pt x="502" y="192" on="0"/>
        <pt x="710" y="77" on="0"/>
        <pt x="847" y="77" on="1"/>
        <pt x="968" y="77" on="0"/>
        <pt x="1122" y="140" on="0"/>
        <pt x="1167" y="197" on="1"/>
        <pt x="1225" y="351" on="1"/>
        <pt x="1248" y="351" on="0"/>
        <pt x="1287" y="350" on="0"/>
        <pt x="1310" y="350" on="1"/>
        <pt x="1310" y="63" on="1"/>
        <pt x="1276" y="61" on="0"/>
        <pt x="1195" y="36" on="0"/>
        <pt x="1086" y="4" on="0"/>
        <pt x="943" y="-24" on="0"/>
        <pt x="848" y="-27" on="1"/>
        <pt x="846" y="-50" on="0"/>
        <pt x="846" y="-102" on="0"/>
        <pt x="848" y="-125" on="1"/>
        <pt x="917" y="-125" on="0"/>
        <pt x="1014" y="-160" on="0"/>
        <pt x="1075" y="-214" on="0"/>
        <pt x="1103" y="-281" on="0"/>
        <pt x="1103" y="-314" on="1"/>
        <pt x="1103" y="-364" on="0"/>
        <pt x="1065" y="-440" on="0"/>
        <pt x="997" y="-494" on="0"/>
        <pt x="905" y="-524" on="0"/>
        <pt x="850" y="-527" on="1"/>
        <pt x="806" y="-529" on="0"/>
        <pt x="745" y="-526" on="0"/>
        <pt x="701" y="-519" on="0"/>
        <pt x="668" y="-510" on="0"/>
        <pt x="653" y="-506" on="1"/>
        <pt x="653" y="-480" on="0"/>
        <pt x="654" y="-431" on="0"/>
        <pt x="654" y="-405" on="1"/>
        <pt x="666" y="-408" on="0"/>
        <pt x="697" y="-413" on="0"/>
        <pt x="729" y="-418" on="0"/>
        <pt x="758" y="-420" on="0"/>
        <pt x="767" y="-420" on="1"/>
        <pt x="795" y="-420" on="0"/>
        <pt x="845" y="-414" on="0"/>
        <pt x="884" y="-391" on="0"/>
        <pt x="907" y="-347" on="0"/>
        <pt x="907" y="-309" on="1"/>
        <pt x="907" y="-265" on="0"/>
        <pt x="831" y="-209" on="0"/>
        <pt x="750" y="-209" on="1"/>
        <pt x="744" y="-209" on="0"/>
        <pt x="729" y="-210" on="0"/>
        <pt x="714" y="-211" on="0"/>
        <pt x="702" y="-213" on="0"/>
        <pt x="701" y="-213" on="1"/>
        <pt x="702" y="-168" on="0"/>
        <pt x="716" y="-77" on="0"/>
        <pt x="730" y="-24" on="1"/>
        <pt x="589" y="-12" on="0"/>
        <pt x="352" y="107" on="0"/>
        <pt x="181" y="303" on="0"/>
        <pt x="86" y="567" on="0"/>
      </contour>
    </TTGlyph>
    <TTGlyph name="D" xMin="106" yMin="-10" xMax="1503" yMax="1567">
      <contour>
        <pt x="106" y="85" on="1"/>
        <pt x="275" y="115" on="1"/>
        <pt x="275" y="1437" on="1"/>
        <pt x="110" y="1455" on="1"/>
        <pt x="110" y="1553" on="1"/>
        <pt x="373" y="1553" on="1"/>
        <pt x="440" y="1553" on="0"/>
        <pt x="538" y="1557" on="0"/>
        <pt x="622" y="1563" on="0"/>
        <pt x="702" y="1567" on="0"/>
        <pt x="749" y="1567" on="1"/>
        <pt x="943" y="1568" on="0"/>
        <pt x="1227" y="1465" on="0"/>
        <pt x="1413" y="1270" on="0"/>
        <pt x="1503" y="992" on="0"/>
        <pt x="1503" y="817" on="1"/>
        <pt x="1503" y="620" on="0"/>
        <pt x="1381" y="310" on="0"/>
        <pt x="1168" y="96" on="0"/>
        <pt x="879" y="-14" on="0"/>
        <pt x="713" y="-10" on="1"/>
        <pt x="639" y="-8" on="0"/>
        <pt x="476" y="1" on="0"/>
        <pt x="376" y="1" on="1"/>
        <pt x="308" y="1" on="0"/>
        <pt x="174" y="0" on="0"/>
        <pt x="106" y="0" on="1"/>
      </contour>
      <contour>
        <pt x="470" y="132" on="1"/>
        <pt x="534" y="114" on="0"/>
        <pt x="670" y="99" on="0"/>
        <pt x="748" y="101" on="1"/>
        <pt x="858" y="104" on="0"/>
        <pt x="1057" y="186" on="0"/>
        <pt x="1209" y="349" on="0"/>
        <pt x="1298" y="598" on="0"/>
        <pt x="1298" y="768" on="1"/>
        <pt x="1298" y="945" on="0"/>
        <pt x="1213" y="1206" on="0"/>
        <pt x="1055" y="1377" on="0"/>
        <pt x="829" y="1459" on="0"/>
        <pt x="689" y="1455" on="1"/>
        <pt x="648" y="1454" on="0"/>
        <pt x="586" y="1450" on="0"/>
        <pt x="536" y="1446" on="0"/>
        <pt x="493" y="1439" on="0"/>
        <pt x="470" y="1435" on="1"/>
      </contour>
    </TTGlyph>
    <TTGlyph name="Delta" xMin="148" yMin="1" xMax="1621" yMax="1516">
      <contour>
        <pt x="836" y="1516" on="1"/>
        <pt x="868" y="1516" on="1"/>
        <pt x="1621" y="27" on="1"/>
        <pt x="1605" y="1" on="1"/>
        <pt x="162" y="1" on="1"/>
        <pt x="148" y="22" on="1"/>
      </contour>
      <contour>
        <pt x="1355" y="120" on="1"/>
        <pt x="815" y="1213" on="1"/>
        <pt x="317" y="120" on="1"/>
      </contour>
    </TTGlyph>
    <TTGlyph name="E" xMin="102" yMin="0" xMax="1256" yMax="1553">
      <contour>
        <pt x="102" y="85" on="1"/>
        <pt x="271" y="115" on="1"/>
        <pt x="271" y="1437" on="1"/>
        <pt x="106" y="1455" on="1"/>
        <pt x="106" y="1553" on="1"/>
        <pt x="1144" y="1553" on="1"/>
        <pt x="1173" y="1267" on="1"/>
        <pt x="1063" y="1267" on="1"/>
        <pt x="1017" y="1435" on="1"/>
        <pt x="465" y="1448" on="1"/>
        <pt x="465" y="865" on="1"/>
        <pt x="837" y="872" on="1"/>
        <pt x="867" y="1029" on="1"/>
        <pt x="969" y="1029" on="1"/>
        <pt x="969" y="599" on="1"/>
        <pt x="867" y="599" on="1"/>
        <pt x="837" y="752" on="1"/>
        <pt x="465" y="758" on="1"/>
        <pt x="465" y="108" on="1"/>
        <pt x="1059" y="127" on="1"/>
        <pt x="1159" y="334" on="1"/>
        <pt x="1256" y="310" on="1"/>
        <pt x="1211" y="0" on="1"/>
        <pt x="102" y="0" on="1"/>
      </contour>
    </TTGlyph>
    <TTGlyph name="Eacute" xMin="102" yMin="0" xMax="1256" yMax="1920">
      <contour>
        <pt x="665" y="1661" on="1"/>
        <pt x="971" y="1920" on="1"/>
        <pt x="1117" y="1771" on="1"/>
        <pt x="1070" y="1741" on="0"/>
        <pt x="969" y="1688" on="0"/>
        <pt x="866" y="1646" on="0"/>
        <pt x="764" y="1615" on="0"/>
        <pt x="718" y="1607" on="1"/>
      </contour>
      <contour>
        <pt x="102" y="85" on="1"/>
        <pt x="271" y="115" on="1"/>
        <pt x="271" y="1437" on="1"/>
        <pt x="106" y="1455" on="1"/>
        <pt x="106" y="1553" on="1"/>
        <pt x="1144" y="1553" on="1"/>
        <pt x="1173" y="1267" on="1"/>
        <pt x="1063" y="1267" on="1"/>
        <pt x="1017" y="1435" on="1"/>
        <pt x="465" y="1448" on="1"/>
        <pt x="465" y="865" on="1"/>
        <pt x="837" y="872" on="1"/>
        <pt x="867" y="1029" on="1"/>
        <pt x="969" y="1029" on="1"/>
        <pt x="969" y="599" on="1"/>
        <pt x="867" y="599" on="1"/>
        <pt x="837" y="752" on="1"/>
        <pt x="465" y="758" on="1"/>
        <pt x="465" y="108" on="1"/>
        <pt x="1059" y="127" on="1"/>
        <pt x="1159" y="334" on="1"/>
        <pt x="1256" y="310" on="1"/>
        <pt x="1211" y="0" on="1"/>
        <pt x="102" y="0" on="1"/>
      </contour>
    </TTGlyph>
    <TTGlyph name="Ecircumflex" xMin="102" yMin="0" xMax="1256" yMax="1920">
      <contour>
        <pt x="379" y="1662" on="1"/>
        <pt x="632" y="1920" on="1"/>
        <pt x="821" y="1920" on="1"/>
        <pt x="1078" y="1665" on="1"/>
        <pt x="991" y="1616" on="1"/>
        <pt x="727" y="1784" on="1"/>
        <pt x="457" y="1616" on="1"/>
      </contour>
      <contour>
        <pt x="102" y="85" on="1"/>
        <pt x="271" y="115" on="1"/>
        <pt x="271" y="1437" on="1"/>
        <pt x="106" y="1455" on="1"/>
        <pt x="106" y="1553" on="1"/>
        <pt x="1144" y="1553" on="1"/>
        <pt x="1173" y="1267" on="1"/>
        <pt x="1063" y="1267" on="1"/>
        <pt x="1017" y="1435" on="1"/>
        <pt x="465" y="1448" on="1"/>
        <pt x="465" y="865" on="1"/>
        <pt x="837" y="872" on="1"/>
        <pt x="867" y="1029" on="1"/>
        <pt x="969" y="1029" on="1"/>
        <pt x="969" y="599" on="1"/>
        <pt x="867" y="599" on="1"/>
        <pt x="837" y="752" on="1"/>
        <pt x="465" y="758" on="1"/>
        <pt x="465" y="108" on="1"/>
        <pt x="1059" y="127" on="1"/>
        <pt x="1159" y="334" on="1"/>
        <pt x="1256" y="310" on="1"/>
        <pt x="1211" y="0" on="1"/>
        <pt x="102" y="0" on="1"/>
      </contour>
    </TTGlyph>
    <TTGlyph name="Edieresis" xMin="102" yMin="0" xMax="1256" yMax="1920">
      <contour>
        <pt x="946" y="1651" on="1"/>
        <pt x="922" y="1651" on="0"/>
        <pt x="876" y="1668" on="0"/>
        <pt x="841" y="1699" on="0"/>
        <pt x="820" y="1745" on="0"/>
        <pt x="820" y="1774" on="1"/>
        <pt x="820" y="1805" on="0"/>
        <pt x="847" y="1859" on="0"/>
        <pt x="889" y="1898" on="0"/>
        <pt x="942" y="1920" on="0"/>
        <pt x="969" y="1920" on="1"/>
        <pt x="1035" y="1920" on="0"/>
        <pt x="1096" y="1847" on="0"/>
        <pt x="1096" y="1796" on="1"/>
        <pt x="1096" y="1763" on="0"/>
        <pt x="1070" y="1709" on="0"/>
        <pt x="1028" y="1672" on="0"/>
        <pt x="974" y="1651" on="0"/>
      </contour>
      <contour>
        <pt x="480" y="1651" on="1"/>
        <pt x="456" y="1651" on="0"/>
        <pt x="410" y="1668" on="0"/>
        <pt x="375" y="1699" on="0"/>
        <pt x="354" y="1745" on="0"/>
        <pt x="354" y="1774" on="1"/>
        <pt x="354" y="1805" on="0"/>
        <pt x="381" y="1859" on="0"/>
        <pt x="423" y="1898" on="0"/>
        <pt x="476" y="1920" on="0"/>
        <pt x="503" y="1920" on="1"/>
        <pt x="569" y="1920" on="0"/>
        <pt x="630" y="1847" on="0"/>
        <pt x="630" y="1796" on="1"/>
        <pt x="630" y="1763" on="0"/>
        <pt x="604" y="1709" on="0"/>
        <pt x="562" y="1672" on="0"/>
        <pt x="508" y="1651" on="0"/>
      </contour>
      <contour>
        <pt x="102" y="85" on="1"/>
        <pt x="271" y="115" on="1"/>
        <pt x="271" y="1437" on="1"/>
        <pt x="106" y="1455" on="1"/>
        <pt x="106" y="1553" on="1"/>
        <pt x="1144" y="1553" on="1"/>
        <pt x="1173" y="1267" on="1"/>
        <pt x="1063" y="1267" on="1"/>
        <pt x="1017" y="1435" on="1"/>
        <pt x="465" y="1448" on="1"/>
        <pt x="465" y="865" on="1"/>
        <pt x="837" y="872" on="1"/>
        <pt x="867" y="1029" on="1"/>
        <pt x="969" y="1029" on="1"/>
        <pt x="969" y="599" on="1"/>
        <pt x="867" y="599" on="1"/>
        <pt x="837" y="752" on="1"/>
        <pt x="465" y="758" on="1"/>
        <pt x="465" y="108" on="1"/>
        <pt x="1059" y="127" on="1"/>
        <pt x="1159" y="334" on="1"/>
        <pt x="1256" y="310" on="1"/>
        <pt x="1211" y="0" on="1"/>
        <pt x="102" y="0" on="1"/>
      </contour>
    </TTGlyph>
    <TTGlyph name="Egrave" xMin="102" yMin="0" xMax="1256" yMax="1920">
      <contour>
        <pt x="738" y="1607" on="1"/>
        <pt x="691" y="1615" on="0"/>
        <pt x="590" y="1646" on="0"/>
        <pt x="487" y="1688" on="0"/>
        <pt x="386" y="1741" on="0"/>
        <pt x="339" y="1771" on="1"/>
        <pt x="485" y="1920" on="1"/>
        <pt x="791" y="1661" on="1"/>
      </contour>
      <contour>
        <pt x="102" y="85" on="1"/>
        <pt x="271" y="115" on="1"/>
        <pt x="271" y="1437" on="1"/>
        <pt x="106" y="1455" on="1"/>
        <pt x="106" y="1553" on="1"/>
        <pt x="1144" y="1553" on="1"/>
        <pt x="1173" y="1267" on="1"/>
        <pt x="1063" y="1267" on="1"/>
        <pt x="1017" y="1435" on="1"/>
        <pt x="465" y="1448" on="1"/>
        <pt x="465" y="865" on="1"/>
        <pt x="837" y="872" on="1"/>
        <pt x="867" y="1029" on="1"/>
        <pt x="969" y="1029" on="1"/>
        <pt x="969" y="599" on="1"/>
        <pt x="867" y="599" on="1"/>
        <pt x="837" y="752" on="1"/>
        <pt x="465" y="758" on="1"/>
        <pt x="465" y="108" on="1"/>
        <pt x="1059" y="127" on="1"/>
        <pt x="1159" y="334" on="1"/>
        <pt x="1256" y="310" on="1"/>
        <pt x="1211" y="0" on="1"/>
        <pt x="102" y="0" on="1"/>
      </contour>
    </TTGlyph>
    <TTGlyph name="Eogonek" xMin="102" yMin="-526" xMax="1297" yMax="1553">
      <contour>
        <pt x="102" y="85" on="1"/>
        <pt x="271" y="115" on="1"/>
        <pt x="271" y="1437" on="1"/>
        <pt x="106" y="1455" on="1"/>
        <pt x="106" y="1553" on="1"/>
        <pt x="1144" y="1553" on="1"/>
        <pt x="1173" y="1267" on="1"/>
        <pt x="1063" y="1267" on="1"/>
        <pt x="1017" y="1435" on="1"/>
        <pt x="465" y="1448" on="1"/>
        <pt x="465" y="865" on="1"/>
        <pt x="837" y="872" on="1"/>
        <pt x="867" y="1029" on="1"/>
        <pt x="969" y="1029" on="1"/>
        <pt x="969" y="599" on="1"/>
        <pt x="867" y="599" on="1"/>
        <pt x="837" y="752" on="1"/>
        <pt x="465" y="758" on="1"/>
        <pt x="465" y="108" on="1"/>
        <pt x="1059" y="127" on="1"/>
        <pt x="1159" y="334" on="1"/>
        <pt x="1256" y="310" on="1"/>
        <pt x="1211" y="0" on="1"/>
        <pt x="1166" y="-18" on="0"/>
        <pt x="1068" y="-84" on="0"/>
        <pt x="986" y="-164" on="0"/>
        <pt x="932" y="-246" on="0"/>
        <pt x="932" y="-280" on="1"/>
        <pt x="932" y="-315" on="0"/>
        <pt x="948" y="-359" on="0"/>
        <pt x="980" y="-385" on="0"/>
        <pt x="1028" y="-397" on="0"/>
        <pt x="1059" y="-399" on="1"/>
        <pt x="1090" y="-401" on="0"/>
        <pt x="1157" y="-384" on="0"/>
        <pt x="1216" y="-359" on="0"/>
        <pt x="1263" y="-334" on="0"/>
        <pt x="1275" y="-328" on="1"/>
        <pt x="1297" y="-416" on="1"/>
        <pt x="1277" y="-431" on="0"/>
        <pt x="1218" y="-472" on="0"/>
        <pt x="1134" y="-508" on="0"/>
        <pt x="1023" y="-530" on="0"/>
        <pt x="951" y="-526" on="1"/>
        <pt x="896" y="-523" on="0"/>
        <pt x="821" y="-488" on="0"/>
        <pt x="774" y="-435" on="0"/>
        <pt x="753" y="-371" on="0"/>
        <pt x="753" y="-338" on="1"/>
        <pt x="753" y="-292" on="0"/>
        <pt x="805" y="-193" on="0"/>
        <pt x="889" y="-102" on="0"/>
        <pt x="994" y="-25" on="0"/>
        <pt x="1047" y="0" on="1"/>
        <pt x="102" y="0" on="1"/>
      </contour>
    </TTGlyph>
    <TTGlyph name="Eth" xMin="99" yMin="-10" xMax="1503" yMax="1567">
      <contour>
        <pt x="106" y="85" on="1"/>
        <pt x="275" y="115" on="1"/>
        <pt x="275" y="724" on="1"/>
        <pt x="99" y="724" on="1"/>
        <pt x="99" y="871" on="1"/>
        <pt x="275" y="871" on="1"/>
        <pt x="275" y="1437" on="1"/>
        <pt x="110" y="1455" on="1"/>
        <pt x="110" y="1553" on="1"/>
        <pt x="373" y="1553" on="1"/>
        <pt x="440" y="1553" on="0"/>
        <pt x="538" y="1557" on="0"/>
        <pt x="622" y="1563" on="0"/>
        <pt x="702" y="1567" on="0"/>
        <pt x="749" y="1567" on="1"/>
        <pt x="943" y="1568" on="0"/>
        <pt x="1227" y="1465" on="0"/>
        <pt x="1413" y="1270" on="0"/>
        <pt x="1503" y="992" on="0"/>
        <pt x="1503" y="817" on="1"/>
        <pt x="1503" y="620" on="0"/>
        <pt x="1381" y="310" on="0"/>
        <pt x="1168" y="96" on="0"/>
        <pt x="879" y="-14" on="0"/>
        <pt x="713" y="-10" on="1"/>
        <pt x="639" y="-8" on="0"/>
        <pt x="476" y="1" on="0"/>
        <pt x="376" y="1" on="1"/>
        <pt x="308" y="1" on="0"/>
        <pt x="174" y="0" on="0"/>
        <pt x="106" y="0" on="1"/>
      </contour>
      <contour>
        <pt x="470" y="132" on="1"/>
        <pt x="534" y="114" on="0"/>
        <pt x="670" y="99" on="0"/>
        <pt x="748" y="101" on="1"/>
        <pt x="858" y="104" on="0"/>
        <pt x="1057" y="186" on="0"/>
        <pt x="1209" y="349" on="0"/>
        <pt x="1298" y="598" on="0"/>
        <pt x="1298" y="768" on="1"/>
        <pt x="1298" y="945" on="0"/>
        <pt x="1213" y="1206" on="0"/>
        <pt x="1055" y="1377" on="0"/>
        <pt x="829" y="1459" on="0"/>
        <pt x="689" y="1455" on="1"/>
        <pt x="648" y="1454" on="0"/>
        <pt x="586" y="1450" on="0"/>
        <pt x="536" y="1446" on="0"/>
        <pt x="493" y="1439" on="0"/>
        <pt x="470" y="1435" on="1"/>
        <pt x="470" y="871" on="1"/>
        <pt x="727" y="871" on="1"/>
        <pt x="727" y="724" on="1"/>
        <pt x="470" y="724" on="1"/>
      </contour>
    </TTGlyph>
    <TTGlyph name="Euro" xMin="-39" yMin="-28" xMax="1270" yMax="1567">
      <contour>
        <pt x="-39" y="693" on="1"/>
        <pt x="156" y="693" on="1"/>
        <pt x="156" y="724" on="1"/>
        <pt x="156" y="769" on="0"/>
        <pt x="162" y="855" on="0"/>
        <pt x="167" y="897" on="1"/>
        <pt x="-9" y="897" on="1"/>
        <pt x="-9" y="1024" on="1"/>
        <pt x="191" y="1024" on="1"/>
        <pt x="223" y="1151" on="0"/>
        <pt x="343" y="1353" on="0"/>
        <pt x="511" y="1493" on="0"/>
        <pt x="726" y="1567" on="0"/>
        <pt x="852" y="1567" on="1"/>
        <pt x="924" y="1567" on="0"/>
        <pt x="1048" y="1550" on="0"/>
        <pt x="1152" y="1527" on="0"/>
        <pt x="1236" y="1503" on="0"/>
        <pt x="1269" y="1496" on="1"/>
        <pt x="1253" y="1206" on="1"/>
        <pt x="1167" y="1206" on="1"/>
        <pt x="1115" y="1373" on="1"/>
        <pt x="1052" y="1416" on="0"/>
        <pt x="894" y="1451" on="0"/>
        <pt x="789" y="1451" on="1"/>
        <pt x="619" y="1451" on="0"/>
        <pt x="413" y="1230" on="0"/>
        <pt x="378" y="1024" on="1"/>
        <pt x="949" y="1024" on="1"/>
        <pt x="949" y="897" on="1"/>
        <pt x="364" y="897" on="1"/>
        <pt x="362" y="870" on="0"/>
        <pt x="360" y="815" on="0"/>
        <pt x="360" y="786" on="1"/>
        <pt x="360" y="762" on="0"/>
        <pt x="360" y="716" on="0"/>
        <pt x="362" y="693" on="1"/>
        <pt x="919" y="693" on="1"/>
        <pt x="919" y="566" on="1"/>
        <pt x="371" y="566" on="1"/>
        <pt x="383" y="462" on="0"/>
        <pt x="441" y="283" on="0"/>
        <pt x="543" y="152" on="0"/>
        <pt x="697" y="77" on="0"/>
        <pt x="807" y="77" on="1"/>
        <pt x="868" y="77" on="0"/>
        <pt x="960" y="89" on="0"/>
        <pt x="1036" y="113" on="0"/>
        <pt x="1102" y="151" on="0"/>
        <pt x="1136" y="177" on="1"/>
        <pt x="1157" y="264" on="0"/>
        <pt x="1181" y="351" on="1"/>
        <pt x="1204" y="351" on="0"/>
        <pt x="1247" y="350" on="0"/>
        <pt x="1270" y="350" on="1"/>
        <pt x="1270" y="63" on="1"/>
        <pt x="1234" y="61" on="0"/>
        <pt x="1147" y="33" on="0"/>
        <pt x="1027" y="-1" on="0"/>
        <pt x="868" y="-28" on="0"/>
        <pt x="761" y="-28" on="1"/>
        <pt x="625" y="-28" on="0"/>
        <pt x="417" y="57" on="0"/>
        <pt x="269" y="213" on="0"/>
        <pt x="181" y="432" on="0"/>
        <pt x="165" y="566" on="1"/>
        <pt x="-39" y="566" on="1"/>
      </contour>
    </TTGlyph>
    <TTGlyph name="F" xMin="104" yMin="0" xMax="1203" yMax="1553">
      <contour>
        <pt x="104" y="85" on="1"/>
        <pt x="275" y="114" on="1"/>
        <pt x="275" y="1438" on="1"/>
        <pt x="110" y="1455" on="1"/>
        <pt x="110" y="1553" on="1"/>
        <pt x="1184" y="1553" on="1"/>
        <pt x="1203" y="1268" on="1"/>
        <pt x="1103" y="1266" on="1"/>
        <pt x="1057" y="1429" on="1"/>
        <pt x="469" y="1443" on="1"/>
        <pt x="469" y="847" on="1"/>
        <pt x="909" y="856" on="1"/>
        <pt x="949" y="1001" on="1"/>
        <pt x="1047" y="1001" on="1"/>
        <pt x="1047" y="581" on="1"/>
        <pt x="936" y="581" on="1"/>
        <pt x="910" y="732" on="1"/>
        <pt x="469" y="740" on="1"/>
        <pt x="469" y="115" on="1"/>
        <pt x="758" y="95" on="1"/>
        <pt x="758" y="0" on="1"/>
        <pt x="104" y="0" on="1"/>
      </contour>
    </TTGlyph>
    <TTGlyph name="G" xMin="86" yMin="-28" xMax="1476" yMax="1567">
      <contour>
        <pt x="86" y="724" on="1"/>
        <pt x="86" y="853" on="0"/>
        <pt x="144" y="1078" on="0"/>
        <pt x="250" y="1266" on="0"/>
        <pt x="397" y="1412" on="0"/>
        <pt x="575" y="1514" on="0"/>
        <pt x="779" y="1567" on="0"/>
        <pt x="888" y="1567" on="1"/>
        <pt x="982" y="1567" on="0"/>
        <pt x="1129" y="1552" on="0"/>
        <pt x="1241" y="1531" on="0"/>
        <pt x="1321" y="1509" on="0"/>
        <pt x="1347" y="1503" on="1"/>
        <pt x="1331" y="1213" on="1"/>
        <pt x="1225" y="1213" on="1"/>
        <pt x="1173" y="1380" on="1"/>
        <pt x="1165" y="1390" on="0"/>
        <pt x="1114" y="1415" on="0"/>
        <pt x="1028" y="1438" on="0"/>
        <pt x="905" y="1452" on="0"/>
        <pt x="825" y="1451" on="1"/>
        <pt x="718" y="1449" on="0"/>
        <pt x="524" y="1358" on="0"/>
        <pt x="377" y="1188" on="0"/>
        <pt x="290" y="942" on="0"/>
        <pt x="290" y="786" on="1"/>
        <pt x="290" y="695" on="0"/>
        <pt x="319" y="520" on="0"/>
        <pt x="377" y="363" on="0"/>
        <pt x="466" y="229" on="0"/>
        <pt x="585" y="132" on="0"/>
        <pt x="736" y="77" on="0"/>
        <pt x="827" y="77" on="1"/>
        <pt x="870" y="77" on="0"/>
        <pt x="962" y="86" on="0"/>
        <pt x="1050" y="109" on="0"/>
        <pt x="1128" y="150" on="0"/>
        <pt x="1158" y="183" on="1"/>
        <pt x="1158" y="593" on="1"/>
        <pt x="915" y="610" on="1"/>
        <pt x="915" y="708" on="1"/>
        <pt x="1476" y="708" on="1"/>
        <pt x="1476" y="610" on="1"/>
        <pt x="1353" y="592" on="1"/>
        <pt x="1353" y="81" on="1"/>
        <pt x="1320" y="79" on="0"/>
        <pt x="1201" y="45" on="0"/>
        <pt x="1048" y="5" on="0"/>
        <pt x="872" y="-28" on="0"/>
        <pt x="781" y="-28" on="1"/>
        <pt x="626" y="-28" on="0"/>
        <pt x="370" y="85" on="0"/>
        <pt x="187" y="286" on="0"/>
        <pt x="86" y="561" on="0"/>
      </contour>
    </TTGlyph>
    <TTGlyph name="H" xMin="106" yMin="0" xMax="1603" yMax="1553">
      <contour>
        <pt x="106" y="85" on="1"/>
        <pt x="275" y="115" on="1"/>
        <pt x="275" y="1437" on="1"/>
        <pt x="110" y="1455" on="1"/>
        <pt x="110" y="1553" on="1"/>
        <pt x="633" y="1553" on="1"/>
        <pt x="633" y="1455" on="1"/>
        <pt x="470" y="1438" on="1"/>
        <pt x="470" y="814" on="1"/>
        <pt x="1237" y="814" on="1"/>
        <pt x="1237" y="1438" on="1"/>
        <pt x="1072" y="1455" on="1"/>
        <pt x="1072" y="1553" on="1"/>
        <pt x="1592" y="1553" on="1"/>
        <pt x="1592" y="1455" on="1"/>
        <pt x="1431" y="1438" on="1"/>
        <pt x="1431" y="115" on="1"/>
        <pt x="1603" y="85" on="1"/>
        <pt x="1603" y="0" on="1"/>
        <pt x="1065" y="0" on="1"/>
        <pt x="1065" y="85" on="1"/>
        <pt x="1237" y="114" on="1"/>
        <pt x="1237" y="696" on="1"/>
        <pt x="470" y="696" on="1"/>
        <pt x="470" y="115" on="1"/>
        <pt x="642" y="85" on="1"/>
        <pt x="642" y="0" on="1"/>
        <pt x="106" y="0" on="1"/>
      </contour>
    </TTGlyph>
    <TTGlyph name="I" xMin="105" yMin="0" xMax="661" yMax="1553">
      <contour>
        <pt x="105" y="85" on="1"/>
        <pt x="284" y="114" on="1"/>
        <pt x="284" y="1438" on="1"/>
        <pt x="109" y="1455" on="1"/>
        <pt x="109" y="1553" on="1"/>
        <pt x="652" y="1553" on="1"/>
        <pt x="652" y="1455" on="1"/>
        <pt x="479" y="1437" on="1"/>
        <pt x="479" y="115" on="1"/>
        <pt x="661" y="85" on="1"/>
        <pt x="661" y="0" on="1"/>
        <pt x="105" y="0" on="1"/>
      </contour>
    </TTGlyph>
    <TTGlyph name="IJ" xMin="105" yMin="-390" xMax="1405" yMax="1553">
      <contour>
        <pt x="677" y="-319" on="1"/>
        <pt x="733" y="-301" on="0"/>
        <pt x="834" y="-251" on="0"/>
        <pt x="918" y="-187" on="0"/>
        <pt x="982" y="-107" on="0"/>
        <pt x="1001" y="-59" on="1"/>
        <pt x="1016" y="-15" on="0"/>
        <pt x="1034" y="82" on="0"/>
        <pt x="1044" y="195" on="0"/>
        <pt x="1047" y="324" on="0"/>
        <pt x="1047" y="401" on="1"/>
        <pt x="1047" y="1438" on="1"/>
        <pt x="882" y="1455" on="1"/>
        <pt x="882" y="1553" on="1"/>
        <pt x="1405" y="1553" on="1"/>
        <pt x="1405" y="1455" on="1"/>
        <pt x="1242" y="1437" on="1"/>
        <pt x="1242" y="550" on="1"/>
        <pt x="1242" y="479" on="0"/>
        <pt x="1243" y="344" on="0"/>
        <pt x="1241" y="217" on="0"/>
        <pt x="1233" y="101" on="0"/>
        <pt x="1223" y="49" on="1"/>
        <pt x="1203" y="-50" on="0"/>
        <pt x="1103" y="-202" on="0"/>
        <pt x="967" y="-312" on="0"/>
        <pt x="808" y="-378" on="0"/>
        <pt x="729" y="-390" on="1"/>
      </contour>
      <contour>
        <pt x="105" y="85" on="1"/>
        <pt x="284" y="114" on="1"/>
        <pt x="284" y="1438" on="1"/>
        <pt x="109" y="1455" on="1"/>
        <pt x="109" y="1553" on="1"/>
        <pt x="652" y="1553" on="1"/>
        <pt x="652" y="1455" on="1"/>
        <pt x="479" y="1437" on="1"/>
        <pt x="479" y="115" on="1"/>
        <pt x="661" y="85" on="1"/>
        <pt x="661" y="0" on="1"/>
        <pt x="105" y="0" on="1"/>
      </contour>
    </TTGlyph>
    <TTGlyph name="Iacute" xMin="105" yMin="0" xMax="775" yMax="1920">
      <contour>
        <pt x="323" y="1661" on="1"/>
        <pt x="629" y="1920" on="1"/>
        <pt x="775" y="1771" on="1"/>
        <pt x="728" y="1741" on="0"/>
        <pt x="627" y="1688" on="0"/>
        <pt x="524" y="1646" on="0"/>
        <pt x="422" y="1615" on="0"/>
        <pt x="376" y="1607" on="1"/>
      </contour>
      <contour>
        <pt x="105" y="85" on="1"/>
        <pt x="284" y="114" on="1"/>
        <pt x="284" y="1438" on="1"/>
        <pt x="109" y="1455" on="1"/>
        <pt x="109" y="1553" on="1"/>
        <pt x="652" y="1553" on="1"/>
        <pt x="652" y="1455" on="1"/>
        <pt x="479" y="1437" on="1"/>
        <pt x="479" y="115" on="1"/>
        <pt x="661" y="85" on="1"/>
        <pt x="661" y="0" on="1"/>
        <pt x="105" y="0" on="1"/>
      </contour>
    </TTGlyph>
    <TTGlyph name="Icircumflex" xMin="37" yMin="0" xMax="736" yMax="1920">
      <contour>
        <pt x="37" y="1662" on="1"/>
        <pt x="290" y="1920" on="1"/>
        <pt x="479" y="1920" on="1"/>
        <pt x="736" y="1665" on="1"/>
        <pt x="649" y="1616" on="1"/>
        <pt x="385" y="1784" on="1"/>
        <pt x="115" y="1616" on="1"/>
      </contour>
      <contour>
        <pt x="105" y="85" on="1"/>
        <pt x="284" y="114" on="1"/>
        <pt x="284" y="1438" on="1"/>
        <pt x="109" y="1455" on="1"/>
        <pt x="109" y="1553" on="1"/>
        <pt x="652" y="1553" on="1"/>
        <pt x="652" y="1455" on="1"/>
        <pt x="479" y="1437" on="1"/>
        <pt x="479" y="115" on="1"/>
        <pt x="661" y="85" on="1"/>
        <pt x="661" y="0" on="1"/>
        <pt x="105" y="0" on="1"/>
      </contour>
    </TTGlyph>
    <TTGlyph name="Idieresis" xMin="12" yMin="0" xMax="754" yMax="1920">
      <contour>
        <pt x="604" y="1651" on="1"/>
        <pt x="580" y="1651" on="0"/>
        <pt x="534" y="1668" on="0"/>
        <pt x="499" y="1699" on="0"/>
        <pt x="478" y="1745" on="0"/>
        <pt x="478" y="1774" on="1"/>
        <pt x="478" y="1805" on="0"/>
        <pt x="505" y="1859" on="0"/>
        <pt x="547" y="1898" on="0"/>
        <pt x="600" y="1920" on="0"/>
        <pt x="627" y="1920" on="1"/>
        <pt x="693" y="1920" on="0"/>
        <pt x="754" y="1847" on="0"/>
        <pt x="754" y="1796" on="1"/>
        <pt x="754" y="1763" on="0"/>
        <pt x="728" y="1709" on="0"/>
        <pt x="686" y="1672" on="0"/>
        <pt x="632" y="1651" on="0"/>
      </contour>
      <contour>
        <pt x="138" y="1651" on="1"/>
        <pt x="114" y="1651" on="0"/>
        <pt x="68" y="1668" on="0"/>
        <pt x="33" y="1699" on="0"/>
        <pt x="12" y="1745" on="0"/>
        <pt x="12" y="1774" on="1"/>
        <pt x="12" y="1805" on="0"/>
        <pt x="39" y="1859" on="0"/>
        <pt x="81" y="1898" on="0"/>
        <pt x="134" y="1920" on="0"/>
        <pt x="161" y="1920" on="1"/>
        <pt x="227" y="1920" on="0"/>
        <pt x="288" y="1847" on="0"/>
        <pt x="288" y="1796" on="1"/>
        <pt x="288" y="1763" on="0"/>
        <pt x="262" y="1709" on="0"/>
        <pt x="220" y="1672" on="0"/>
        <pt x="166" y="1651" on="0"/>
      </contour>
      <contour>
        <pt x="105" y="85" on="1"/>
        <pt x="284" y="114" on="1"/>
        <pt x="284" y="1438" on="1"/>
        <pt x="109" y="1455" on="1"/>
        <pt x="109" y="1553" on="1"/>
        <pt x="652" y="1553" on="1"/>
        <pt x="652" y="1455" on="1"/>
        <pt x="479" y="1437" on="1"/>
        <pt x="479" y="115" on="1"/>
        <pt x="661" y="85" on="1"/>
        <pt x="661" y="0" on="1"/>
        <pt x="105" y="0" on="1"/>
      </contour>
    </TTGlyph>
    <TTGlyph name="Igrave" xMin="-3" yMin="0" xMax="661" yMax="1920">
      <contour>
        <pt x="396" y="1607" on="1"/>
        <pt x="349" y="1615" on="0"/>
        <pt x="248" y="1646" on="0"/>
        <pt x="145" y="1688" on="0"/>
        <pt x="44" y="1741" on="0"/>
        <pt x="-3" y="1771" on="1"/>
        <pt x="143" y="1920" on="1"/>
        <pt x="449" y="1661" on="1"/>
      </contour>
      <contour>
        <pt x="105" y="85" on="1"/>
        <pt x="284" y="114" on="1"/>
        <pt x="284" y="1438" on="1"/>
        <pt x="109" y="1455" on="1"/>
        <pt x="109" y="1553" on="1"/>
        <pt x="652" y="1553" on="1"/>
        <pt x="652" y="1455" on="1"/>
        <pt x="479" y="1437" on="1"/>
        <pt x="479" y="115" on="1"/>
        <pt x="661" y="85" on="1"/>
        <pt x="661" y="0" on="1"/>
        <pt x="105" y="0" on="1"/>
      </contour>
    </TTGlyph>
    <TTGlyph name="Itilde" xMin="-13" yMin="0" xMax="761" yMax="1920">
      <contour>
        <pt x="-13" y="1750" on="1"/>
        <pt x="6" y="1785" on="0"/>
        <pt x="67" y="1847" on="0"/>
        <pt x="142" y="1893" on="0"/>
        <pt x="225" y="1920" on="0"/>
        <pt x="264" y="1920" on="1"/>
        <pt x="313" y="1920" on="0"/>
        <pt x="379" y="1881" on="0"/>
        <pt x="434" y="1833" on="0"/>
        <pt x="488" y="1794" on="0"/>
        <pt x="524" y="1794" on="1"/>
        <pt x="582" y="1794" on="0"/>
        <pt x="677" y="1843" on="0"/>
        <pt x="709" y="1875" on="1"/>
        <pt x="761" y="1802" on="1"/>
        <pt x="742" y="1767" on="0"/>
        <pt x="681" y="1705" on="0"/>
        <pt x="606" y="1658" on="0"/>
        <pt x="523" y="1631" on="0"/>
        <pt x="484" y="1631" on="1"/>
        <pt x="451" y="1631" on="0"/>
        <pt x="401" y="1650" on="0"/>
        <pt x="359" y="1679" on="0"/>
        <pt x="324" y="1713" on="0"/>
        <pt x="288" y="1742" on="0"/>
        <pt x="248" y="1761" on="0"/>
        <pt x="224" y="1761" on="1"/>
        <pt x="198" y="1761" on="0"/>
        <pt x="145" y="1746" on="0"/>
        <pt x="96" y="1722" on="0"/>
        <pt x="54" y="1692" on="0"/>
        <pt x="39" y="1677" on="1"/>
      </contour>
      <contour>
        <pt x="105" y="85" on="1"/>
        <pt x="284" y="114" on="1"/>
        <pt x="284" y="1438" on="1"/>
        <pt x="109" y="1455" on="1"/>
        <pt x="109" y="1553" on="1"/>
        <pt x="652" y="1553" on="1"/>
        <pt x="652" y="1455" on="1"/>
        <pt x="479" y="1437" on="1"/>
        <pt x="479" y="115" on="1"/>
        <pt x="661" y="85" on="1"/>
        <pt x="661" y="0" on="1"/>
        <pt x="105" y="0" on="1"/>
      </contour>
    </TTGlyph>
    <TTGlyph name="J" xMin="-86" yMin="-390" xMax="642" yMax="1553">
      <contour>
        <pt x="238" y="-59" on="1"/>
        <pt x="253" y="-15" on="0"/>
        <pt x="271" y="82" on="0"/>
        <pt x="281" y="195" on="0"/>
        <pt x="284" y="324" on="0"/>
        <pt x="284" y="401" on="1"/>
        <pt x="284" y="1438" on="1"/>
        <pt x="119" y="1455" on="1"/>
        <pt x="119" y="1553" on="1"/>
        <pt x="642" y="1553" on="1"/>
        <pt x="642" y="1455" on="1"/>
        <pt x="479" y="1437" on="1"/>
        <pt x="479" y="550" on="1"/>
        <pt x="479" y="479" on="0"/>
        <pt x="480" y="344" on="0"/>
        <pt x="478" y="217" on="0"/>
        <pt x="470" y="101" on="0"/>
        <pt x="460" y="49" on="1"/>
        <pt x="440" y="-50" on="0"/>
        <pt x="340" y="-202" on="0"/>
        <pt x="204" y="-312" on="0"/>
        <pt x="45" y="-378" on="0"/>
        <pt x="-34" y="-390" on="1"/>
        <pt x="-86" y="-319" on="1"/>
        <pt x="-30" y="-301" on="0"/>
        <pt x="71" y="-251" on="0"/>
        <pt x="155" y="-187" on="0"/>
        <pt x="219" y="-107" on="0"/>
      </contour>
    </TTGlyph>
    <TTGlyph name="Jcircumflex" xMin="-86" yMin="-390" xMax="734" yMax="1920">
      <contour>
        <pt x="35" y="1662" on="1"/>
        <pt x="288" y="1920" on="1"/>
        <pt x="477" y="1920" on="1"/>
        <pt x="734" y="1665" on="1"/>
        <pt x="647" y="1616" on="1"/>
        <pt x="383" y="1784" on="1"/>
        <pt x="113" y="1616" on="1"/>
      </contour>
      <contour>
        <pt x="238" y="-59" on="1"/>
        <pt x="253" y="-15" on="0"/>
        <pt x="271" y="82" on="0"/>
        <pt x="281" y="195" on="0"/>
        <pt x="284" y="324" on="0"/>
        <pt x="284" y="401" on="1"/>
        <pt x="284" y="1438" on="1"/>
        <pt x="119" y="1455" on="1"/>
        <pt x="119" y="1553" on="1"/>
        <pt x="642" y="1553" on="1"/>
        <pt x="642" y="1455" on="1"/>
        <pt x="479" y="1437" on="1"/>
        <pt x="479" y="550" on="1"/>
        <pt x="479" y="479" on="0"/>
        <pt x="480" y="344" on="0"/>
        <pt x="478" y="217" on="0"/>
        <pt x="470" y="101" on="0"/>
        <pt x="460" y="49" on="1"/>
        <pt x="440" y="-50" on="0"/>
        <pt x="340" y="-202" on="0"/>
        <pt x="204" y="-312" on="0"/>
        <pt x="45" y="-378" on="0"/>
        <pt x="-34" y="-390" on="1"/>
        <pt x="-86" y="-319" on="1"/>
        <pt x="-30" y="-301" on="0"/>
        <pt x="71" y="-251" on="0"/>
        <pt x="155" y="-187" on="0"/>
        <pt x="219" y="-107" on="0"/>
      </contour>
    </TTGlyph>
    <TTGlyph name="K" xMin="106" yMin="0" xMax="1443" yMax="1553">
      <contour>
        <pt x="106" y="85" on="1"/>
        <pt x="275" y="114" on="1"/>
        <pt x="275" y="1438" on="1"/>
        <pt x="110" y="1455" on="1"/>
        <pt x="110" y="1553" on="1"/>
        <pt x="633" y="1553" on="1"/>
        <pt x="633" y="1455" on="1"/>
        <pt x="470" y="1437" on="1"/>
        <pt x="470" y="748" on="1"/>
        <pt x="1039" y="1437" on="1"/>
        <pt x="884" y="1455" on="1"/>
        <pt x="884" y="1480" on="0"/>
        <pt x="883" y="1528" on="0"/>
        <pt x="883" y="1553" on="1"/>
        <pt x="1382" y="1553" on="1"/>
        <pt x="1382" y="1455" on="1"/>
        <pt x="1219" y="1437" on="1"/>
        <pt x="750" y="897" on="1"/>
        <pt x="775" y="869" on="0"/>
        <pt x="841" y="772" on="0"/>
        <pt x="917" y="653" on="0"/>
        <pt x="1000" y="519" on="0"/>
        <pt x="1082" y="387" on="0"/>
        <pt x="1158" y="267" on="0"/>
        <pt x="1222" y="176" on="0"/>
        <pt x="1271" y="122" on="0"/>
        <pt x="1283" y="122" on="1"/>
        <pt x="1443" y="85" on="1"/>
        <pt x="1443" y="0" on="1"/>
        <pt x="1134" y="0" on="1"/>
        <pt x="1121" y="0" on="0"/>
        <pt x="1076" y="54" on="0"/>
        <pt x="1018" y="145" on="0"/>
        <pt x="949" y="264" on="0"/>
        <pt x="876" y="394" on="0"/>
        <pt x="801" y="526" on="0"/>
        <pt x="729" y="644" on="0"/>
        <pt x="663" y="739" on="0"/>
        <pt x="636" y="766" on="1"/>
        <pt x="470" y="574" on="1"/>
        <pt x="470" y="113" on="1"/>
        <pt x="653" y="85" on="1"/>
        <pt x="653" y="0" on="1"/>
        <pt x="106" y="0" on="1"/>
      </contour>
    </TTGlyph>
    <TTGlyph name="Kcommaaccent" xMin="106" yMin="-640" xMax="1443" yMax="1553">
      <contour>
        <pt x="106" y="85" on="1"/>
        <pt x="275" y="114" on="1"/>
        <pt x="275" y="1438" on="1"/>
        <pt x="110" y="1455" on="1"/>
        <pt x="110" y="1553" on="1"/>
        <pt x="633" y="1553" on="1"/>
        <pt x="633" y="1455" on="1"/>
        <pt x="470" y="1437" on="1"/>
        <pt x="470" y="748" on="1"/>
        <pt x="1039" y="1437" on="1"/>
        <pt x="884" y="1455" on="1"/>
        <pt x="884" y="1480" on="0"/>
        <pt x="883" y="1528" on="0"/>
        <pt x="883" y="1553" on="1"/>
        <pt x="1382" y="1553" on="1"/>
        <pt x="1382" y="1455" on="1"/>
        <pt x="1219" y="1437" on="1"/>
        <pt x="750" y="897" on="1"/>
        <pt x="775" y="869" on="0"/>
        <pt x="841" y="772" on="0"/>
        <pt x="917" y="653" on="0"/>
        <pt x="1000" y="519" on="0"/>
        <pt x="1082" y="387" on="0"/>
        <pt x="1158" y="267" on="0"/>
        <pt x="1222" y="176" on="0"/>
        <pt x="1271" y="122" on="0"/>
        <pt x="1283" y="122" on="1"/>
        <pt x="1443" y="85" on="1"/>
        <pt x="1443" y="0" on="1"/>
        <pt x="1134" y="0" on="1"/>
        <pt x="1121" y="0" on="0"/>
        <pt x="1076" y="54" on="0"/>
        <pt x="1018" y="145" on="0"/>
        <pt x="949" y="264" on="0"/>
        <pt x="876" y="394" on="0"/>
        <pt x="801" y="526" on="0"/>
        <pt x="729" y="644" on="0"/>
        <pt x="663" y="739" on="0"/>
        <pt x="636" y="766" on="1"/>
        <pt x="470" y="574" on="1"/>
        <pt x="470" y="113" on="1"/>
        <pt x="653" y="85" on="1"/>
        <pt x="653" y="0" on="1"/>
        <pt x="106" y="0" on="1"/>
      </contour>
      <contour>
        <pt x="816" y="-41" on="1"/>
        <pt x="868" y="-55" on="0"/>
        <pt x="945" y="-110" on="0"/>
        <pt x="996" y="-180" on="0"/>
        <pt x="1021" y="-258" on="0"/>
        <pt x="1021" y="-295" on="1"/>
        <pt x="1021" y="-363" on="0"/>
        <pt x="968" y="-481" on="0"/>
        <pt x="891" y="-572" on="0"/>
        <pt x="804" y="-631" on="0"/>
        <pt x="771" y="-640" on="1"/>
        <pt x="715" y="-590" on="1"/>
        <pt x="715" y="-564" on="1"/>
        <pt x="743" y="-551" on="0"/>
        <pt x="782" y="-501" on="0"/>
        <pt x="806" y="-438" on="0"/>
        <pt x="816" y="-368" on="0"/>
        <pt x="816" y="-335" on="1"/>
        <pt x="816" y="-307" on="0"/>
        <pt x="794" y="-257" on="0"/>
        <pt x="763" y="-220" on="0"/>
        <pt x="727" y="-199" on="0"/>
        <pt x="714" y="-199" on="1"/>
        <pt x="714" y="-145" on="1"/>
      </contour>
    </TTGlyph>
    <TTGlyph name="L" xMin="106" yMin="0" xMax="1214" yMax="1553">
      <contour>
        <pt x="106" y="85" on="1"/>
        <pt x="275" y="115" on="1"/>
        <pt x="275" y="1427" on="1"/>
        <pt x="110" y="1444" on="1"/>
        <pt x="110" y="1553" on="1"/>
        <pt x="648" y="1553" on="1"/>
        <pt x="648" y="1444" on="1"/>
        <pt x="471" y="1427" on="1"/>
        <pt x="469" y="112" on="1"/>
        <pt x="1004" y="136" on="1"/>
        <pt x="1127" y="374" on="1"/>
        <pt x="1214" y="331" on="1"/>
        <pt x="1149" y="0" on="1"/>
        <pt x="106" y="0" on="1"/>
      </contour>
    </TTGlyph>
    <TTGlyph name="Ldotaccent" xMin="106" yMin="0" xMax="1344" yMax="1553">
      <contour>
        <pt x="106" y="85" on="1"/>
        <pt x="275" y="115" on="1"/>
        <pt x="275" y="1427" on="1"/>
        <pt x="110" y="1444" on="1"/>
        <pt x="110" y="1553" on="1"/>
        <pt x="648" y="1553" on="1"/>
        <pt x="648" y="1444" on="1"/>
        <pt x="471" y="1427" on="1"/>
        <pt x="469" y="112" on="1"/>
        <pt x="1004" y="136" on="1"/>
        <pt x="1127" y="374" on="1"/>
        <pt x="1214" y="331" on="1"/>
        <pt x="1149" y="0" on="1"/>
        <pt x="106" y="0" on="1"/>
      </contour>
      <contour>
        <pt x="1068" y="835" on="1"/>
        <pt x="1068" y="866" on="0"/>
        <pt x="1095" y="920" on="0"/>
        <pt x="1137" y="959" on="0"/>
        <pt x="1190" y="981" on="0"/>
        <pt x="1217" y="981" on="1"/>
        <pt x="1283" y="981" on="0"/>
        <pt x="1344" y="908" on="0"/>
        <pt x="1344" y="857" on="1"/>
        <pt x="1344" y="824" on="0"/>
        <pt x="1318" y="770" on="0"/>
        <pt x="1276" y="733" on="0"/>
        <pt x="1222" y="712" on="0"/>
        <pt x="1194" y="712" on="1"/>
        <pt x="1170" y="712" on="0"/>
        <pt x="1124" y="729" on="0"/>
        <pt x="1089" y="760" on="0"/>
        <pt x="1068" y="806" on="0"/>
      </contour>
    </TTGlyph>
    <TTGlyph name="Lslash" xMin="96" yMin="0" xMax="1214" yMax="1553">
      <contour>
        <pt x="106" y="85" on="1"/>
        <pt x="275" y="115" on="1"/>
        <pt x="275" y="563" on="1"/>
        <pt x="96" y="495" on="1"/>
        <pt x="97" y="535" on="0"/>
        <pt x="97" y="567" on="1"/>
        <pt x="97" y="640" on="1"/>
        <pt x="97" y="640" on="0"/>
        <pt x="123" y="651" on="0"/>
        <pt x="170" y="670" on="0"/>
        <pt x="236" y="696" on="0"/>
        <pt x="275" y="712" on="1"/>
        <pt x="275" y="1427" on="1"/>
        <pt x="110" y="1444" on="1"/>
        <pt x="110" y="1553" on="1"/>
        <pt x="648" y="1553" on="1"/>
        <pt x="648" y="1444" on="1"/>
        <pt x="471" y="1427" on="1"/>
        <pt x="470" y="789" on="1"/>
        <pt x="566" y="827" on="0"/>
        <pt x="759" y="904" on="0"/>
        <pt x="838" y="935" on="1"/>
        <pt x="930" y="971" on="0"/>
        <pt x="1015" y="1005" on="1"/>
        <pt x="1015" y="845" on="1"/>
        <pt x="470" y="637" on="1"/>
        <pt x="469" y="112" on="1"/>
        <pt x="1004" y="136" on="1"/>
        <pt x="1127" y="374" on="1"/>
        <pt x="1214" y="331" on="1"/>
        <pt x="1149" y="0" on="1"/>
        <pt x="106" y="0" on="1"/>
      </contour>
    </TTGlyph>
    <TTGlyph name="M" xMin="77" yMin="-15" xMax="1934" yMax="1553">
      <contour>
        <pt x="77" y="85" on="1"/>
        <pt x="249" y="114" on="1"/>
        <pt x="349" y="1427" on="1"/>
        <pt x="154" y="1444" on="1"/>
        <pt x="154" y="1553" on="1"/>
        <pt x="615" y="1553" on="1"/>
        <pt x="975" y="463" on="1"/>
        <pt x="1021" y="316" on="1"/>
        <pt x="1067" y="467" on="1"/>
        <pt x="1411" y="1553" on="1"/>
        <pt x="1836" y="1553" on="1"/>
        <pt x="1836" y="1444" on="1"/>
        <pt x="1649" y="1427" on="1"/>
        <pt x="1762" y="115" on="1"/>
        <pt x="1934" y="85" on="1"/>
        <pt x="1934" y="0" on="1"/>
        <pt x="1414" y="0" on="1"/>
        <pt x="1414" y="85" on="1"/>
        <pt x="1578" y="114" on="1"/>
        <pt x="1496" y="1050" on="1"/>
        <pt x="1486" y="1396" on="1"/>
        <pt x="1445" y="1233" on="1"/>
        <pt x="1024" y="-15" on="1"/>
        <pt x="957" y="-15" on="1"/>
        <pt x="573" y="1079" on="1"/>
        <pt x="544" y="1160" on="0"/>
        <pt x="490" y="1324" on="0"/>
        <pt x="462" y="1406" on="1"/>
        <pt x="454" y="1064" on="1"/>
        <pt x="405" y="115" on="1"/>
        <pt x="595" y="85" on="1"/>
        <pt x="595" y="0" on="1"/>
        <pt x="77" y="0" on="1"/>
      </contour>
    </TTGlyph>
    <TTGlyph name="N" xMin="104" yMin="0" xMax="1585" yMax="1553">
      <contour>
        <pt x="104" y="85" on="1"/>
        <pt x="275" y="115" on="1"/>
        <pt x="275" y="1427" on="1"/>
        <pt x="110" y="1444" on="1"/>
        <pt x="110" y="1553" on="1"/>
        <pt x="465" y="1553" on="1"/>
        <pt x="1134" y="458" on="1"/>
        <pt x="1276" y="184" on="1"/>
        <pt x="1276" y="1428" on="1"/>
        <pt x="1112" y="1445" on="1"/>
        <pt x="1112" y="1553" on="1"/>
        <pt x="1585" y="1553" on="1"/>
        <pt x="1585" y="1445" on="1"/>
        <pt x="1419" y="1428" on="1"/>
        <pt x="1419" y="0" on="1"/>
        <pt x="1214" y="0" on="1"/>
        <pt x="554" y="1040" on="1"/>
        <pt x="418" y="1318" on="1"/>
        <pt x="418" y="115" on="1"/>
        <pt x="612" y="85" on="1"/>
        <pt x="612" y="0" on="1"/>
        <pt x="104" y="0" on="1"/>
      </contour>
    </TTGlyph>
    <TTGlyph name="Nacute" xMin="104" yMin="0" xMax="1585" yMax="1920">
      <contour>
        <pt x="769" y="1661" on="1"/>
        <pt x="1075" y="1920" on="1"/>
        <pt x="1221" y="1771" on="1"/>
        <pt x="1174" y="1741" on="0"/>
        <pt x="1073" y="1688" on="0"/>
        <pt x="970" y="1646" on="0"/>
        <pt x="868" y="1615" on="0"/>
        <pt x="822" y="1607" on="1"/>
      </contour>
      <contour>
        <pt x="104" y="85" on="1"/>
        <pt x="275" y="115" on="1"/>
        <pt x="275" y="1427" on="1"/>
        <pt x="110" y="1444" on="1"/>
        <pt x="110" y="1553" on="1"/>
        <pt x="465" y="1553" on="1"/>
        <pt x="1134" y="458" on="1"/>
        <pt x="1276" y="184" on="1"/>
        <pt x="1276" y="1428" on="1"/>
        <pt x="1112" y="1445" on="1"/>
        <pt x="1112" y="1553" on="1"/>
        <pt x="1585" y="1553" on="1"/>
        <pt x="1585" y="1445" on="1"/>
        <pt x="1419" y="1428" on="1"/>
        <pt x="1419" y="0" on="1"/>
        <pt x="1214" y="0" on="1"/>
        <pt x="554" y="1040" on="1"/>
        <pt x="418" y="1318" on="1"/>
        <pt x="418" y="115" on="1"/>
        <pt x="612" y="85" on="1"/>
        <pt x="612" y="0" on="1"/>
        <pt x="104" y="0" on="1"/>
      </contour>
    </TTGlyph>
    <TTGlyph name="Ntilde" xMin="104" yMin="0" xMax="1585" yMax="1920">
      <contour>
        <pt x="433" y="1750" on="1"/>
        <pt x="452" y="1785" on="0"/>
        <pt x="513" y="1847" on="0"/>
        <pt x="588" y="1893" on="0"/>
        <pt x="671" y="1920" on="0"/>
        <pt x="710" y="1920" on="1"/>
        <pt x="759" y="1920" on="0"/>
        <pt x="825" y="1881" on="0"/>
        <pt x="880" y="1833" on="0"/>
        <pt x="934" y="1794" on="0"/>
        <pt x="970" y="1794" on="1"/>
        <pt x="1028" y="1794" on="0"/>
        <pt x="1123" y="1843" on="0"/>
        <pt x="1155" y="1875" on="1"/>
        <pt x="1207" y="1802" on="1"/>
        <pt x="1188" y="1767" on="0"/>
        <pt x="1127" y="1705" on="0"/>
        <pt x="1052" y="1658" on="0"/>
        <pt x="969" y="1631" on="0"/>
        <pt x="930" y="1631" on="1"/>
        <pt x="897" y="1631" on="0"/>
        <pt x="847" y="1650" on="0"/>
        <pt x="805" y="1679" on="0"/>
        <pt x="770" y="1713" on="0"/>
        <pt x="734" y="1742" on="0"/>
        <pt x="694" y="1761" on="0"/>
        <pt x="670" y="1761" on="1"/>
        <pt x="644" y="1761" on="0"/>
        <pt x="591" y="1746" on="0"/>
        <pt x="542" y="1722" on="0"/>
        <pt x="500" y="1692" on="0"/>
        <pt x="485" y="1677" on="1"/>
      </contour>
      <contour>
        <pt x="104" y="85" on="1"/>
        <pt x="275" y="115" on="1"/>
        <pt x="275" y="1427" on="1"/>
        <pt x="110" y="1444" on="1"/>
        <pt x="110" y="1553" on="1"/>
        <pt x="465" y="1553" on="1"/>
        <pt x="1134" y="458" on="1"/>
        <pt x="1276" y="184" on="1"/>
        <pt x="1276" y="1428" on="1"/>
        <pt x="1112" y="1445" on="1"/>
        <pt x="1112" y="1553" on="1"/>
        <pt x="1585" y="1553" on="1"/>
        <pt x="1585" y="1445" on="1"/>
        <pt x="1419" y="1428" on="1"/>
        <pt x="1419" y="0" on="1"/>
        <pt x="1214" y="0" on="1"/>
        <pt x="554" y="1040" on="1"/>
        <pt x="418" y="1318" on="1"/>
        <pt x="418" y="115" on="1"/>
        <pt x="612" y="85" on="1"/>
        <pt x="612" y="0" on="1"/>
        <pt x="104" y="0" on="1"/>
      </contour>
    </TTGlyph>
    <TTGlyph name="O" xMin="87" yMin="-28" xMax="1467" yMax="1567">
      <contour>
        <pt x="87" y="752" on="1"/>
        <pt x="91" y="943" on="0"/>
        <pt x="206" y="1243" on="0"/>
        <pt x="400" y="1451" on="0"/>
        <pt x="656" y="1563" on="0"/>
        <pt x="801" y="1567" on="1"/>
        <pt x="957" y="1571" on="0"/>
        <pt x="1207" y="1456" on="0"/>
        <pt x="1380" y="1247" on="0"/>
        <pt x="1470" y="958" on="0"/>
        <pt x="1467" y="788" on="1"/>
        <pt x="1463" y="597" on="0"/>
        <pt x="1352" y="296" on="0"/>
        <pt x="1164" y="87" on="0"/>
        <pt x="913" y="-25" on="0"/>
        <pt x="771" y="-28" on="1"/>
        <pt x="613" y="-31" on="0"/>
        <pt x="357" y="84" on="0"/>
        <pt x="178" y="294" on="0"/>
        <pt x="84" y="582" on="0"/>
      </contour>
      <contour>
        <pt x="788" y="77" on="1"/>
        <pt x="898" y="77" on="0"/>
        <pt x="1070" y="174" on="0"/>
        <pt x="1189" y="357" on="0"/>
        <pt x="1251" y="620" on="0"/>
        <pt x="1251" y="787" on="1"/>
        <pt x="1251" y="874" on="0"/>
        <pt x="1224" y="1042" on="0"/>
        <pt x="1171" y="1191" on="0"/>
        <pt x="1093" y="1318" on="0"/>
        <pt x="989" y="1409" on="0"/>
        <pt x="860" y="1461" on="0"/>
        <pt x="784" y="1461" on="1"/>
        <pt x="674" y="1461" on="0"/>
        <pt x="496" y="1365" on="0"/>
        <pt x="371" y="1183" on="0"/>
        <pt x="303" y="920" on="0"/>
        <pt x="303" y="753" on="1"/>
        <pt x="303" y="622" on="0"/>
        <pt x="368" y="379" on="0"/>
        <pt x="492" y="190" on="0"/>
        <pt x="672" y="77" on="0"/>
      </contour>
    </TTGlyph>
    <TTGlyph name="OE" xMin="87" yMin="-28" xMax="2006" yMax="1567">
      <contour>
        <pt x="87" y="752" on="1"/>
        <pt x="91" y="943" on="0"/>
        <pt x="206" y="1243" on="0"/>
        <pt x="400" y="1451" on="0"/>
        <pt x="656" y="1563" on="0"/>
        <pt x="801" y="1567" on="1"/>
        <pt x="882" y="1568" on="0"/>
        <pt x="958" y="1553" on="1"/>
        <pt x="1904" y="1553" on="1"/>
        <pt x="1933" y="1267" on="1"/>
        <pt x="1823" y="1267" on="1"/>
        <pt x="1777" y="1435" on="1"/>
        <pt x="1249" y="1448" on="1"/>
        <pt x="1249" y="867" on="1"/>
        <pt x="1617" y="874" on="1"/>
        <pt x="1647" y="1031" on="1"/>
        <pt x="1749" y="1031" on="1"/>
        <pt x="1749" y="601" on="1"/>
        <pt x="1647" y="601" on="1"/>
        <pt x="1617" y="754" on="1"/>
        <pt x="1249" y="760" on="1"/>
        <pt x="1249" y="108" on="1"/>
        <pt x="1809" y="127" on="1"/>
        <pt x="1909" y="334" on="1"/>
        <pt x="2006" y="310" on="1"/>
        <pt x="1961" y="0" on="1"/>
        <pt x="954" y="0" on="1"/>
        <pt x="910" y="-13" on="0"/>
        <pt x="819" y="-26" on="0"/>
        <pt x="771" y="-28" on="1"/>
        <pt x="613" y="-31" on="0"/>
        <pt x="357" y="84" on="0"/>
        <pt x="178" y="294" on="0"/>
        <pt x="84" y="582" on="0"/>
      </contour>
      <contour>
        <pt x="788" y="77" on="1"/>
        <pt x="868" y="77" on="0"/>
        <pt x="1001" y="128" on="0"/>
        <pt x="1055" y="177" on="1"/>
        <pt x="1055" y="1350" on="1"/>
        <pt x="1001" y="1402" on="0"/>
        <pt x="866" y="1461" on="0"/>
        <pt x="784" y="1461" on="1"/>
        <pt x="674" y="1461" on="0"/>
        <pt x="496" y="1365" on="0"/>
        <pt x="371" y="1183" on="0"/>
        <pt x="303" y="920" on="0"/>
        <pt x="303" y="753" on="1"/>
        <pt x="303" y="622" on="0"/>
        <pt x="368" y="379" on="0"/>
        <pt x="492" y="190" on="0"/>
        <pt x="672" y="77" on="0"/>
      </contour>
    </TTGlyph>
    <TTGlyph name="Oacute" xMin="87" yMin="-28" xMax="1467" yMax="1920">
      <contour>
        <pt x="725" y="1661" on="1"/>
        <pt x="1031" y="1920" on="1"/>
        <pt x="1177" y="1771" on="1"/>
        <pt x="1130" y="1741" on="0"/>
        <pt x="1029" y="1688" on="0"/>
        <pt x="926" y="1646" on="0"/>
        <pt x="824" y="1615" on="0"/>
        <pt x="778" y="1607" on="1"/>
      </contour>
      <contour>
        <pt x="87" y="752" on="1"/>
        <pt x="91" y="943" on="0"/>
        <pt x="206" y="1243" on="0"/>
        <pt x="400" y="1451" on="0"/>
        <pt x="656" y="1563" on="0"/>
        <pt x="801" y="1567" on="1"/>
        <pt x="957" y="1571" on="0"/>
        <pt x="1207" y="1456" on="0"/>
        <pt x="1380" y="1247" on="0"/>
        <pt x="1470" y="958" on="0"/>
        <pt x="1467" y="788" on="1"/>
        <pt x="1463" y="597" on="0"/>
        <pt x="1352" y="296" on="0"/>
        <pt x="1164" y="87" on="0"/>
        <pt x="913" y="-25" on="0"/>
        <pt x="771" y="-28" on="1"/>
        <pt x="613" y="-31" on="0"/>
        <pt x="357" y="84" on="0"/>
        <pt x="178" y="294" on="0"/>
        <pt x="84" y="582" on="0"/>
      </contour>
      <contour>
        <pt x="788" y="77" on="1"/>
        <pt x="898" y="77" on="0"/>
        <pt x="1070" y="174" on="0"/>
        <pt x="1189" y="357" on="0"/>
        <pt x="1251" y="620" on="0"/>
        <pt x="1251" y="787" on="1"/>
        <pt x="1251" y="874" on="0"/>
        <pt x="1224" y="1042" on="0"/>
        <pt x="1171" y="1191" on="0"/>
        <pt x="1093" y="1318" on="0"/>
        <pt x="989" y="1409" on="0"/>
        <pt x="860" y="1461" on="0"/>
        <pt x="784" y="1461" on="1"/>
        <pt x="674" y="1461" on="0"/>
        <pt x="496" y="1365" on="0"/>
        <pt x="371" y="1183" on="0"/>
        <pt x="303" y="920" on="0"/>
        <pt x="303" y="753" on="1"/>
        <pt x="303" y="622" on="0"/>
        <pt x="368" y="379" on="0"/>
        <pt x="492" y="190" on="0"/>
        <pt x="672" y="77" on="0"/>
      </contour>
    </TTGlyph>
    <TTGlyph name="Ocircumflex" xMin="87" yMin="-28" xMax="1467" yMax="1920">
      <contour>
        <pt x="439" y="1662" on="1"/>
        <pt x="692" y="1920" on="1"/>
        <pt x="881" y="1920" on="1"/>
        <pt x="1138" y="1665" on="1"/>
        <pt x="1051" y="1616" on="1"/>
        <pt x="787" y="1784" on="1"/>
        <pt x="517" y="1616" on="1"/>
      </contour>
      <contour>
        <pt x="87" y="752" on="1"/>
        <pt x="91" y="943" on="0"/>
        <pt x="206" y="1243" on="0"/>
        <pt x="400" y="1451" on="0"/>
        <pt x="656" y="1563" on="0"/>
        <pt x="801" y="1567" on="1"/>
        <pt x="957" y="1571" on="0"/>
        <pt x="1207" y="1456" on="0"/>
        <pt x="1380" y="1247" on="0"/>
        <pt x="1470" y="958" on="0"/>
        <pt x="1467" y="788" on="1"/>
        <pt x="1463" y="597" on="0"/>
        <pt x="1352" y="296" on="0"/>
        <pt x="1164" y="87" on="0"/>
        <pt x="913" y="-25" on="0"/>
        <pt x="771" y="-28" on="1"/>
        <pt x="613" y="-31" on="0"/>
        <pt x="357" y="84" on="0"/>
        <pt x="178" y="294" on="0"/>
        <pt x="84" y="582" on="0"/>
      </contour>
      <contour>
        <pt x="788" y="77" on="1"/>
        <pt x="898" y="77" on="0"/>
        <pt x="1070" y="174" on="0"/>
        <pt x="1189" y="357" on="0"/>
        <pt x="1251" y="620" on="0"/>
        <pt x="1251" y="787" on="1"/>
        <pt x="1251" y="874" on="0"/>
        <pt x="1224" y="1042" on="0"/>
        <pt x="1171" y="1191" on="0"/>
        <pt x="1093" y="1318" on="0"/>
        <pt x="989" y="1409" on="0"/>
        <pt x="860" y="1461" on="0"/>
        <pt x="784" y="1461" on="1"/>
        <pt x="674" y="1461" on="0"/>
        <pt x="496" y="1365" on="0"/>
        <pt x="371" y="1183" on="0"/>
        <pt x="303" y="920" on="0"/>
        <pt x="303" y="753" on="1"/>
        <pt x="303" y="622" on="0"/>
        <pt x="368" y="379" on="0"/>
        <pt x="492" y="190" on="0"/>
        <pt x="672" y="77" on="0"/>
      </contour>
    </TTGlyph>
    <TTGlyph name="Odieresis" xMin="87" yMin="-28" xMax="1467" yMax="1920">
      <contour>
        <pt x="1006" y="1651" on="1"/>
        <pt x="982" y="1651" on="0"/>
        <pt x="936" y="1668" on="0"/>
        <pt x="901" y="1699" on="0"/>
        <pt x="880" y="1745" on="0"/>
        <pt x="880" y="1774" on="1"/>
        <pt x="880" y="1805" on="0"/>
        <pt x="907" y="1859" on="0"/>
        <pt x="949" y="1898" on="0"/>
        <pt x="1002" y="1920" on="0"/>
        <pt x="1029" y="1920" on="1"/>
        <pt x="1095" y="1920" on="0"/>
        <pt x="1156" y="1847" on="0"/>
        <pt x="1156" y="1796" on="1"/>
        <pt x="1156" y="1763" on="0"/>
        <pt x="1130" y="1709" on="0"/>
        <pt x="1088" y="1672" on="0"/>
        <pt x="1034" y="1651" on="0"/>
      </contour>
      <contour>
        <pt x="540" y="1651" on="1"/>
        <pt x="516" y="1651" on="0"/>
        <pt x="470" y="1668" on="0"/>
        <pt x="435" y="1699" on="0"/>
        <pt x="414" y="1745" on="0"/>
        <pt x="414" y="1774" on="1"/>
        <pt x="414" y="1805" on="0"/>
        <pt x="441" y="1859" on="0"/>
        <pt x="483" y="1898" on="0"/>
        <pt x="536" y="1920" on="0"/>
        <pt x="563" y="1920" on="1"/>
        <pt x="629" y="1920" on="0"/>
        <pt x="690" y="1847" on="0"/>
        <pt x="690" y="1796" on="1"/>
        <pt x="690" y="1763" on="0"/>
        <pt x="664" y="1709" on="0"/>
        <pt x="622" y="1672" on="0"/>
        <pt x="568" y="1651" on="0"/>
      </contour>
      <contour>
        <pt x="87" y="752" on="1"/>
        <pt x="91" y="943" on="0"/>
        <pt x="206" y="1243" on="0"/>
        <pt x="400" y="1451" on="0"/>
        <pt x="656" y="1563" on="0"/>
        <pt x="801" y="1567" on="1"/>
        <pt x="957" y="1571" on="0"/>
        <pt x="1207" y="1456" on="0"/>
        <pt x="1380" y="1247" on="0"/>
        <pt x="1470" y="958" on="0"/>
        <pt x="1467" y="788" on="1"/>
        <pt x="1463" y="597" on="0"/>
        <pt x="1352" y="296" on="0"/>
        <pt x="1164" y="87" on="0"/>
        <pt x="913" y="-25" on="0"/>
        <pt x="771" y="-28" on="1"/>
        <pt x="613" y="-31" on="0"/>
        <pt x="357" y="84" on="0"/>
        <pt x="178" y="294" on="0"/>
        <pt x="84" y="582" on="0"/>
      </contour>
      <contour>
        <pt x="788" y="77" on="1"/>
        <pt x="898" y="77" on="0"/>
        <pt x="1070" y="174" on="0"/>
        <pt x="1189" y="357" on="0"/>
        <pt x="1251" y="620" on="0"/>
        <pt x="1251" y="787" on="1"/>
        <pt x="1251" y="874" on="0"/>
        <pt x="1224" y="1042" on="0"/>
        <pt x="1171" y="1191" on="0"/>
        <pt x="1093" y="1318" on="0"/>
        <pt x="989" y="1409" on="0"/>
        <pt x="860" y="1461" on="0"/>
        <pt x="784" y="1461" on="1"/>
        <pt x="674" y="1461" on="0"/>
        <pt x="496" y="1365" on="0"/>
        <pt x="371" y="1183" on="0"/>
        <pt x="303" y="920" on="0"/>
        <pt x="303" y="753" on="1"/>
        <pt x="303" y="622" on="0"/>
        <pt x="368" y="379" on="0"/>
        <pt x="492" y="190" on="0"/>
        <pt x="672" y="77" on="0"/>
      </contour>
    </TTGlyph>
    <TTGlyph name="Ograve" xMin="87" yMin="-28" xMax="1467" yMax="1920">
      <contour>
        <pt x="798" y="1607" on="1"/>
        <pt x="751" y="1615" on="0"/>
        <pt x="650" y="1646" on="0"/>
        <pt x="547" y="1688" on="0"/>
        <pt x="446" y="1741" on="0"/>
        <pt x="399" y="1771" on="1"/>
        <pt x="545" y="1920" on="1"/>
        <pt x="851" y="1661" on="1"/>
      </contour>
      <contour>
        <pt x="87" y="752" on="1"/>
        <pt x="91" y="943" on="0"/>
        <pt x="206" y="1243" on="0"/>
        <pt x="400" y="1451" on="0"/>
        <pt x="656" y="1563" on="0"/>
        <pt x="801" y="1567" on="1"/>
        <pt x="957" y="1571" on="0"/>
        <pt x="1207" y="1456" on="0"/>
        <pt x="1380" y="1247" on="0"/>
        <pt x="1470" y="958" on="0"/>
        <pt x="1467" y="788" on="1"/>
        <pt x="1463" y="597" on="0"/>
        <pt x="1352" y="296" on="0"/>
        <pt x="1164" y="87" on="0"/>
        <pt x="913" y="-25" on="0"/>
        <pt x="771" y="-28" on="1"/>
        <pt x="613" y="-31" on="0"/>
        <pt x="357" y="84" on="0"/>
        <pt x="178" y="294" on="0"/>
        <pt x="84" y="582" on="0"/>
      </contour>
      <contour>
        <pt x="788" y="77" on="1"/>
        <pt x="898" y="77" on="0"/>
        <pt x="1070" y="174" on="0"/>
        <pt x="1189" y="357" on="0"/>
        <pt x="1251" y="620" on="0"/>
        <pt x="1251" y="787" on="1"/>
        <pt x="1251" y="874" on="0"/>
        <pt x="1224" y="1042" on="0"/>
        <pt x="1171" y="1191" on="0"/>
        <pt x="1093" y="1318" on="0"/>
        <pt x="989" y="1409" on="0"/>
        <pt x="860" y="1461" on="0"/>
        <pt x="784" y="1461" on="1"/>
        <pt x="674" y="1461" on="0"/>
        <pt x="496" y="1365" on="0"/>
        <pt x="371" y="1183" on="0"/>
        <pt x="303" y="920" on="0"/>
        <pt x="303" y="753" on="1"/>
        <pt x="303" y="622" on="0"/>
        <pt x="368" y="379" on="0"/>
        <pt x="492" y="190" on="0"/>
        <pt x="672" y="77" on="0"/>
      </contour>
    </TTGlyph>
    <TTGlyph name="Omega" xMin="142" yMin="0" xMax="1805" yMax="1553">
      <contour>
        <pt x="142" y="361" on="1"/>
        <pt x="241" y="368" on="1"/>
        <pt x="274" y="182" on="1"/>
        <pt x="614" y="182" on="1"/>
        <pt x="551" y="221" on="0"/>
        <pt x="424" y="347" on="0"/>
        <pt x="322" y="512" on="0"/>
        <pt x="260" y="711" on="0"/>
        <pt x="262" y="822" on="1"/>
        <pt x="264" y="948" on="0"/>
        <pt x="322" y="1154" on="0"/>
        <pt x="420" y="1317" on="0"/>
        <pt x="554" y="1436" on="0"/>
        <pt x="710" y="1515" on="0"/>
        <pt x="883" y="1553" on="0"/>
        <pt x="972" y="1553" on="1"/>
        <pt x="1119" y="1553" on="0"/>
        <pt x="1366" y="1462" on="0"/>
        <pt x="1544" y="1285" on="0"/>
        <pt x="1641" y="1026" on="0"/>
        <pt x="1638" y="858" on="1"/>
        <pt x="1636" y="765" on="0"/>
        <pt x="1573" y="570" on="0"/>
        <pt x="1474" y="389" on="0"/>
        <pt x="1350" y="234" on="0"/>
        <pt x="1288" y="182" on="1"/>
        <pt x="1636" y="182" on="1"/>
        <pt x="1706" y="399" on="1"/>
        <pt x="1805" y="392" on="1"/>
        <pt x="1759" y="0" on="1"/>
        <pt x="1079" y="0" on="1"/>
        <pt x="1079" y="166" on="1"/>
        <pt x="1156" y="212" on="0"/>
        <pt x="1282" y="347" on="0"/>
        <pt x="1372" y="523" on="0"/>
        <pt x="1421" y="735" on="0"/>
        <pt x="1421" y="857" on="1"/>
        <pt x="1421" y="1014" on="0"/>
        <pt x="1344" y="1245" on="0"/>
        <pt x="1216" y="1397" on="0"/>
        <pt x="1048" y="1471" on="0"/>
        <pt x="958" y="1471" on="1"/>
        <pt x="851" y="1471" on="0"/>
        <pt x="674" y="1389" on="0"/>
        <pt x="547" y="1226" on="0"/>
        <pt x="477" y="983" on="0"/>
        <pt x="477" y="823" on="1"/>
        <pt x="477" y="700" on="0"/>
        <pt x="546" y="489" on="0"/>
        <pt x="654" y="321" on="0"/>
        <pt x="784" y="200" on="0"/>
        <pt x="844" y="166" on="1"/>
        <pt x="844" y="0" on="1"/>
        <pt x="142" y="0" on="1"/>
      </contour>
    </TTGlyph>
    <TTGlyph name="Oslash" xMin="87" yMin="-199" xMax="1467" yMax="1693">
      <contour>
        <pt x="503" y="19" on="1"/>
        <pt x="404" y="59" on="0"/>
        <pt x="247" y="201" on="0"/>
        <pt x="139" y="390" on="0"/>
        <pt x="84" y="622" on="0"/>
        <pt x="87" y="752" on="1"/>
        <pt x="91" y="943" on="0"/>
        <pt x="206" y="1243" on="0"/>
        <pt x="400" y="1451" on="0"/>
        <pt x="656" y="1563" on="0"/>
        <pt x="801" y="1567" on="1"/>
        <pt x="864" y="1569" on="0"/>
        <pt x="979" y="1551" on="0"/>
        <pt x="1032" y="1533" on="1"/>
        <pt x="1088" y="1693" on="1"/>
        <pt x="1171" y="1659" on="1"/>
        <pt x="1115" y="1497" on="1"/>
        <pt x="1200" y="1452" on="0"/>
        <pt x="1333" y="1310" on="0"/>
        <pt x="1424" y="1127" on="0"/>
        <pt x="1469" y="909" on="0"/>
        <pt x="1467" y="788" on="1"/>
        <pt x="1463" y="597" on="0"/>
        <pt x="1352" y="296" on="0"/>
        <pt x="1164" y="87" on="0"/>
        <pt x="913" y="-25" on="0"/>
        <pt x="771" y="-28" on="1"/>
        <pt x="676" y="-30" on="0"/>
        <pt x="593" y="-10" on="1"/>
        <pt x="528" y="-199" on="1"/>
        <pt x="440" y="-166" on="1"/>
      </contour>
      <contour>
        <pt x="984" y="1405" on="1"/>
        <pt x="940" y="1431" on="0"/>
        <pt x="841" y="1461" on="0"/>
        <pt x="784" y="1461" on="1"/>
        <pt x="674" y="1461" on="0"/>
        <pt x="496" y="1365" on="0"/>
        <pt x="371" y="1183" on="0"/>
        <pt x="303" y="920" on="0"/>
        <pt x="303" y="753" on="1"/>
        <pt x="303" y="660" on="0"/>
        <pt x="336" y="482" on="0"/>
        <pt x="399" y="325" on="0"/>
        <pt x="492" y="196" on="0"/>
        <pt x="553" y="152" on="1"/>
      </contour>
      <contour>
        <pt x="636" y="106" on="1"/>
        <pt x="706" y="77" on="0"/>
        <pt x="788" y="77" on="1"/>
        <pt x="898" y="77" on="0"/>
        <pt x="1070" y="174" on="0"/>
        <pt x="1189" y="357" on="0"/>
        <pt x="1251" y="620" on="0"/>
        <pt x="1251" y="787" on="1"/>
        <pt x="1251" y="870" on="0"/>
        <pt x="1226" y="1030" on="0"/>
        <pt x="1178" y="1174" on="0"/>
        <pt x="1106" y="1298" on="0"/>
        <pt x="1059" y="1345" on="1"/>
      </contour>
    </TTGlyph>
    <TTGlyph name="Otilde" xMin="87" yMin="-28" xMax="1467" yMax="1920">
      <contour>
        <pt x="389" y="1750" on="1"/>
        <pt x="408" y="1785" on="0"/>
        <pt x="469" y="1847" on="0"/>
        <pt x="544" y="1893" on="0"/>
        <pt x="627" y="1920" on="0"/>
        <pt x="666" y="1920" on="1"/>
        <pt x="715" y="1920" on="0"/>
        <pt x="781" y="1881" on="0"/>
        <pt x="836" y="1833" on="0"/>
        <pt x="890" y="1794" on="0"/>
        <pt x="926" y="1794" on="1"/>
        <pt x="984" y="1794" on="0"/>
        <pt x="1079" y="1843" on="0"/>
        <pt x="1111" y="1875" on="1"/>
        <pt x="1163" y="1802" on="1"/>
        <pt x="1144" y="1767" on="0"/>
        <pt x="1083" y="1705" on="0"/>
        <pt x="1008" y="1658" on="0"/>
        <pt x="925" y="1631" on="0"/>
        <pt x="886" y="1631" on="1"/>
        <pt x="853" y="1631" on="0"/>
        <pt x="803" y="1650" on="0"/>
        <pt x="761" y="1679" on="0"/>
        <pt x="726" y="1713" on="0"/>
        <pt x="690" y="1742" on="0"/>
        <pt x="650" y="1761" on="0"/>
        <pt x="626" y="1761" on="1"/>
        <pt x="600" y="1761" on="0"/>
        <pt x="547" y="1746" on="0"/>
        <pt x="498" y="1722" on="0"/>
        <pt x="456" y="1692" on="0"/>
        <pt x="441" y="1677" on="1"/>
      </contour>
      <contour>
        <pt x="87" y="752" on="1"/>
        <pt x="91" y="943" on="0"/>
        <pt x="206" y="1243" on="0"/>
        <pt x="400" y="1451" on="0"/>
        <pt x="656" y="1563" on="0"/>
        <pt x="801" y="1567" on="1"/>
        <pt x="957" y="1571" on="0"/>
        <pt x="1207" y="1456" on="0"/>
        <pt x="1380" y="1247" on="0"/>
        <pt x="1470" y="958" on="0"/>
        <pt x="1467" y="788" on="1"/>
        <pt x="1463" y="597" on="0"/>
        <pt x="1352" y="296" on="0"/>
        <pt x="1164" y="87" on="0"/>
        <pt x="913" y="-25" on="0"/>
        <pt x="771" y="-28" on="1"/>
        <pt x="613" y="-31" on="0"/>
        <pt x="357" y="84" on="0"/>
        <pt x="178" y="294" on="0"/>
        <pt x="84" y="582" on="0"/>
      </contour>
      <contour>
        <pt x="788" y="77" on="1"/>
        <pt x="898" y="77" on="0"/>
        <pt x="1070" y="174" on="0"/>
        <pt x="1189" y="357" on="0"/>
        <pt x="1251" y="620" on="0"/>
        <pt x="1251" y="787" on="1"/>
        <pt x="1251" y="874" on="0"/>
        <pt x="1224" y="1042" on="0"/>
        <pt x="1171" y="1191" on="0"/>
        <pt x="1093" y="1318" on="0"/>
        <pt x="989" y="1409" on="0"/>
        <pt x="860" y="1461" on="0"/>
        <pt x="784" y="1461" on="1"/>
        <pt x="674" y="1461" on="0"/>
        <pt x="496" y="1365" on="0"/>
        <pt x="371" y="1183" on="0"/>
        <pt x="303" y="920" on="0"/>
        <pt x="303" y="753" on="1"/>
        <pt x="303" y="622" on="0"/>
        <pt x="368" y="379" on="0"/>
        <pt x="492" y="190" on="0"/>
        <pt x="672" y="77" on="0"/>
      </contour>
    </TTGlyph>
    <TTGlyph name="P" xMin="86" yMin="0" xMax="1251" yMax="1567">
      <contour>
        <pt x="86" y="85" on="1"/>
        <pt x="275" y="115" on="1"/>
        <pt x="275" y="1427" on="1"/>
        <pt x="110" y="1444" on="1"/>
        <pt x="110" y="1553" on="1"/>
        <pt x="373" y="1553" on="1"/>
        <pt x="397" y="1553" on="0"/>
        <pt x="477" y="1557" on="0"/>
        <pt x="574" y="1563" on="0"/>
        <pt x="679" y="1567" on="0"/>
        <pt x="729" y="1567" on="1"/>
        <pt x="844" y="1567" on="0"/>
        <pt x="1036" y="1523" on="0"/>
        <pt x="1174" y="1416" on="0"/>
        <pt x="1251" y="1238" on="0"/>
        <pt x="1251" y="1103" on="1"/>
        <pt x="1251" y="1022" on="0"/>
        <pt x="1206" y="882" on="0"/>
        <pt x="1126" y="768" on="0"/>
        <pt x="1016" y="680" on="0"/>
        <pt x="888" y="622" on="0"/>
        <pt x="745" y="593" on="0"/>
        <pt x="672" y="595" on="1"/>
        <pt x="596" y="597" on="0"/>
        <pt x="502" y="595" on="0"/>
        <pt x="470" y="590" on="1"/>
        <pt x="470" y="115" on="1"/>
        <pt x="737" y="85" on="1"/>
        <pt x="737" y="0" on="1"/>
        <pt x="86" y="0" on="1"/>
      </contour>
      <contour>
        <pt x="470" y="708" on="1"/>
        <pt x="527" y="700" on="0"/>
        <pt x="624" y="697" on="0"/>
        <pt x="669" y="697" on="1"/>
        <pt x="717" y="697" on="0"/>
        <pt x="812" y="710" on="0"/>
        <pt x="897" y="743" on="0"/>
        <pt x="970" y="800" on="0"/>
        <pt x="1023" y="890" on="0"/>
        <pt x="1053" y="1015" on="0"/>
        <pt x="1053" y="1100" on="1"/>
        <pt x="1053" y="1284" on="0"/>
        <pt x="846" y="1462" on="0"/>
        <pt x="653" y="1456" on="1"/>
        <pt x="604" y="1454" on="0"/>
        <pt x="515" y="1447" on="0"/>
        <pt x="470" y="1436" on="1"/>
      </contour>
    </TTGlyph>
    <TTGlyph name="Q" xMin="87" yMin="-356" xMax="1467" yMax="1567">
      <contour>
        <pt x="87" y="752" on="1"/>
        <pt x="91" y="943" on="0"/>
        <pt x="206" y="1243" on="0"/>
        <pt x="400" y="1451" on="0"/>
        <pt x="656" y="1563" on="0"/>
        <pt x="801" y="1567" on="1"/>
        <pt x="957" y="1571" on="0"/>
        <pt x="1207" y="1456" on="0"/>
        <pt x="1380" y="1247" on="0"/>
        <pt x="1470" y="958" on="0"/>
        <pt x="1467" y="788" on="1"/>
        <pt x="1464" y="620" on="0"/>
        <pt x="1376" y="346" on="0"/>
        <pt x="1226" y="143" on="0"/>
        <pt x="1023" y="13" on="0"/>
        <pt x="905" y="-12" on="1"/>
        <pt x="929" y="-71" on="0"/>
        <pt x="1020" y="-141" on="0"/>
        <pt x="1131" y="-179" on="0"/>
        <pt x="1249" y="-190" on="0"/>
        <pt x="1300" y="-190" on="1"/>
        <pt x="1337" y="-190" on="0"/>
        <pt x="1413" y="-174" on="0"/>
        <pt x="1439" y="-157" on="1"/>
        <pt x="1457" y="-280" on="1"/>
        <pt x="1437" y="-310" on="0"/>
        <pt x="1319" y="-356" on="0"/>
        <pt x="1234" y="-356" on="1"/>
        <pt x="1162" y="-356" on="0"/>
        <pt x="1026" y="-327" on="0"/>
        <pt x="909" y="-254" on="0"/>
        <pt x="819" y="-126" on="0"/>
        <pt x="793" y="-27" on="1"/>
        <pt x="788" y="-27" on="0"/>
        <pt x="776" y="-28" on="0"/>
        <pt x="771" y="-28" on="1"/>
        <pt x="613" y="-31" on="0"/>
        <pt x="357" y="84" on="0"/>
        <pt x="178" y="294" on="0"/>
        <pt x="84" y="582" on="0"/>
      </contour>
      <contour>
        <pt x="788" y="77" on="1"/>
        <pt x="898" y="77" on="0"/>
        <pt x="1070" y="174" on="0"/>
        <pt x="1189" y="357" on="0"/>
        <pt x="1251" y="620" on="0"/>
        <pt x="1251" y="787" on="1"/>
        <pt x="1251" y="874" on="0"/>
        <pt x="1224" y="1042" on="0"/>
        <pt x="1171" y="1191" on="0"/>
        <pt x="1093" y="1318" on="0"/>
        <pt x="989" y="1409" on="0"/>
        <pt x="860" y="1461" on="0"/>
        <pt x="784" y="1461" on="1"/>
        <pt x="674" y="1461" on="0"/>
        <pt x="496" y="1365" on="0"/>
        <pt x="371" y="1183" on="0"/>
        <pt x="303" y="920" on="0"/>
        <pt x="303" y="753" on="1"/>
        <pt x="303" y="622" on="0"/>
        <pt x="368" y="379" on="0"/>
        <pt x="492" y="190" on="0"/>
        <pt x="672" y="77" on="0"/>
      </contour>
    </TTGlyph>
    <TTGlyph name="R" xMin="86" yMin="0" xMax="1433" yMax="1567">
      <contour>
        <pt x="86" y="85" on="1"/>
        <pt x="275" y="115" on="1"/>
        <pt x="275" y="1427" on="1"/>
        <pt x="110" y="1444" on="1"/>
        <pt x="110" y="1553" on="1"/>
        <pt x="373" y="1553" on="1"/>
        <pt x="421" y="1553" on="0"/>
        <pt x="573" y="1567" on="0"/>
        <pt x="673" y="1567" on="1"/>
        <pt x="788" y="1567" on="0"/>
        <pt x="981" y="1529" on="0"/>
        <pt x="1121" y="1434" on="0"/>
        <pt x="1199" y="1274" on="0"/>
        <pt x="1199" y="1153" on="1"/>
        <pt x="1199" y="1075" on="0"/>
        <pt x="1150" y="937" on="0"/>
        <pt x="1062" y="824" on="0"/>
        <pt x="939" y="738" on="0"/>
        <pt x="864" y="712" on="1"/>
        <pt x="869" y="710" on="0"/>
        <pt x="879" y="706" on="0"/>
        <pt x="884" y="704" on="1"/>
        <pt x="931" y="680" on="0"/>
        <pt x="1019" y="579" on="0"/>
        <pt x="1100" y="453" on="0"/>
        <pt x="1174" y="317" on="0"/>
        <pt x="1241" y="202" on="0"/>
        <pt x="1300" y="122" on="0"/>
        <pt x="1326" y="115" on="1"/>
        <pt x="1433" y="85" on="1"/>
        <pt x="1433" y="0" on="1"/>
        <pt x="1144" y="0" on="1"/>
        <pt x="1125" y="0" on="0"/>
        <pt x="1080" y="60" on="0"/>
        <pt x="1028" y="157" on="0"/>
        <pt x="969" y="282" on="0"/>
        <pt x="904" y="410" on="0"/>
        <pt x="833" y="532" on="0"/>
        <pt x="756" y="625" on="0"/>
        <pt x="674" y="678" on="0"/>
        <pt x="630" y="674" on="1"/>
        <pt x="595" y="672" on="0"/>
        <pt x="516" y="672" on="0"/>
        <pt x="470" y="672" on="1"/>
        <pt x="470" y="114" on="1"/>
        <pt x="677" y="85" on="1"/>
        <pt x="677" y="0" on="1"/>
        <pt x="86" y="0" on="1"/>
      </contour>
      <contour>
        <pt x="470" y="785" on="1"/>
        <pt x="482" y="783" on="0"/>
        <pt x="529" y="781" on="0"/>
        <pt x="581" y="780" on="0"/>
        <pt x="631" y="779" on="0"/>
        <pt x="647" y="779" on="1"/>
        <pt x="727" y="779" on="0"/>
        <pt x="856" y="819" on="0"/>
        <pt x="946" y="904" on="0"/>
        <pt x="995" y="1037" on="0"/>
        <pt x="995" y="1130" on="1"/>
        <pt x="995" y="1207" on="0"/>
        <pt x="961" y="1332" on="0"/>
        <pt x="881" y="1419" on="0"/>
        <pt x="747" y="1464" on="0"/>
        <pt x="647" y="1460" on="1"/>
        <pt x="598" y="1458" on="0"/>
        <pt x="508" y="1455" on="0"/>
        <pt x="470" y="1444" on="1"/>
      </contour>
    </TTGlyph>
    <TTGlyph name="Racute" xMin="86" yMin="0" xMax="1433" yMax="1920">
      <contour>
        <pt x="635" y="1661" on="1"/>
        <pt x="941" y="1920" on="1"/>
        <pt x="1087" y="1771" on="1"/>
        <pt x="1040" y="1741" on="0"/>
        <pt x="939" y="1688" on="0"/>
        <pt x="836" y="1646" on="0"/>
        <pt x="734" y="1615" on="0"/>
        <pt x="688" y="1607" on="1"/>
      </contour>
      <contour>
        <pt x="86" y="85" on="1"/>
        <pt x="275" y="115" on="1"/>
        <pt x="275" y="1427" on="1"/>
        <pt x="110" y="1444" on="1"/>
        <pt x="110" y="1553" on="1"/>
        <pt x="373" y="1553" on="1"/>
        <pt x="421" y="1553" on="0"/>
        <pt x="573" y="1567" on="0"/>
        <pt x="673" y="1567" on="1"/>
        <pt x="788" y="1567" on="0"/>
        <pt x="981" y="1529" on="0"/>
        <pt x="1121" y="1434" on="0"/>
        <pt x="1199" y="1274" on="0"/>
        <pt x="1199" y="1153" on="1"/>
        <pt x="1199" y="1075" on="0"/>
        <pt x="1150" y="937" on="0"/>
        <pt x="1062" y="824" on="0"/>
        <pt x="939" y="738" on="0"/>
        <pt x="864" y="712" on="1"/>
        <pt x="869" y="710" on="0"/>
        <pt x="879" y="706" on="0"/>
        <pt x="884" y="704" on="1"/>
        <pt x="931" y="680" on="0"/>
        <pt x="1019" y="579" on="0"/>
        <pt x="1100" y="453" on="0"/>
        <pt x="1174" y="317" on="0"/>
        <pt x="1241" y="202" on="0"/>
        <pt x="1300" y="122" on="0"/>
        <pt x="1326" y="115" on="1"/>
        <pt x="1433" y="85" on="1"/>
        <pt x="1433" y="0" on="1"/>
        <pt x="1144" y="0" on="1"/>
        <pt x="1125" y="0" on="0"/>
        <pt x="1080" y="60" on="0"/>
        <pt x="1028" y="157" on="0"/>
        <pt x="969" y="282" on="0"/>
        <pt x="904" y="410" on="0"/>
        <pt x="833" y="532" on="0"/>
        <pt x="756" y="625" on="0"/>
        <pt x="674" y="678" on="0"/>
        <pt x="630" y="674" on="1"/>
        <pt x="595" y="672" on="0"/>
        <pt x="516" y="672" on="0"/>
        <pt x="470" y="672" on="1"/>
        <pt x="470" y="114" on="1"/>
        <pt x="677" y="85" on="1"/>
        <pt x="677" y="0" on="1"/>
        <pt x="86" y="0" on="1"/>
      </contour>
      <contour>
        <pt x="470" y="785" on="1"/>
        <pt x="482" y="783" on="0"/>
        <pt x="529" y="781" on="0"/>
        <pt x="581" y="780" on="0"/>
        <pt x="631" y="779" on="0"/>
        <pt x="647" y="779" on="1"/>
        <pt x="727" y="779" on="0"/>
        <pt x="856" y="819" on="0"/>
        <pt x="946" y="904" on="0"/>
        <pt x="995" y="1037" on="0"/>
        <pt x="995" y="1130" on="1"/>
        <pt x="995" y="1207" on="0"/>
        <pt x="961" y="1332" on="0"/>
        <pt x="881" y="1419" on="0"/>
        <pt x="747" y="1464" on="0"/>
        <pt x="647" y="1460" on="1"/>
        <pt x="598" y="1458" on="0"/>
        <pt x="508" y="1455" on="0"/>
        <pt x="470" y="1444" on="1"/>
      </contour>
    </TTGlyph>
    <TTGlyph name="Rcaron" xMin="86" yMin="0" xMax="1433" yMax="1920">
      <contour>
        <pt x="369" y="1871" on="1"/>
        <pt x="456" y="1920" on="1"/>
        <pt x="700" y="1752" on="1"/>
        <pt x="950" y="1920" on="1"/>
        <pt x="1028" y="1874" on="1"/>
        <pt x="795" y="1616" on="1"/>
        <pt x="606" y="1616" on="1"/>
      </contour>
      <contour>
        <pt x="86" y="85" on="1"/>
        <pt x="275" y="115" on="1"/>
        <pt x="275" y="1427" on="1"/>
        <pt x="110" y="1444" on="1"/>
        <pt x="110" y="1553" on="1"/>
        <pt x="373" y="1553" on="1"/>
        <pt x="421" y="1553" on="0"/>
        <pt x="573" y="1567" on="0"/>
        <pt x="673" y="1567" on="1"/>
        <pt x="788" y="1567" on="0"/>
        <pt x="981" y="1529" on="0"/>
        <pt x="1121" y="1434" on="0"/>
        <pt x="1199" y="1274" on="0"/>
        <pt x="1199" y="1153" on="1"/>
        <pt x="1199" y="1075" on="0"/>
        <pt x="1150" y="937" on="0"/>
        <pt x="1062" y="824" on="0"/>
        <pt x="939" y="738" on="0"/>
        <pt x="864" y="712" on="1"/>
        <pt x="869" y="710" on="0"/>
        <pt x="879" y="706" on="0"/>
        <pt x="884" y="704" on="1"/>
        <pt x="931" y="680" on="0"/>
        <pt x="1019" y="579" on="0"/>
        <pt x="1100" y="453" on="0"/>
        <pt x="1174" y="317" on="0"/>
        <pt x="1241" y="202" on="0"/>
        <pt x="1300" y="122" on="0"/>
        <pt x="1326" y="115" on="1"/>
        <pt x="1433" y="85" on="1"/>
        <pt x="1433" y="0" on="1"/>
        <pt x="1144" y="0" on="1"/>
        <pt x="1125" y="0" on="0"/>
        <pt x="1080" y="60" on="0"/>
        <pt x="1028" y="157" on="0"/>
        <pt x="969" y="282" on="0"/>
        <pt x="904" y="410" on="0"/>
        <pt x="833" y="532" on="0"/>
        <pt x="756" y="625" on="0"/>
        <pt x="674" y="678" on="0"/>
        <pt x="630" y="674" on="1"/>
        <pt x="725" y="747" on="1"/>
        <pt x="746" y="738" on="0"/>
        <pt x="784" y="728" on="0"/>
        <pt x="818" y="722" on="0"/>
        <pt x="849" y="716" on="0"/>
        <pt x="864" y="712" on="1"/>
        <pt x="847" y="706" on="0"/>
        <pt x="813" y="696" on="0"/>
        <pt x="796" y="692" on="1"/>
        <pt x="741" y="679" on="0"/>
        <pt x="586" y="672" on="0"/>
        <pt x="470" y="672" on="1"/>
        <pt x="470" y="114" on="1"/>
        <pt x="677" y="85" on="1"/>
        <pt x="677" y="0" on="1"/>
        <pt x="86" y="0" on="1"/>
      </contour>
      <contour>
        <pt x="470" y="785" on="1"/>
        <pt x="482" y="783" on="0"/>
        <pt x="529" y="781" on="0"/>
        <pt x="581" y="780" on="0"/>
        <pt x="631" y="779" on="0"/>
        <pt x="647" y="779" on="1"/>
        <pt x="727" y="779" on="0"/>
        <pt x="856" y="819" on="0"/>
        <pt x="946" y="904" on="0"/>
        <pt x="995" y="1037" on="0"/>
        <pt x="995" y="1130" on="1"/>
        <pt x="995" y="1207" on="0"/>
        <pt x="961" y="1332" on="0"/>
        <pt x="881" y="1419" on="0"/>
        <pt x="747" y="1464" on="0"/>
        <pt x="647" y="1460" on="1"/>
        <pt x="598" y="1458" on="0"/>
        <pt x="508" y="1455" on="0"/>
        <pt x="470" y="1444" on="1"/>
      </contour>
    </TTGlyph>
    <TTGlyph name="Rcommaaccent" xMin="86" yMin="-640" xMax="1433" yMax="1567">
      <contour>
        <pt x="86" y="85" on="1"/>
        <pt x="275" y="115" on="1"/>
        <pt x="275" y="1427" on="1"/>
        <pt x="110" y="1444" on="1"/>
        <pt x="110" y="1553" on="1"/>
        <pt x="373" y="1553" on="1"/>
        <pt x="421" y="1553" on="0"/>
        <pt x="573" y="1567" on="0"/>
        <pt x="673" y="1567" on="1"/>
        <pt x="788" y="1567" on="0"/>
        <pt x="981" y="1529" on="0"/>
        <pt x="1121" y="1434" on="0"/>
        <pt x="1199" y="1274" on="0"/>
        <pt x="1199" y="1153" on="1"/>
        <pt x="1199" y="1075" on="0"/>
        <pt x="1150" y="937" on="0"/>
        <pt x="1062" y="824" on="0"/>
        <pt x="939" y="738" on="0"/>
        <pt x="864" y="712" on="1"/>
        <pt x="869" y="710" on="0"/>
        <pt x="879" y="706" on="0"/>
        <pt x="884" y="704" on="1"/>
        <pt x="931" y="680" on="0"/>
        <pt x="1019" y="579" on="0"/>
        <pt x="1100" y="453" on="0"/>
        <pt x="1174" y="317" on="0"/>
        <pt x="1241" y="202" on="0"/>
        <pt x="1300" y="122" on="0"/>
        <pt x="1326" y="115" on="1"/>
        <pt x="1433" y="85" on="1"/>
        <pt x="1433" y="0" on="1"/>
        <pt x="1144" y="0" on="1"/>
        <pt x="1125" y="0" on="0"/>
        <pt x="1080" y="60" on="0"/>
        <pt x="1028" y="157" on="0"/>
        <pt x="969" y="282" on="0"/>
        <pt x="904" y="410" on="0"/>
        <pt x="833" y="532" on="0"/>
        <pt x="756" y="625" on="0"/>
        <pt x="674" y="678" on="0"/>
        <pt x="630" y="674" on="1"/>
        <pt x="595" y="672" on="0"/>
        <pt x="516" y="672" on="0"/>
        <pt x="470" y="672" on="1"/>
        <pt x="470" y="114" on="1"/>
        <pt x="677" y="85" on="1"/>
        <pt x="677" y="0" on="1"/>
        <pt x="86" y="0" on="1"/>
      </contour>
      <contour>
        <pt x="470" y="785" on="1"/>
        <pt x="482" y="783" on="0"/>
        <pt x="529" y="781" on="0"/>
        <pt x="581" y="780" on="0"/>
        <pt x="631" y="779" on="0"/>
        <pt x="647" y="779" on="1"/>
        <pt x="727" y="779" on="0"/>
        <pt x="856" y="819" on="0"/>
        <pt x="946" y="904" on="0"/>
        <pt x="995" y="1037" on="0"/>
        <pt x="995" y="1130" on="1"/>
        <pt x="995" y="1207" on="0"/>
        <pt x="961" y="1332" on="0"/>
        <pt x="881" y="1419" on="0"/>
        <pt x="747" y="1464" on="0"/>
        <pt x="647" y="1460" on="1"/>
        <pt x="598" y="1458" on="0"/>
        <pt x="508" y="1455" on="0"/>
        <pt x="470" y="1444" on="1"/>
      </contour>
      <contour>
        <pt x="760" y="-41" on="1"/>
        <pt x="812" y="-55" on="0"/>
        <pt x="889" y="-110" on="0"/>
        <pt x="940" y="-180" on="0"/>
        <pt x="965" y="-258" on="0"/>
        <pt x="965" y="-295" on="1"/>
        <pt x="965" y="-363" on="0"/>
        <pt x="912" y="-481" on="0"/>
        <pt x="835" y="-572" on="0"/>
        <pt x="748" y="-631" on="0"/>
        <pt x="715" y="-640" on="1"/>
        <pt x="659" y="-590" on="1"/>
        <pt x="659" y="-564" on="1"/>
        <pt x="687" y="-551" on="0"/>
        <pt x="726" y="-501" on="0"/>
        <pt x="750" y="-438" on="0"/>
        <pt x="760" y="-368" on="0"/>
        <pt x="760" y="-335" on="1"/>
        <pt x="760" y="-307" on="0"/>
        <pt x="738" y="-257" on="0"/>
        <pt x="707" y="-220" on="0"/>
        <pt x="671" y="-199" on="0"/>
        <pt x="658" y="-199" on="1"/>
        <pt x="658" y="-145" on="1"/>
      </contour>
    </TTGlyph>
    <TTGlyph name="S" xMin="154" yMin="-23" xMax="1126" yMax="1567">
      <contour>
        <pt x="154" y="383" on="1"/>
        <pt x="242" y="383" on="1"/>
        <pt x="305" y="184" on="1"/>
        <pt x="335" y="153" on="0"/>
        <pt x="413" y="112" on="0"/>
        <pt x="500" y="88" on="0"/>
        <pt x="593" y="78" on="0"/>
        <pt x="637" y="78" on="1"/>
        <pt x="692" y="78" on="0"/>
        <pt x="801" y="108" on="0"/>
        <pt x="888" y="173" on="0"/>
        <pt x="942" y="273" on="0"/>
        <pt x="942" y="343" on="1"/>
        <pt x="942" y="407" on="0"/>
        <pt x="880" y="511" on="0"/>
        <pt x="778" y="601" on="0"/>
        <pt x="645" y="681" on="0"/>
        <pt x="575" y="720" on="1"/>
        <pt x="499" y="762" on="0"/>
        <pt x="352" y="854" on="0"/>
        <pt x="236" y="963" on="0"/>
        <pt x="164" y="1097" on="0"/>
        <pt x="164" y="1181" on="1"/>
        <pt x="164" y="1251" on="0"/>
        <pt x="208" y="1363" on="0"/>
        <pt x="281" y="1448" on="0"/>
        <pt x="378" y="1510" on="0"/>
        <pt x="485" y="1549" on="0"/>
        <pt x="595" y="1567" on="0"/>
        <pt x="645" y="1567" on="1"/>
        <pt x="718" y="1567" on="0"/>
        <pt x="841" y="1553" on="0"/>
        <pt x="939" y="1530" on="0"/>
        <pt x="1010" y="1503" on="0"/>
        <pt x="1032" y="1490" on="1"/>
        <pt x="1032" y="1213" on="1"/>
        <pt x="947" y="1213" on="1"/>
        <pt x="869" y="1405" on="1"/>
        <pt x="851" y="1421" on="0"/>
        <pt x="800" y="1445" on="0"/>
        <pt x="737" y="1461" on="0"/>
        <pt x="666" y="1468" on="0"/>
        <pt x="630" y="1468" on="1"/>
        <pt x="589" y="1468" on="0"/>
        <pt x="490" y="1443" on="0"/>
        <pt x="404" y="1384" on="0"/>
        <pt x="345" y="1287" on="0"/>
        <pt x="345" y="1214" on="1"/>
        <pt x="345" y="1157" on="0"/>
        <pt x="400" y="1061" on="0"/>
        <pt x="493" y="979" on="0"/>
        <pt x="614" y="905" on="0"/>
        <pt x="680" y="870" on="1"/>
        <pt x="759" y="827" on="0"/>
        <pt x="919" y="735" on="0"/>
        <pt x="1046" y="622" on="0"/>
        <pt x="1126" y="485" on="0"/>
        <pt x="1126" y="397" on="1"/>
        <pt x="1126" y="285" on="0"/>
        <pt x="1042" y="126" on="0"/>
        <pt x="900" y="24" on="0"/>
        <pt x="713" y="-23" on="0"/>
        <pt x="610" y="-23" on="1"/>
        <pt x="535" y="-23" on="0"/>
        <pt x="390" y="-7" on="0"/>
        <pt x="267" y="18" on="0"/>
        <pt x="175" y="48" on="0"/>
        <pt x="154" y="61" on="1"/>
      </contour>
    </TTGlyph>
    <TTGlyph name="Scaron" xMin="148" yMin="-23" xMax="1120" yMax="1920">
      <contour>
        <pt x="312" y="1871" on="1"/>
        <pt x="399" y="1920" on="1"/>
        <pt x="643" y="1752" on="1"/>
        <pt x="893" y="1920" on="1"/>
        <pt x="971" y="1874" on="1"/>
        <pt x="738" y="1616" on="1"/>
        <pt x="549" y="1616" on="1"/>
      </contour>
      <contour>
        <pt x="148" y="383" on="1"/>
        <pt x="236" y="383" on="1"/>
        <pt x="299" y="184" on="1"/>
        <pt x="329" y="153" on="0"/>
        <pt x="407" y="112" on="0"/>
        <pt x="494" y="88" on="0"/>
        <pt x="587" y="78" on="0"/>
        <pt x="631" y="78" on="1"/>
        <pt x="686" y="78" on="0"/>
        <pt x="795" y="108" on="0"/>
        <pt x="882" y="173" on="0"/>
        <pt x="936" y="273" on="0"/>
        <pt x="936" y="343" on="1"/>
        <pt x="936" y="407" on="0"/>
        <pt x="874" y="511" on="0"/>
        <pt x="772" y="601" on="0"/>
        <pt x="639" y="681" on="0"/>
        <pt x="569" y="720" on="1"/>
        <pt x="493" y="762" on="0"/>
        <pt x="346" y="854" on="0"/>
        <pt x="230" y="963" on="0"/>
        <pt x="158" y="1097" on="0"/>
        <pt x="158" y="1181" on="1"/>
        <pt x="158" y="1251" on="0"/>
        <pt x="202" y="1363" on="0"/>
        <pt x="275" y="1448" on="0"/>
        <pt x="372" y="1510" on="0"/>
        <pt x="479" y="1549" on="0"/>
        <pt x="589" y="1567" on="0"/>
        <pt x="639" y="1567" on="1"/>
        <pt x="712" y="1567" on="0"/>
        <pt x="835" y="1553" on="0"/>
        <pt x="933" y="1530" on="0"/>
        <pt x="1004" y="1503" on="0"/>
        <pt x="1026" y="1490" on="1"/>
        <pt x="1026" y="1213" on="1"/>
        <pt x="941" y="1213" on="1"/>
        <pt x="863" y="1405" on="1"/>
        <pt x="845" y="1421" on="0"/>
        <pt x="794" y="1445" on="0"/>
        <pt x="731" y="1461" on="0"/>
        <pt x="660" y="1468" on="0"/>
        <pt x="624" y="1468" on="1"/>
        <pt x="583" y="1468" on="0"/>
        <pt x="484" y="1443" on="0"/>
        <pt x="398" y="1384" on="0"/>
        <pt x="339" y="1287" on="0"/>
        <pt x="339" y="1214" on="1"/>
        <pt x="339" y="1157" on="0"/>
        <pt x="394" y="1061" on="0"/>
        <pt x="487" y="979" on="0"/>
        <pt x="608" y="905" on="0"/>
        <pt x="674" y="870" on="1"/>
        <pt x="753" y="827" on="0"/>
        <pt x="913" y="735" on="0"/>
        <pt x="1040" y="622" on="0"/>
        <pt x="1120" y="485" on="0"/>
        <pt x="1120" y="397" on="1"/>
        <pt x="1120" y="285" on="0"/>
        <pt x="1036" y="126" on="0"/>
        <pt x="894" y="24" on="0"/>
        <pt x="707" y="-23" on="0"/>
        <pt x="604" y="-23" on="1"/>
        <pt x="529" y="-23" on="0"/>
        <pt x="384" y="-7" on="0"/>
        <pt x="261" y="18" on="0"/>
        <pt x="169" y="48" on="0"/>
        <pt x="148" y="61" on="1"/>
      </contour>
    </TTGlyph>
    <TTGlyph name="T" xMin="30" yMin="0" xMax="1246" yMax="1553">
      <contour>
        <pt x="309" y="85" on="1"/>
        <pt x="554" y="115" on="1"/>
        <pt x="554" y="1442" on="1"/>
        <pt x="191" y="1422" on="1"/>
        <pt x="121" y="1251" on="1"/>
        <pt x="30" y="1249" on="1"/>
        <pt x="55" y="1553" on="1"/>
        <pt x="1246" y="1553" on="1"/>
        <pt x="1244" y="1246" on="1"/>
        <pt x="1162" y="1237" on="1"/>
        <pt x="1110" y="1423" on="1"/>
        <pt x="749" y="1442" on="1"/>
        <pt x="749" y="115" on="1"/>
        <pt x="1010" y="85" on="1"/>
        <pt x="1010" y="0" on="1"/>
        <pt x="309" y="0" on="1"/>
      </contour>
    </TTGlyph>
    <TTGlyph name="Thorn" xMin="86" yMin="0" xMax="1251" yMax="1553">
      <contour>
        <pt x="86" y="85" on="1"/>
        <pt x="275" y="115" on="1"/>
        <pt x="275" y="1438" on="1"/>
        <pt x="101" y="1455" on="1"/>
        <pt x="101" y="1553" on="1"/>
        <pt x="644" y="1553" on="1"/>
        <pt x="644" y="1455" on="1"/>
        <pt x="470" y="1437" on="1"/>
        <pt x="470" y="1230" on="1"/>
        <pt x="527" y="1237" on="0"/>
        <pt x="663" y="1254" on="0"/>
        <pt x="729" y="1254" on="1"/>
        <pt x="844" y="1254" on="0"/>
        <pt x="1036" y="1201" on="0"/>
        <pt x="1174" y="1093" on="0"/>
        <pt x="1251" y="931" on="0"/>
        <pt x="1251" y="823" on="1"/>
        <pt x="1251" y="742" on="0"/>
        <pt x="1206" y="603" on="0"/>
        <pt x="1126" y="492" on="0"/>
        <pt x="1016" y="407" on="0"/>
        <pt x="888" y="350" on="0"/>
        <pt x="745" y="323" on="0"/>
        <pt x="672" y="325" on="1"/>
        <pt x="596" y="327" on="0"/>
        <pt x="502" y="328" on="0"/>
        <pt x="470" y="330" on="1"/>
        <pt x="470" y="115" on="1"/>
        <pt x="737" y="85" on="1"/>
        <pt x="737" y="0" on="1"/>
        <pt x="86" y="0" on="1"/>
      </contour>
      <contour>
        <pt x="470" y="438" on="1"/>
        <pt x="527" y="430" on="0"/>
        <pt x="624" y="427" on="0"/>
        <pt x="669" y="427" on="1"/>
        <pt x="741" y="427" on="0"/>
        <pt x="879" y="460" on="0"/>
        <pt x="987" y="548" on="0"/>
        <pt x="1053" y="700" on="0"/>
        <pt x="1053" y="820" on="1"/>
        <pt x="1053" y="897" on="0"/>
        <pt x="1000" y="1020" on="0"/>
        <pt x="898" y="1105" on="0"/>
        <pt x="749" y="1147" on="0"/>
        <pt x="653" y="1143" on="1"/>
        <pt x="604" y="1141" on="0"/>
        <pt x="515" y="1125" on="0"/>
        <pt x="470" y="1114" on="1"/>
      </contour>
    </TTGlyph>
    <TTGlyph name="U" xMin="33" yMin="-28" xMax="1545" yMax="1553">
      <contour>
        <pt x="191" y="661" on="1"/>
        <pt x="191" y="856" on="0"/>
        <pt x="192" y="1242" on="0"/>
        <pt x="192" y="1437" on="1"/>
        <pt x="33" y="1455" on="1"/>
        <pt x="33" y="1553" on="1"/>
        <pt x="566" y="1553" on="1"/>
        <pt x="566" y="1455" on="1"/>
        <pt x="387" y="1436" on="1"/>
        <pt x="387" y="656" on="1"/>
        <pt x="387" y="487" on="0"/>
        <pt x="455" y="263" on="0"/>
        <pt x="576" y="130" on="0"/>
        <pt x="741" y="75" on="0"/>
        <pt x="839" y="75" on="1"/>
        <pt x="944" y="75" on="0"/>
        <pt x="1095" y="160" on="0"/>
        <pt x="1191" y="318" on="0"/>
        <pt x="1237" y="544" on="0"/>
        <pt x="1237" y="686" on="1"/>
        <pt x="1237" y="1436" on="1"/>
        <pt x="1055" y="1455" on="1"/>
        <pt x="1055" y="1553" on="1"/>
        <pt x="1545" y="1553" on="1"/>
        <pt x="1545" y="1455" on="1"/>
        <pt x="1387" y="1436" on="1"/>
        <pt x="1387" y="687" on="1"/>
        <pt x="1387" y="499" on="0"/>
        <pt x="1302" y="229" on="0"/>
        <pt x="1148" y="55" on="0"/>
        <pt x="934" y="-28" on="0"/>
        <pt x="806" y="-28" on="1"/>
        <pt x="636" y="-28" on="0"/>
        <pt x="401" y="61" on="0"/>
        <pt x="255" y="235" on="0"/>
        <pt x="191" y="492" on="0"/>
      </contour>
    </TTGlyph>
    <TTGlyph name="Uacute" xMin="33" yMin="-28" xMax="1545" yMax="1920">
      <contour>
        <pt x="760" y="1661" on="1"/>
        <pt x="1066" y="1920" on="1"/>
        <pt x="1212" y="1771" on="1"/>
        <pt x="1165" y="1741" on="0"/>
        <pt x="1064" y="1688" on="0"/>
        <pt x="961" y="1646" on="0"/>
        <pt x="859" y="1615" on="0"/>
        <pt x="813" y="1607" on="1"/>
      </contour>
      <contour>
        <pt x="191" y="661" on="1"/>
        <pt x="191" y="856" on="0"/>
        <pt x="192" y="1242" on="0"/>
        <pt x="192" y="1437" on="1"/>
        <pt x="33" y="1455" on="1"/>
        <pt x="33" y="1553" on="1"/>
        <pt x="566" y="1553" on="1"/>
        <pt x="566" y="1455" on="1"/>
        <pt x="387" y="1436" on="1"/>
        <pt x="387" y="656" on="1"/>
        <pt x="387" y="487" on="0"/>
        <pt x="455" y="263" on="0"/>
        <pt x="576" y="130" on="0"/>
        <pt x="741" y="75" on="0"/>
        <pt x="839" y="75" on="1"/>
        <pt x="944" y="75" on="0"/>
        <pt x="1095" y="160" on="0"/>
        <pt x="1191" y="318" on="0"/>
        <pt x="1237" y="544" on="0"/>
        <pt x="1237" y="686" on="1"/>
        <pt x="1237" y="1436" on="1"/>
        <pt x="1055" y="1455" on="1"/>
        <pt x="1055" y="1553" on="1"/>
        <pt x="1545" y="1553" on="1"/>
        <pt x="1545" y="1455" on="1"/>
        <pt x="1387" y="1436" on="1"/>
        <pt x="1387" y="687" on="1"/>
        <pt x="1387" y="499" on="0"/>
        <pt x="1302" y="229" on="0"/>
        <pt x="1148" y="55" on="0"/>
        <pt x="934" y="-28" on="0"/>
        <pt x="806" y="-28" on="1"/>
        <pt x="636" y="-28" on="0"/>
        <pt x="401" y="61" on="0"/>
        <pt x="255" y="235" on="0"/>
        <pt x="191" y="492" on="0"/>
      </contour>
    </TTGlyph>
    <TTGlyph name="Ucircumflex" xMin="33" yMin="-28" xMax="1545" yMax="1920">
      <contour>
        <pt x="474" y="1662" on="1"/>
        <pt x="727" y="1920" on="1"/>
        <pt x="916" y="1920" on="1"/>
        <pt x="1173" y="1665" on="1"/>
        <pt x="1086" y="1616" on="1"/>
        <pt x="822" y="1784" on="1"/>
        <pt x="552" y="1616" on="1"/>
      </contour>
      <contour>
        <pt x="191" y="661" on="1"/>
        <pt x="191" y="856" on="0"/>
        <pt x="192" y="1242" on="0"/>
        <pt x="192" y="1437" on="1"/>
        <pt x="33" y="1455" on="1"/>
        <pt x="33" y="1553" on="1"/>
        <pt x="566" y="1553" on="1"/>
        <pt x="566" y="1455" on="1"/>
        <pt x="387" y="1436" on="1"/>
        <pt x="387" y="656" on="1"/>
        <pt x="387" y="487" on="0"/>
        <pt x="455" y="263" on="0"/>
        <pt x="576" y="130" on="0"/>
        <pt x="741" y="75" on="0"/>
        <pt x="839" y="75" on="1"/>
        <pt x="944" y="75" on="0"/>
        <pt x="1095" y="160" on="0"/>
        <pt x="1191" y="318" on="0"/>
        <pt x="1237" y="544" on="0"/>
        <pt x="1237" y="686" on="1"/>
        <pt x="1237" y="1436" on="1"/>
        <pt x="1055" y="1455" on="1"/>
        <pt x="1055" y="1553" on="1"/>
        <pt x="1545" y="1553" on="1"/>
        <pt x="1545" y="1455" on="1"/>
        <pt x="1387" y="1436" on="1"/>
        <pt x="1387" y="687" on="1"/>
        <pt x="1387" y="499" on="0"/>
        <pt x="1302" y="229" on="0"/>
        <pt x="1148" y="55" on="0"/>
        <pt x="934" y="-28" on="0"/>
        <pt x="806" y="-28" on="1"/>
        <pt x="636" y="-28" on="0"/>
        <pt x="401" y="61" on="0"/>
        <pt x="255" y="235" on="0"/>
        <pt x="191" y="492" on="0"/>
      </contour>
    </TTGlyph>
    <TTGlyph name="Udieresis" xMin="33" yMin="-28" xMax="1545" yMax="1920">
      <contour>
        <pt x="1041" y="1651" on="1"/>
        <pt x="1017" y="1651" on="0"/>
        <pt x="971" y="1668" on="0"/>
        <pt x="936" y="1699" on="0"/>
        <pt x="915" y="1745" on="0"/>
        <pt x="915" y="1774" on="1"/>
        <pt x="915" y="1805" on="0"/>
        <pt x="942" y="1859" on="0"/>
        <pt x="984" y="1898" on="0"/>
        <pt x="1037" y="1920" on="0"/>
        <pt x="1064" y="1920" on="1"/>
        <pt x="1130" y="1920" on="0"/>
        <pt x="1191" y="1847" on="0"/>
        <pt x="1191" y="1796" on="1"/>
        <pt x="1191" y="1763" on="0"/>
        <pt x="1165" y="1709" on="0"/>
        <pt x="1123" y="1672" on="0"/>
        <pt x="1069" y="1651" on="0"/>
      </contour>
      <contour>
        <pt x="575" y="1651" on="1"/>
        <pt x="551" y="1651" on="0"/>
        <pt x="505" y="1668" on="0"/>
        <pt x="470" y="1699" on="0"/>
        <pt x="449" y="1745" on="0"/>
        <pt x="449" y="1774" on="1"/>
        <pt x="449" y="1805" on="0"/>
        <pt x="476" y="1859" on="0"/>
        <pt x="518" y="1898" on="0"/>
        <pt x="571" y="1920" on="0"/>
        <pt x="598" y="1920" on="1"/>
        <pt x="664" y="1920" on="0"/>
        <pt x="725" y="1847" on="0"/>
        <pt x="725" y="1796" on="1"/>
        <pt x="725" y="1763" on="0"/>
        <pt x="699" y="1709" on="0"/>
        <pt x="657" y="1672" on="0"/>
        <pt x="603" y="1651" on="0"/>
      </contour>
      <contour>
        <pt x="191" y="661" on="1"/>
        <pt x="191" y="856" on="0"/>
        <pt x="192" y="1242" on="0"/>
        <pt x="192" y="1437" on="1"/>
        <pt x="33" y="1455" on="1"/>
        <pt x="33" y="1553" on="1"/>
        <pt x="566" y="1553" on="1"/>
        <pt x="566" y="1455" on="1"/>
        <pt x="387" y="1436" on="1"/>
        <pt x="387" y="656" on="1"/>
        <pt x="387" y="487" on="0"/>
        <pt x="455" y="263" on="0"/>
        <pt x="576" y="130" on="0"/>
        <pt x="741" y="75" on="0"/>
        <pt x="839" y="75" on="1"/>
        <pt x="944" y="75" on="0"/>
        <pt x="1095" y="160" on="0"/>
        <pt x="1191" y="318" on="0"/>
        <pt x="1237" y="544" on="0"/>
        <pt x="1237" y="686" on="1"/>
        <pt x="1237" y="1436" on="1"/>
        <pt x="1055" y="1455" on="1"/>
        <pt x="1055" y="1553" on="1"/>
        <pt x="1545" y="1553" on="1"/>
        <pt x="1545" y="1455" on="1"/>
        <pt x="1387" y="1436" on="1"/>
        <pt x="1387" y="687" on="1"/>
        <pt x="1387" y="499" on="0"/>
        <pt x="1302" y="229" on="0"/>
        <pt x="1148" y="55" on="0"/>
        <pt x="934" y="-28" on="0"/>
        <pt x="806" y="-28" on="1"/>
        <pt x="636" y="-28" on="0"/>
        <pt x="401" y="61" on="0"/>
        <pt x="255" y="235" on="0"/>
        <pt x="191" y="492" on="0"/>
      </contour>
    </TTGlyph>
    <TTGlyph name="Ugrave" xMin="33" yMin="-28" xMax="1545" yMax="1920">
      <contour>
        <pt x="833" y="1607" on="1"/>
        <pt x="786" y="1615" on="0"/>
        <pt x="685" y="1646" on="0"/>
        <pt x="582" y="1688" on="0"/>
        <pt x="481" y="1741" on="0"/>
        <pt x="434" y="1771" on="1"/>
        <pt x="580" y="1920" on="1"/>
        <pt x="886" y="1661" on="1"/>
      </contour>
      <contour>
        <pt x="191" y="661" on="1"/>
        <pt x="191" y="856" on="0"/>
        <pt x="192" y="1242" on="0"/>
        <pt x="192" y="1437" on="1"/>
        <pt x="33" y="1455" on="1"/>
        <pt x="33" y="1553" on="1"/>
        <pt x="566" y="1553" on="1"/>
        <pt x="566" y="1455" on="1"/>
        <pt x="387" y="1436" on="1"/>
        <pt x="387" y="656" on="1"/>
        <pt x="387" y="487" on="0"/>
        <pt x="455" y="263" on="0"/>
        <pt x="576" y="130" on="0"/>
        <pt x="741" y="75" on="0"/>
        <pt x="839" y="75" on="1"/>
        <pt x="944" y="75" on="0"/>
        <pt x="1095" y="160" on="0"/>
        <pt x="1191" y="318" on="0"/>
        <pt x="1237" y="544" on="0"/>
        <pt x="1237" y="686" on="1"/>
        <pt x="1237" y="1436" on="1"/>
        <pt x="1055" y="1455" on="1"/>
        <pt x="1055" y="1553" on="1"/>
        <pt x="1545" y="1553" on="1"/>
        <pt x="1545" y="1455" on="1"/>
        <pt x="1387" y="1436" on="1"/>
        <pt x="1387" y="687" on="1"/>
        <pt x="1387" y="499" on="0"/>
        <pt x="1302" y="229" on="0"/>
        <pt x="1148" y="55" on="0"/>
        <pt x="934" y="-28" on="0"/>
        <pt x="806" y="-28" on="1"/>
        <pt x="636" y="-28" on="0"/>
        <pt x="401" y="61" on="0"/>
        <pt x="255" y="235" on="0"/>
        <pt x="191" y="492" on="0"/>
      </contour>
    </TTGlyph>
    <TTGlyph name="V" xMin="5" yMin="-20" xMax="1420" yMax="1553">
      <contour>
        <pt x="137" y="1439" on="1"/>
        <pt x="5" y="1455" on="1"/>
        <pt x="5" y="1553" on="1"/>
        <pt x="542" y="1553" on="1"/>
        <pt x="542" y="1455" on="1"/>
        <pt x="362" y="1437" on="1"/>
        <pt x="701" y="413" on="1"/>
        <pt x="770" y="195" on="1"/>
        <pt x="830" y="415" on="1"/>
        <pt x="1129" y="1438" on="1"/>
        <pt x="964" y="1455" on="1"/>
        <pt x="964" y="1552" on="1"/>
        <pt x="1420" y="1552" on="1"/>
        <pt x="1420" y="1455" on="1"/>
        <pt x="1299" y="1439" on="1"/>
        <pt x="813" y="-20" on="1"/>
        <pt x="663" y="-20" on="1"/>
      </contour>
    </TTGlyph>
    <TTGlyph name="W" xMin="5" yMin="-20" xMax="2096" yMax="1553">
      <contour>
        <pt x="135" y="1438" on="1"/>
        <pt x="5" y="1454" on="1"/>
        <pt x="5" y="1553" on="1"/>
        <pt x="540" y="1553" on="1"/>
        <pt x="540" y="1454" on="1"/>
        <pt x="351" y="1437" on="1"/>
        <pt x="664" y="408" on="1"/>
        <pt x="679" y="359" on="0"/>
        <pt x="709" y="263" on="0"/>
        <pt x="725" y="214" on="1"/>
        <pt x="787" y="396" on="1"/>
        <pt x="999" y="1258" on="1"/>
        <pt x="943" y="1438" on="1"/>
        <pt x="781" y="1454" on="1"/>
        <pt x="781" y="1553" on="1"/>
        <pt x="1326" y="1553" on="1"/>
        <pt x="1326" y="1454" on="1"/>
        <pt x="1152" y="1438" on="1"/>
        <pt x="1424" y="388" on="1"/>
        <pt x="1473" y="197" on="1"/>
        <pt x="1524" y="426" on="1"/>
        <pt x="1785" y="1438" on="1"/>
        <pt x="1612" y="1454" on="1"/>
        <pt x="1612" y="1553" on="1"/>
        <pt x="2096" y="1553" on="1"/>
        <pt x="2096" y="1454" on="1"/>
        <pt x="1948" y="1438" on="1"/>
        <pt x="1521" y="-20" on="1"/>
        <pt x="1360" y="-20" on="1"/>
        <pt x="1073" y="995" on="1"/>
        <pt x="789" y="-20" on="1"/>
        <pt x="625" y="-20" on="1"/>
      </contour>
    </TTGlyph>
    <TTGlyph name="X" xMin="15" yMin="0" xMax="1425" yMax="1553">
      <contour>
        <pt x="15" y="85" on="1"/>
        <pt x="192" y="114" on="1"/>
        <pt x="620" y="781" on="1"/>
        <pt x="200" y="1438" on="1"/>
        <pt x="51" y="1455" on="1"/>
        <pt x="51" y="1553" on="1"/>
        <pt x="612" y="1553" on="1"/>
        <pt x="612" y="1455" on="1"/>
        <pt x="435" y="1438" on="1"/>
        <pt x="748" y="899" on="1"/>
        <pt x="1057" y="1438" on="1"/>
        <pt x="903" y="1455" on="1"/>
        <pt x="903" y="1553" on="1"/>
        <pt x="1380" y="1553" on="1"/>
        <pt x="1380" y="1455" on="1"/>
        <pt x="1236" y="1439" on="1"/>
        <pt x="820" y="820" on="1"/>
        <pt x="1260" y="115" on="1"/>
        <pt x="1425" y="85" on="1"/>
        <pt x="1425" y="0" on="1"/>
        <pt x="850" y="0" on="1"/>
        <pt x="850" y="85" on="1"/>
        <pt x="1036" y="114" on="1"/>
        <pt x="686" y="683" on="1"/>
        <pt x="372" y="115" on="1"/>
        <pt x="564" y="85" on="1"/>
        <pt x="564" y="0" on="1"/>
        <pt x="15" y="0" on="1"/>
      </contour>
    </TTGlyph>
    <TTGlyph name="Y" xMin="12" yMin="0" xMax="1339" yMax="1553">
      <contour>
        <pt x="402" y="85" on="1"/>
        <pt x="606" y="116" on="1"/>
        <pt x="606" y="638" on="1"/>
        <pt x="126" y="1438" on="1"/>
        <pt x="12" y="1455" on="1"/>
        <pt x="12" y="1553" on="1"/>
        <pt x="504" y="1553" on="1"/>
        <pt x="504" y="1455" on="1"/>
        <pt x="350" y="1437" on="1"/>
        <pt x="668" y="845" on="1"/>
        <pt x="716" y="744" on="1"/>
        <pt x="761" y="847" on="1"/>
        <pt x="1049" y="1436" on="1"/>
        <pt x="879" y="1455" on="1"/>
        <pt x="879" y="1553" on="1"/>
        <pt x="1339" y="1553" on="1"/>
        <pt x="1339" y="1455" on="1"/>
        <pt x="1209" y="1428" on="1"/>
        <pt x="801" y="637" on="1"/>
        <pt x="801" y="116" on="1"/>
        <pt x="1015" y="85" on="1"/>
        <pt x="1015" y="0" on="1"/>
        <pt x="402" y="0" on="1"/>
      </contour>
    </TTGlyph>
    <TTGlyph name="Yacute" xMin="12" yMin="0" xMax="1339" yMax="1920">
      <contour>
        <pt x="648" y="1661" on="1"/>
        <pt x="954" y="1920" on="1"/>
        <pt x="1100" y="1771" on="1"/>
        <pt x="1053" y="1741" on="0"/>
        <pt x="952" y="1688" on="0"/>
        <pt x="849" y="1646" on="0"/>
        <pt x="747" y="1615" on="0"/>
        <pt x="701" y="1607" on="1"/>
      </contour>
      <contour>
        <pt x="402" y="85" on="1"/>
        <pt x="606" y="116" on="1"/>
        <pt x="606" y="638" on="1"/>
        <pt x="126" y="1438" on="1"/>
        <pt x="12" y="1455" on="1"/>
        <pt x="12" y="1553" on="1"/>
        <pt x="504" y="1553" on="1"/>
        <pt x="504" y="1455" on="1"/>
        <pt x="350" y="1437" on="1"/>
        <pt x="668" y="845" on="1"/>
        <pt x="716" y="744" on="1"/>
        <pt x="761" y="847" on="1"/>
        <pt x="1049" y="1436" on="1"/>
        <pt x="879" y="1455" on="1"/>
        <pt x="879" y="1553" on="1"/>
        <pt x="1339" y="1553" on="1"/>
        <pt x="1339" y="1455" on="1"/>
        <pt x="1209" y="1428" on="1"/>
        <pt x="801" y="637" on="1"/>
        <pt x="801" y="116" on="1"/>
        <pt x="1015" y="85" on="1"/>
        <pt x="1015" y="0" on="1"/>
        <pt x="402" y="0" on="1"/>
      </contour>
    </TTGlyph>
    <TTGlyph name="Ydieresis" xMin="12" yMin="0" xMax="1339" yMax="1920">
      <contour>
        <pt x="929" y="1651" on="1"/>
        <pt x="905" y="1651" on="0"/>
        <pt x="859" y="1668" on="0"/>
        <pt x="824" y="1699" on="0"/>
        <pt x="803" y="1745" on="0"/>
        <pt x="803" y="1774" on="1"/>
        <pt x="803" y="1805" on="0"/>
        <pt x="830" y="1859" on="0"/>
        <pt x="872" y="1898" on="0"/>
        <pt x="925" y="1920" on="0"/>
        <pt x="952" y="1920" on="1"/>
        <pt x="1018" y="1920" on="0"/>
        <pt x="1079" y="1847" on="0"/>
        <pt x="1079" y="1796" on="1"/>
        <pt x="1079" y="1763" on="0"/>
        <pt x="1053" y="1709" on="0"/>
        <pt x="1011" y="1672" on="0"/>
        <pt x="957" y="1651" on="0"/>
      </contour>
      <contour>
        <pt x="463" y="1651" on="1"/>
        <pt x="439" y="1651" on="0"/>
        <pt x="393" y="1668" on="0"/>
        <pt x="358" y="1699" on="0"/>
        <pt x="337" y="1745" on="0"/>
        <pt x="337" y="1774" on="1"/>
        <pt x="337" y="1805" on="0"/>
        <pt x="364" y="1859" on="0"/>
        <pt x="406" y="1898" on="0"/>
        <pt x="459" y="1920" on="0"/>
        <pt x="486" y="1920" on="1"/>
        <pt x="552" y="1920" on="0"/>
        <pt x="613" y="1847" on="0"/>
        <pt x="613" y="1796" on="1"/>
        <pt x="613" y="1763" on="0"/>
        <pt x="587" y="1709" on="0"/>
        <pt x="545" y="1672" on="0"/>
        <pt x="491" y="1651" on="0"/>
      </contour>
      <contour>
        <pt x="402" y="85" on="1"/>
        <pt x="606" y="116" on="1"/>
        <pt x="606" y="638" on="1"/>
        <pt x="126" y="1438" on="1"/>
        <pt x="12" y="1455" on="1"/>
        <pt x="12" y="1553" on="1"/>
        <pt x="504" y="1553" on="1"/>
        <pt x="504" y="1455" on="1"/>
        <pt x="350" y="1437" on="1"/>
        <pt x="668" y="845" on="1"/>
        <pt x="716" y="744" on="1"/>
        <pt x="761" y="847" on="1"/>
        <pt x="1049" y="1436" on="1"/>
        <pt x="879" y="1455" on="1"/>
        <pt x="879" y="1553" on="1"/>
        <pt x="1339" y="1553" on="1"/>
        <pt x="1339" y="1455" on="1"/>
        <pt x="1209" y="1428" on="1"/>
        <pt x="801" y="637" on="1"/>
        <pt x="801" y="116" on="1"/>
        <pt x="1015" y="85" on="1"/>
        <pt x="1015" y="0" on="1"/>
        <pt x="402" y="0" on="1"/>
      </contour>
    </TTGlyph>
    <TTGlyph name="Z" xMin="92" yMin="0" xMax="1300" yMax="1553">
      <contour>
        <pt x="92" y="89" on="1"/>
        <pt x="960" y="1324" on="1"/>
        <pt x="1063" y="1444" on="1"/>
        <pt x="351" y="1421" on="1"/>
        <pt x="256" y="1193" on="1"/>
        <pt x="149" y="1212" on="1"/>
        <pt x="181" y="1553" on="1"/>
        <pt x="1254" y="1553" on="1"/>
        <pt x="1282" y="1467" on="1"/>
        <pt x="419" y="232" on="1"/>
        <pt x="322" y="111" on="1"/>
        <pt x="1071" y="149" on="1"/>
        <pt x="1201" y="404" on="1"/>
        <pt x="1300" y="380" on="1"/>
        <pt x="1229" y="0" on="1"/>
        <pt x="118" y="0" on="1"/>
      </contour>
    </TTGlyph>
    <TTGlyph name="Zacute" xMin="92" yMin="0" xMax="1300" yMax="1920">
      <contour>
        <pt x="675" y="1661" on="1"/>
        <pt x="981" y="1920" on="1"/>
        <pt x="1127" y="1771" on="1"/>
        <pt x="1080" y="1741" on="0"/>
        <pt x="979" y="1688" on="0"/>
        <pt x="876" y="1646" on="0"/>
        <pt x="774" y="1615" on="0"/>
        <pt x="728" y="1607" on="1"/>
      </contour>
      <contour>
        <pt x="92" y="89" on="1"/>
        <pt x="960" y="1324" on="1"/>
        <pt x="1063" y="1444" on="1"/>
        <pt x="351" y="1421" on="1"/>
        <pt x="256" y="1193" on="1"/>
        <pt x="149" y="1212" on="1"/>
        <pt x="181" y="1553" on="1"/>
        <pt x="1254" y="1553" on="1"/>
        <pt x="1282" y="1467" on="1"/>
        <pt x="419" y="232" on="1"/>
        <pt x="322" y="111" on="1"/>
        <pt x="1071" y="149" on="1"/>
        <pt x="1201" y="404" on="1"/>
        <pt x="1300" y="380" on="1"/>
        <pt x="1229" y="0" on="1"/>
        <pt x="118" y="0" on="1"/>
      </contour>
    </TTGlyph>
    <TTGlyph name="Zcaron" xMin="92" yMin="0" xMax="1300" yMax="1920">
      <contour>
        <pt x="409" y="1871" on="1"/>
        <pt x="496" y="1920" on="1"/>
        <pt x="740" y="1752" on="1"/>
        <pt x="990" y="1920" on="1"/>
        <pt x="1068" y="1874" on="1"/>
        <pt x="835" y="1616" on="1"/>
        <pt x="646" y="1616" on="1"/>
      </contour>
      <contour>
        <pt x="92" y="89" on="1"/>
        <pt x="960" y="1324" on="1"/>
        <pt x="1063" y="1444" on="1"/>
        <pt x="351" y="1421" on="1"/>
        <pt x="256" y="1193" on="1"/>
        <pt x="149" y="1212" on="1"/>
        <pt x="181" y="1553" on="1"/>
        <pt x="1254" y="1553" on="1"/>
        <pt x="1282" y="1467" on="1"/>
        <pt x="419" y="232" on="1"/>
        <pt x="322" y="111" on="1"/>
        <pt x="1071" y="149" on="1"/>
        <pt x="1201" y="404" on="1"/>
        <pt x="1300" y="380" on="1"/>
        <pt x="1229" y="0" on="1"/>
        <pt x="118" y="0" on="1"/>
      </contour>
    </TTGlyph>
    <TTGlyph name="Zdotaccent" xMin="92" yMin="0" xMax="1300" yMax="1920">
      <contour>
        <pt x="722" y="1651" on="1"/>
        <pt x="698" y="1651" on="0"/>
        <pt x="652" y="1668" on="0"/>
        <pt x="617" y="1699" on="0"/>
        <pt x="596" y="1745" on="0"/>
        <pt x="596" y="1774" on="1"/>
        <pt x="596" y="1805" on="0"/>
        <pt x="623" y="1859" on="0"/>
        <pt x="665" y="1898" on="0"/>
        <pt x="718" y="1920" on="0"/>
        <pt x="745" y="1920" on="1"/>
        <pt x="811" y="1920" on="0"/>
        <pt x="872" y="1847" on="0"/>
        <pt x="872" y="1796" on="1"/>
        <pt x="872" y="1763" on="0"/>
        <pt x="846" y="1709" on="0"/>
        <pt x="804" y="1672" on="0"/>
        <pt x="750" y="1651" on="0"/>
      </contour>
      <contour>
        <pt x="92" y="89" on="1"/>
        <pt x="960" y="1324" on="1"/>
        <pt x="1063" y="1444" on="1"/>
        <pt x="351" y="1421" on="1"/>
        <pt x="256" y="1193" on="1"/>
        <pt x="149" y="1212" on="1"/>
        <pt x="181" y="1553" on="1"/>
        <pt x="1254" y="1553" on="1"/>
        <pt x="1282" y="1467" on="1"/>
        <pt x="419" y="232" on="1"/>
        <pt x="322" y="111" on="1"/>
        <pt x="1071" y="149" on="1"/>
        <pt x="1201" y="404" on="1"/>
        <pt x="1300" y="380" on="1"/>
        <pt x="1229" y="0" on="1"/>
        <pt x="118" y="0" on="1"/>
      </contour>
    </TTGlyph>
    <TTGlyph name="a" xMin="110" yMin="-24" xMax="1074" yMax="1139">
      <contour>
        <pt x="110" y="322" on="1"/>
        <pt x="117" y="392" on="0"/>
        <pt x="193" y="497" on="0"/>
        <pt x="305" y="573" on="0"/>
        <pt x="442" y="623" on="0"/>
        <pt x="580" y="653" on="0"/>
        <pt x="708" y="665" on="0"/>
        <pt x="755" y="665" on="1"/>
        <pt x="755" y="752" on="1"/>
        <pt x="755" y="831" on="0"/>
        <pt x="713" y="930" on="0"/>
        <pt x="639" y="986" on="0"/>
        <pt x="539" y="1006" on="0"/>
        <pt x="481" y="1006" on="1"/>
        <pt x="452" y="1006" on="0"/>
        <pt x="380" y="995" on="0"/>
        <pt x="303" y="975" on="0"/>
        <pt x="225" y="947" on="0"/>
        <pt x="190" y="930" on="1"/>
        <pt x="153" y="1020" on="1"/>
        <pt x="190" y="1050" on="0"/>
        <pt x="297" y="1095" on="0"/>
        <pt x="410" y="1125" on="0"/>
        <pt x="517" y="1139" on="0"/>
        <pt x="555" y="1139" on="1"/>
        <pt x="634" y="1139" on="0"/>
        <pt x="777" y="1106" on="0"/>
        <pt x="885" y="1023" on="0"/>
        <pt x="948" y="882" on="0"/>
        <pt x="948" y="773" on="1"/>
        <pt x="946" y="85" on="1"/>
        <pt x="1074" y="85" on="1"/>
        <pt x="1074" y="19" on="1"/>
        <pt x="1039" y="0" on="0"/>
        <pt x="936" y="-24" on="0"/>
        <pt x="884" y="-24" on="1"/>
        <pt x="866" y="-24" on="0"/>
        <pt x="824" y="-19" on="0"/>
        <pt x="789" y="1" on="0"/>
        <pt x="766" y="43" on="0"/>
        <pt x="766" y="80" on="1"/>
        <pt x="766" y="108" on="1"/>
        <pt x="743" y="80" on="0"/>
        <pt x="680" y="32" on="0"/>
        <pt x="599" y="-4" on="0"/>
        <pt x="496" y="-24" on="0"/>
        <pt x="433" y="-24" on="1"/>
        <pt x="355" y="-24" on="0"/>
        <pt x="228" y="32" on="0"/>
        <pt x="143" y="127" on="0"/>
        <pt x="102" y="252" on="0"/>
      </contour>
      <contour>
        <pt x="304" y="318" on="1"/>
        <pt x="304" y="259" on="0"/>
        <pt x="336" y="177" on="0"/>
        <pt x="397" y="126" on="0"/>
        <pt x="485" y="103" on="0"/>
        <pt x="540" y="103" on="1"/>
        <pt x="570" y="103" on="0"/>
        <pt x="632" y="119" on="0"/>
        <pt x="689" y="143" on="0"/>
        <pt x="738" y="174" on="0"/>
        <pt x="753" y="189" on="1"/>
        <pt x="753" y="283" on="0"/>
        <pt x="754" y="468" on="0"/>
        <pt x="755" y="562" on="1"/>
        <pt x="713" y="562" on="0"/>
        <pt x="613" y="553" on="0"/>
        <pt x="513" y="531" on="0"/>
        <pt x="419" y="495" on="0"/>
        <pt x="347" y="440" on="0"/>
        <pt x="304" y="366" on="0"/>
      </contour>
    </TTGlyph>
    <TTGlyph name="aacute" xMin="110" yMin="-24" xMax="1074" yMax="1780">
      <contour>
        <pt x="435" y="1394" on="1"/>
        <pt x="729" y="1780" on="1"/>
        <pt x="875" y="1631" on="1"/>
        <pt x="845" y="1585" on="0"/>
        <pt x="747" y="1497" on="0"/>
        <pt x="638" y="1420" on="0"/>
        <pt x="529" y="1359" on="0"/>
        <pt x="488" y="1340" on="1"/>
      </contour>
      <contour>
        <pt x="110" y="322" on="1"/>
        <pt x="117" y="392" on="0"/>
        <pt x="193" y="497" on="0"/>
        <pt x="305" y="573" on="0"/>
        <pt x="442" y="623" on="0"/>
        <pt x="580" y="653" on="0"/>
        <pt x="708" y="665" on="0"/>
        <pt x="755" y="665" on="1"/>
        <pt x="755" y="752" on="1"/>
        <pt x="755" y="831" on="0"/>
        <pt x="713" y="930" on="0"/>
        <pt x="639" y="986" on="0"/>
        <pt x="539" y="1006" on="0"/>
        <pt x="481" y="1006" on="1"/>
        <pt x="452" y="1006" on="0"/>
        <pt x="380" y="995" on="0"/>
        <pt x="303" y="975" on="0"/>
        <pt x="225" y="947" on="0"/>
        <pt x="190" y="930" on="1"/>
        <pt x="153" y="1020" on="1"/>
        <pt x="190" y="1050" on="0"/>
        <pt x="297" y="1095" on="0"/>
        <pt x="410" y="1125" on="0"/>
        <pt x="517" y="1139" on="0"/>
        <pt x="555" y="1139" on="1"/>
        <pt x="634" y="1139" on="0"/>
        <pt x="777" y="1106" on="0"/>
        <pt x="885" y="1023" on="0"/>
        <pt x="948" y="882" on="0"/>
        <pt x="948" y="773" on="1"/>
        <pt x="946" y="85" on="1"/>
        <pt x="1074" y="85" on="1"/>
        <pt x="1074" y="19" on="1"/>
        <pt x="1039" y="0" on="0"/>
        <pt x="936" y="-24" on="0"/>
        <pt x="884" y="-24" on="1"/>
        <pt x="866" y="-24" on="0"/>
        <pt x="824" y="-19" on="0"/>
        <pt x="789" y="1" on="0"/>
        <pt x="766" y="43" on="0"/>
        <pt x="766" y="80" on="1"/>
        <pt x="766" y="108" on="1"/>
        <pt x="743" y="80" on="0"/>
        <pt x="680" y="32" on="0"/>
        <pt x="599" y="-4" on="0"/>
        <pt x="496" y="-24" on="0"/>
        <pt x="433" y="-24" on="1"/>
        <pt x="355" y="-24" on="0"/>
        <pt x="228" y="32" on="0"/>
        <pt x="143" y="127" on="0"/>
        <pt x="102" y="252" on="0"/>
      </contour>
      <contour>
        <pt x="304" y="318" on="1"/>
        <pt x="304" y="259" on="0"/>
        <pt x="336" y="177" on="0"/>
        <pt x="397" y="126" on="0"/>
        <pt x="485" y="103" on="0"/>
        <pt x="540" y="103" on="1"/>
        <pt x="570" y="103" on="0"/>
        <pt x="632" y="119" on="0"/>
        <pt x="689" y="143" on="0"/>
        <pt x="738" y="174" on="0"/>
        <pt x="753" y="189" on="1"/>
        <pt x="753" y="283" on="0"/>
        <pt x="754" y="468" on="0"/>
        <pt x="755" y="562" on="1"/>
        <pt x="713" y="562" on="0"/>
        <pt x="613" y="553" on="0"/>
        <pt x="513" y="531" on="0"/>
        <pt x="419" y="495" on="0"/>
        <pt x="347" y="440" on="0"/>
        <pt x="304" y="366" on="0"/>
      </contour>
    </TTGlyph>
    <TTGlyph name="acircumflex" xMin="110" yMin="-24" xMax="1074" yMax="1775">
      <contour>
        <pt x="213" y="1381" on="1"/>
        <pt x="486" y="1775" on="1"/>
        <pt x="675" y="1775" on="1"/>
        <pt x="937" y="1382" on="1"/>
        <pt x="852" y="1336" on="1"/>
        <pt x="580" y="1603" on="1"/>
        <pt x="288" y="1335" on="1"/>
      </contour>
      <contour>
        <pt x="110" y="322" on="1"/>
        <pt x="117" y="392" on="0"/>
        <pt x="193" y="497" on="0"/>
        <pt x="305" y="573" on="0"/>
        <pt x="442" y="623" on="0"/>
        <pt x="580" y="653" on="0"/>
        <pt x="708" y="665" on="0"/>
        <pt x="755" y="665" on="1"/>
        <pt x="755" y="752" on="1"/>
        <pt x="755" y="831" on="0"/>
        <pt x="713" y="930" on="0"/>
        <pt x="639" y="986" on="0"/>
        <pt x="539" y="1006" on="0"/>
        <pt x="481" y="1006" on="1"/>
        <pt x="452" y="1006" on="0"/>
        <pt x="380" y="995" on="0"/>
        <pt x="303" y="975" on="0"/>
        <pt x="225" y="947" on="0"/>
        <pt x="190" y="930" on="1"/>
        <pt x="153" y="1020" on="1"/>
        <pt x="190" y="1050" on="0"/>
        <pt x="297" y="1095" on="0"/>
        <pt x="410" y="1125" on="0"/>
        <pt x="517" y="1139" on="0"/>
        <pt x="555" y="1139" on="1"/>
        <pt x="634" y="1139" on="0"/>
        <pt x="777" y="1106" on="0"/>
        <pt x="885" y="1023" on="0"/>
        <pt x="948" y="882" on="0"/>
        <pt x="948" y="773" on="1"/>
        <pt x="946" y="85" on="1"/>
        <pt x="1074" y="85" on="1"/>
        <pt x="1074" y="19" on="1"/>
        <pt x="1039" y="0" on="0"/>
        <pt x="936" y="-24" on="0"/>
        <pt x="884" y="-24" on="1"/>
        <pt x="866" y="-24" on="0"/>
        <pt x="824" y="-19" on="0"/>
        <pt x="789" y="1" on="0"/>
        <pt x="766" y="43" on="0"/>
        <pt x="766" y="80" on="1"/>
        <pt x="766" y="108" on="1"/>
        <pt x="743" y="80" on="0"/>
        <pt x="680" y="32" on="0"/>
        <pt x="599" y="-4" on="0"/>
        <pt x="496" y="-24" on="0"/>
        <pt x="433" y="-24" on="1"/>
        <pt x="355" y="-24" on="0"/>
        <pt x="228" y="32" on="0"/>
        <pt x="143" y="127" on="0"/>
        <pt x="102" y="252" on="0"/>
      </contour>
      <contour>
        <pt x="304" y="318" on="1"/>
        <pt x="304" y="259" on="0"/>
        <pt x="336" y="177" on="0"/>
        <pt x="397" y="126" on="0"/>
        <pt x="485" y="103" on="0"/>
        <pt x="540" y="103" on="1"/>
        <pt x="570" y="103" on="0"/>
        <pt x="632" y="119" on="0"/>
        <pt x="689" y="143" on="0"/>
        <pt x="738" y="174" on="0"/>
        <pt x="753" y="189" on="1"/>
        <pt x="753" y="283" on="0"/>
        <pt x="754" y="468" on="0"/>
        <pt x="755" y="562" on="1"/>
        <pt x="713" y="562" on="0"/>
        <pt x="613" y="553" on="0"/>
        <pt x="513" y="531" on="0"/>
        <pt x="419" y="495" on="0"/>
        <pt x="347" y="440" on="0"/>
        <pt x="304" y="366" on="0"/>
      </contour>
    </TTGlyph>
    <TTGlyph name="acute" xMin="222" yMin="1340" xMax="662" yMax="1780">
      <contour>
        <pt x="222" y="1394" on="1"/>
        <pt x="516" y="1780" on="1"/>
        <pt x="662" y="1631" on="1"/>
        <pt x="632" y="1585" on="0"/>
        <pt x="534" y="1497" on="0"/>
        <pt x="425" y="1420" on="0"/>
        <pt x="316" y="1359" on="0"/>
        <pt x="275" y="1340" on="1"/>
      </contour>
    </TTGlyph>
    <TTGlyph name="acute.cap" xMin="465" yMin="1607" xMax="917" yMax="1920">
      <contour>
        <pt x="465" y="1661" on="1"/>
        <pt x="771" y="1920" on="1"/>
        <pt x="917" y="1771" on="1"/>
        <pt x="870" y="1741" on="0"/>
        <pt x="769" y="1688" on="0"/>
        <pt x="666" y="1646" on="0"/>
        <pt x="564" y="1615" on="0"/>
        <pt x="518" y="1607" on="1"/>
      </contour>
    </TTGlyph>
    <TTGlyph name="adieresis" xMin="110" yMin="-24" xMax="1074" yMax="1646">
      <contour>
        <pt x="800" y="1382" on="1"/>
        <pt x="776" y="1382" on="0"/>
        <pt x="731" y="1398" on="0"/>
        <pt x="696" y="1428" on="0"/>
        <pt x="676" y="1473" on="0"/>
        <pt x="676" y="1502" on="1"/>
        <pt x="676" y="1533" on="0"/>
        <pt x="702" y="1586" on="0"/>
        <pt x="744" y="1624" on="0"/>
        <pt x="796" y="1646" on="0"/>
        <pt x="823" y="1646" on="1"/>
        <pt x="889" y="1646" on="0"/>
        <pt x="950" y="1575" on="0"/>
        <pt x="950" y="1524" on="1"/>
        <pt x="950" y="1491" on="0"/>
        <pt x="924" y="1438" on="0"/>
        <pt x="882" y="1402" on="0"/>
        <pt x="828" y="1382" on="0"/>
      </contour>
      <contour>
        <pt x="334" y="1382" on="1"/>
        <pt x="310" y="1382" on="0"/>
        <pt x="265" y="1398" on="0"/>
        <pt x="230" y="1428" on="0"/>
        <pt x="210" y="1473" on="0"/>
        <pt x="210" y="1502" on="1"/>
        <pt x="210" y="1533" on="0"/>
        <pt x="236" y="1586" on="0"/>
        <pt x="278" y="1624" on="0"/>
        <pt x="330" y="1646" on="0"/>
        <pt x="357" y="1646" on="1"/>
        <pt x="423" y="1646" on="0"/>
        <pt x="484" y="1575" on="0"/>
        <pt x="484" y="1524" on="1"/>
        <pt x="484" y="1491" on="0"/>
        <pt x="458" y="1438" on="0"/>
        <pt x="416" y="1402" on="0"/>
        <pt x="362" y="1382" on="0"/>
      </contour>
      <contour>
        <pt x="110" y="322" on="1"/>
        <pt x="117" y="392" on="0"/>
        <pt x="193" y="497" on="0"/>
        <pt x="305" y="573" on="0"/>
        <pt x="442" y="623" on="0"/>
        <pt x="580" y="653" on="0"/>
        <pt x="708" y="665" on="0"/>
        <pt x="755" y="665" on="1"/>
        <pt x="755" y="752" on="1"/>
        <pt x="755" y="831" on="0"/>
        <pt x="713" y="930" on="0"/>
        <pt x="639" y="986" on="0"/>
        <pt x="539" y="1006" on="0"/>
        <pt x="481" y="1006" on="1"/>
        <pt x="452" y="1006" on="0"/>
        <pt x="380" y="995" on="0"/>
        <pt x="303" y="975" on="0"/>
        <pt x="225" y="947" on="0"/>
        <pt x="190" y="930" on="1"/>
        <pt x="153" y="1020" on="1"/>
        <pt x="190" y="1050" on="0"/>
        <pt x="297" y="1095" on="0"/>
        <pt x="410" y="1125" on="0"/>
        <pt x="517" y="1139" on="0"/>
        <pt x="555" y="1139" on="1"/>
        <pt x="634" y="1139" on="0"/>
        <pt x="777" y="1106" on="0"/>
        <pt x="885" y="1023" on="0"/>
        <pt x="948" y="882" on="0"/>
        <pt x="948" y="773" on="1"/>
        <pt x="946" y="85" on="1"/>
        <pt x="1074" y="85" on="1"/>
        <pt x="1074" y="19" on="1"/>
        <pt x="1039" y="0" on="0"/>
        <pt x="936" y="-24" on="0"/>
        <pt x="884" y="-24" on="1"/>
        <pt x="866" y="-24" on="0"/>
        <pt x="824" y="-19" on="0"/>
        <pt x="789" y="1" on="0"/>
        <pt x="766" y="43" on="0"/>
        <pt x="766" y="80" on="1"/>
        <pt x="766" y="108" on="1"/>
        <pt x="743" y="80" on="0"/>
        <pt x="680" y="32" on="0"/>
        <pt x="599" y="-4" on="0"/>
        <pt x="496" y="-24" on="0"/>
        <pt x="433" y="-24" on="1"/>
        <pt x="355" y="-24" on="0"/>
        <pt x="228" y="32" on="0"/>
        <pt x="143" y="127" on="0"/>
        <pt x="102" y="252" on="0"/>
      </contour>
      <contour>
        <pt x="304" y="318" on="1"/>
        <pt x="304" y="259" on="0"/>
        <pt x="336" y="177" on="0"/>
        <pt x="397" y="126" on="0"/>
        <pt x="485" y="103" on="0"/>
        <pt x="540" y="103" on="1"/>
        <pt x="570" y="103" on="0"/>
        <pt x="632" y="119" on="0"/>
        <pt x="689" y="143" on="0"/>
        <pt x="738" y="174" on="0"/>
        <pt x="753" y="189" on="1"/>
        <pt x="753" y="283" on="0"/>
        <pt x="754" y="468" on="0"/>
        <pt x="755" y="562" on="1"/>
        <pt x="713" y="562" on="0"/>
        <pt x="613" y="553" on="0"/>
        <pt x="513" y="531" on="0"/>
        <pt x="419" y="495" on="0"/>
        <pt x="347" y="440" on="0"/>
        <pt x="304" y="366" on="0"/>
      </contour>
    </TTGlyph>
    <TTGlyph name="ae" xMin="110" yMin="-24" xMax="1699" yMax="1152">
      <contour>
        <pt x="110" y="322" on="1"/>
        <pt x="117" y="392" on="0"/>
        <pt x="193" y="497" on="0"/>
        <pt x="305" y="573" on="0"/>
        <pt x="442" y="623" on="0"/>
        <pt x="580" y="653" on="0"/>
        <pt x="708" y="665" on="0"/>
        <pt x="755" y="665" on="1"/>
        <pt x="755" y="752" on="1"/>
        <pt x="755" y="831" on="0"/>
        <pt x="713" y="930" on="0"/>
        <pt x="639" y="986" on="0"/>
        <pt x="539" y="1006" on="0"/>
        <pt x="481" y="1006" on="1"/>
        <pt x="452" y="1006" on="0"/>
        <pt x="380" y="995" on="0"/>
        <pt x="303" y="975" on="0"/>
        <pt x="225" y="947" on="0"/>
        <pt x="190" y="930" on="1"/>
        <pt x="153" y="1020" on="1"/>
        <pt x="190" y="1050" on="0"/>
        <pt x="297" y="1095" on="0"/>
        <pt x="410" y="1125" on="0"/>
        <pt x="517" y="1139" on="0"/>
        <pt x="555" y="1139" on="1"/>
        <pt x="611" y="1139" on="0"/>
        <pt x="716" y="1123" on="0"/>
        <pt x="807" y="1086" on="0"/>
        <pt x="880" y="1023" on="0"/>
        <pt x="905" y="976" on="1"/>
        <pt x="979" y="1057" on="0"/>
        <pt x="1183" y="1149" on="0"/>
        <pt x="1308" y="1152" on="1"/>
        <pt x="1396" y="1154" on="0"/>
        <pt x="1538" y="1099" on="0"/>
        <pt x="1638" y="991" on="0"/>
        <pt x="1695" y="835" on="0"/>
        <pt x="1699" y="736" on="1"/>
        <pt x="1701" y="673" on="0"/>
        <pt x="1692" y="581" on="0"/>
        <pt x="1687" y="545" on="1"/>
        <pt x="947" y="545" on="1"/>
        <pt x="949" y="415" on="0"/>
        <pt x="1022" y="247" on="0"/>
        <pt x="1135" y="150" on="0"/>
        <pt x="1270" y="113" on="0"/>
        <pt x="1334" y="113" on="1"/>
        <pt x="1373" y="113" on="0"/>
        <pt x="1462" y="122" on="0"/>
        <pt x="1547" y="139" on="0"/>
        <pt x="1619" y="161" on="0"/>
        <pt x="1640" y="173" on="1"/>
        <pt x="1677" y="88" on="1"/>
        <pt x="1648" y="62" on="0"/>
        <pt x="1552" y="20" on="0"/>
        <pt x="1438" y="-9" on="0"/>
        <pt x="1315" y="-24" on="0"/>
        <pt x="1258" y="-24" on="1"/>
        <pt x="1125" y="-24" on="0"/>
        <pt x="929" y="72" on="0"/>
        <pt x="865" y="160" on="1"/>
        <pt x="836" y="120" on="0"/>
        <pt x="748" y="53" on="0"/>
        <pt x="637" y="4" on="0"/>
        <pt x="506" y="-24" on="0"/>
        <pt x="433" y="-24" on="1"/>
        <pt x="355" y="-24" on="0"/>
        <pt x="228" y="32" on="0"/>
        <pt x="143" y="127" on="0"/>
        <pt x="102" y="252" on="0"/>
      </contour>
      <contour>
        <pt x="1495" y="663" on="1"/>
        <pt x="1498" y="714" on="0"/>
        <pt x="1495" y="817" on="0"/>
        <pt x="1473" y="910" on="0"/>
        <pt x="1428" y="987" on="0"/>
        <pt x="1390" y="1011" on="1"/>
        <pt x="1364" y="1028" on="0"/>
        <pt x="1298" y="1045" on="0"/>
        <pt x="1256" y="1045" on="1"/>
        <pt x="1200" y="1045" on="0"/>
        <pt x="1095" y="1003" on="0"/>
        <pt x="1012" y="911" on="0"/>
        <pt x="956" y="766" on="0"/>
        <pt x="948" y="663" on="1"/>
      </contour>
      <contour>
        <pt x="304" y="318" on="1"/>
        <pt x="304" y="259" on="0"/>
        <pt x="336" y="177" on="0"/>
        <pt x="397" y="126" on="0"/>
        <pt x="485" y="103" on="0"/>
        <pt x="540" y="103" on="1"/>
        <pt x="570" y="103" on="0"/>
        <pt x="632" y="119" on="0"/>
        <pt x="689" y="143" on="0"/>
        <pt x="738" y="174" on="0"/>
        <pt x="753" y="189" on="1"/>
        <pt x="753" y="283" on="0"/>
        <pt x="754" y="468" on="0"/>
        <pt x="755" y="562" on="1"/>
        <pt x="713" y="562" on="0"/>
        <pt x="613" y="553" on="0"/>
        <pt x="513" y="531" on="0"/>
        <pt x="419" y="495" on="0"/>
        <pt x="347" y="440" on="0"/>
        <pt x="304" y="366" on="0"/>
      </contour>
    </TTGlyph>
    <TTGlyph name="agrave" xMin="110" yMin="-24" xMax="1074" yMax="1780">
      <contour>
        <pt x="704" y="1340" on="1"/>
        <pt x="663" y="1359" on="0"/>
        <pt x="554" y="1420" on="0"/>
        <pt x="445" y="1497" on="0"/>
        <pt x="347" y="1585" on="0"/>
        <pt x="317" y="1631" on="1"/>
        <pt x="463" y="1780" on="1"/>
        <pt x="757" y="1394" on="1"/>
      </contour>
      <contour>
        <pt x="110" y="322" on="1"/>
        <pt x="117" y="392" on="0"/>
        <pt x="193" y="497" on="0"/>
        <pt x="305" y="573" on="0"/>
        <pt x="442" y="623" on="0"/>
        <pt x="580" y="653" on="0"/>
        <pt x="708" y="665" on="0"/>
        <pt x="755" y="665" on="1"/>
        <pt x="755" y="752" on="1"/>
        <pt x="755" y="831" on="0"/>
        <pt x="713" y="930" on="0"/>
        <pt x="639" y="986" on="0"/>
        <pt x="539" y="1006" on="0"/>
        <pt x="481" y="1006" on="1"/>
        <pt x="452" y="1006" on="0"/>
        <pt x="380" y="995" on="0"/>
        <pt x="303" y="975" on="0"/>
        <pt x="225" y="947" on="0"/>
        <pt x="190" y="930" on="1"/>
        <pt x="153" y="1020" on="1"/>
        <pt x="190" y="1050" on="0"/>
        <pt x="297" y="1095" on="0"/>
        <pt x="410" y="1125" on="0"/>
        <pt x="517" y="1139" on="0"/>
        <pt x="555" y="1139" on="1"/>
        <pt x="634" y="1139" on="0"/>
        <pt x="777" y="1106" on="0"/>
        <pt x="885" y="1023" on="0"/>
        <pt x="948" y="882" on="0"/>
        <pt x="948" y="773" on="1"/>
        <pt x="946" y="85" on="1"/>
        <pt x="1074" y="85" on="1"/>
        <pt x="1074" y="19" on="1"/>
        <pt x="1039" y="0" on="0"/>
        <pt x="936" y="-24" on="0"/>
        <pt x="884" y="-24" on="1"/>
        <pt x="866" y="-24" on="0"/>
        <pt x="824" y="-19" on="0"/>
        <pt x="789" y="1" on="0"/>
        <pt x="766" y="43" on="0"/>
        <pt x="766" y="80" on="1"/>
        <pt x="766" y="108" on="1"/>
        <pt x="743" y="80" on="0"/>
        <pt x="680" y="32" on="0"/>
        <pt x="599" y="-4" on="0"/>
        <pt x="496" y="-24" on="0"/>
        <pt x="433" y="-24" on="1"/>
        <pt x="355" y="-24" on="0"/>
        <pt x="228" y="32" on="0"/>
        <pt x="143" y="127" on="0"/>
        <pt x="102" y="252" on="0"/>
      </contour>
      <contour>
        <pt x="304" y="318" on="1"/>
        <pt x="304" y="259" on="0"/>
        <pt x="336" y="177" on="0"/>
        <pt x="397" y="126" on="0"/>
        <pt x="485" y="103" on="0"/>
        <pt x="540" y="103" on="1"/>
        <pt x="570" y="103" on="0"/>
        <pt x="632" y="119" on="0"/>
        <pt x="689" y="143" on="0"/>
        <pt x="738" y="174" on="0"/>
        <pt x="753" y="189" on="1"/>
        <pt x="753" y="283" on="0"/>
        <pt x="754" y="468" on="0"/>
        <pt x="755" y="562" on="1"/>
        <pt x="713" y="562" on="0"/>
        <pt x="613" y="553" on="0"/>
        <pt x="513" y="531" on="0"/>
        <pt x="419" y="495" on="0"/>
        <pt x="347" y="440" on="0"/>
        <pt x="304" y="366" on="0"/>
      </contour>
    </TTGlyph>
    <TTGlyph name="ampersand" xMin="187" yMin="-32" xMax="1479" yMax="1564">
      <contour>
        <pt x="187" y="368" on="1"/>
        <pt x="187" y="439" on="0"/>
        <pt x="234" y="557" on="0"/>
        <pt x="318" y="656" on="0"/>
        <pt x="435" y="739" on="0"/>
        <pt x="505" y="776" on="1"/>
        <pt x="474" y="820" on="0"/>
        <pt x="411" y="914" on="0"/>
        <pt x="361" y="1014" on="0"/>
        <pt x="329" y="1122" on="0"/>
        <pt x="329" y="1180" on="1"/>
        <pt x="329" y="1272" on="0"/>
        <pt x="388" y="1415" on="0"/>
        <pt x="492" y="1513" on="0"/>
        <pt x="632" y="1564" on="0"/>
        <pt x="712" y="1564" on="1"/>
        <pt x="802" y="1564" on="0"/>
        <pt x="930" y="1509" on="0"/>
        <pt x="1013" y="1416" on="0"/>
        <pt x="1052" y="1296" on="0"/>
        <pt x="1052" y="1231" on="1"/>
        <pt x="1052" y="1156" on="0"/>
        <pt x="993" y="1022" on="0"/>
        <pt x="899" y="908" on="0"/>
        <pt x="783" y="815" on="0"/>
        <pt x="727" y="779" on="1"/>
        <pt x="750" y="749" on="0"/>
        <pt x="816" y="669" on="0"/>
        <pt x="891" y="580" on="0"/>
        <pt x="971" y="488" on="0"/>
        <pt x="1048" y="402" on="0"/>
        <pt x="1117" y="328" on="0"/>
        <pt x="1144" y="303" on="1"/>
        <pt x="1154" y="328" on="0"/>
        <pt x="1164" y="381" on="0"/>
        <pt x="1169" y="432" on="0"/>
        <pt x="1169" y="479" on="0"/>
        <pt x="1169" y="499" on="1"/>
        <pt x="1169" y="551" on="0"/>
        <pt x="1160" y="634" on="0"/>
        <pt x="1148" y="695" on="0"/>
        <pt x="1135" y="732" on="0"/>
        <pt x="1131" y="738" on="1"/>
        <pt x="1316" y="738" on="1"/>
        <pt x="1327" y="700" on="0"/>
        <pt x="1345" y="604" on="0"/>
        <pt x="1345" y="543" on="1"/>
        <pt x="1345" y="505" on="0"/>
        <pt x="1336" y="420" on="0"/>
        <pt x="1315" y="333" on="0"/>
        <pt x="1280" y="248" on="0"/>
        <pt x="1253" y="210" on="1"/>
        <pt x="1313" y="165" on="0"/>
        <pt x="1425" y="109" on="0"/>
        <pt x="1479" y="101" on="1"/>
        <pt x="1479" y="16" on="1"/>
        <pt x="1415" y="-4" on="0"/>
        <pt x="1336" y="10" on="1"/>
        <pt x="1288" y="18" on="0"/>
        <pt x="1187" y="58" on="0"/>
        <pt x="1133" y="93" on="1"/>
        <pt x="1096" y="61" on="0"/>
        <pt x="1001" y="15" on="0"/>
        <pt x="899" y="-17" on="0"/>
        <pt x="794" y="-32" on="0"/>
        <pt x="746" y="-32" on="1"/>
        <pt x="693" y="-32" on="0"/>
        <pt x="570" y="-19" on="0"/>
        <pt x="446" y="15" on="0"/>
        <pt x="330" y="72" on="0"/>
        <pt x="241" y="161" on="0"/>
        <pt x="187" y="285" on="0"/>
      </contour>
      <contour>
        <pt x="664" y="857" on="1"/>
        <pt x="713" y="883" on="0"/>
        <pt x="795" y="951" on="0"/>
        <pt x="855" y="1036" on="0"/>
        <pt x="888" y="1139" on="0"/>
        <pt x="888" y="1201" on="1"/>
        <pt x="888" y="1240" on="0"/>
        <pt x="872" y="1332" on="0"/>
        <pt x="828" y="1411" on="0"/>
        <pt x="751" y="1465" on="0"/>
        <pt x="691" y="1465" on="1"/>
        <pt x="661" y="1465" on="0"/>
        <pt x="593" y="1443" on="0"/>
        <pt x="536" y="1392" on="0"/>
        <pt x="498" y="1308" on="0"/>
        <pt x="498" y="1245" on="1"/>
        <pt x="498" y="1175" on="0"/>
        <pt x="531" y="1058" on="0"/>
        <pt x="581" y="962" on="0"/>
        <pt x="639" y="886" on="0"/>
      </contour>
      <contour>
        <pt x="369" y="394" on="1"/>
        <pt x="369" y="320" on="0"/>
        <pt x="431" y="206" on="0"/>
        <pt x="536" y="128" on="0"/>
        <pt x="676" y="87" on="0"/>
        <pt x="755" y="87" on="1"/>
        <pt x="798" y="87" on="0"/>
        <pt x="880" y="94" on="0"/>
        <pt x="952" y="111" on="0"/>
        <pt x="1015" y="141" on="0"/>
        <pt x="1040" y="164" on="1"/>
        <pt x="1005" y="194" on="0"/>
        <pt x="921" y="276" on="0"/>
        <pt x="832" y="369" on="0"/>
        <pt x="742" y="469" on="0"/>
        <pt x="659" y="567" on="0"/>
        <pt x="588" y="656" on="0"/>
        <pt x="562" y="693" on="1"/>
        <pt x="514" y="661" on="0"/>
        <pt x="441" y="601" on="0"/>
        <pt x="393" y="532" on="0"/>
        <pt x="369" y="449" on="0"/>
      </contour>
    </TTGlyph>
    <TTGlyph name="aogonek" xMin="110" yMin="-514" xMax="1090" yMax="1139">
      <contour>
        <pt x="110" y="322" on="1"/>
        <pt x="117" y="392" on="0"/>
        <pt x="193" y="497" on="0"/>
        <pt x="305" y="573" on="0"/>
        <pt x="442" y="623" on="0"/>
        <pt x="580" y="653" on="0"/>
        <pt x="708" y="665" on="0"/>
        <pt x="755" y="665" on="1"/>
        <pt x="755" y="752" on="1"/>
        <pt x="755" y="831" on="0"/>
        <pt x="713" y="930" on="0"/>
        <pt x="639" y="986" on="0"/>
        <pt x="539" y="1006" on="0"/>
        <pt x="481" y="1006" on="1"/>
        <pt x="452" y="1006" on="0"/>
        <pt x="380" y="995" on="0"/>
        <pt x="303" y="975" on="0"/>
        <pt x="225" y="947" on="0"/>
        <pt x="190" y="930" on="1"/>
        <pt x="153" y="1020" on="1"/>
        <pt x="190" y="1050" on="0"/>
        <pt x="297" y="1095" on="0"/>
        <pt x="410" y="1125" on="0"/>
        <pt x="517" y="1139" on="0"/>
        <pt x="555" y="1139" on="1"/>
        <pt x="634" y="1139" on="0"/>
        <pt x="777" y="1106" on="0"/>
        <pt x="885" y="1023" on="0"/>
        <pt x="948" y="882" on="0"/>
        <pt x="948" y="773" on="1"/>
        <pt x="946" y="85" on="1"/>
        <pt x="1074" y="85" on="1"/>
        <pt x="1074" y="19" on="1"/>
        <pt x="1068" y="15" on="0"/>
        <pt x="1064" y="14" on="1"/>
        <pt x="1090" y="19" on="1"/>
        <pt x="1034" y="-9" on="0"/>
        <pt x="934" y="-79" on="0"/>
        <pt x="858" y="-156" on="0"/>
        <pt x="814" y="-232" on="0"/>
        <pt x="814" y="-266" on="1"/>
        <pt x="814" y="-324" on="0"/>
        <pt x="868" y="-380" on="0"/>
        <pt x="951" y="-394" on="0"/>
        <pt x="1047" y="-375" on="0"/>
        <pt x="1089" y="-358" on="1"/>
        <pt x="1089" y="-446" on="1"/>
        <pt x="1055" y="-472" on="0"/>
        <pt x="961" y="-507" on="0"/>
        <pt x="859" y="-520" on="0"/>
        <pt x="760" y="-507" on="0"/>
        <pt x="681" y="-462" on="0"/>
        <pt x="632" y="-383" on="0"/>
        <pt x="632" y="-323" on="1"/>
        <pt x="632" y="-281" on="0"/>
        <pt x="674" y="-192" on="0"/>
        <pt x="742" y="-110" on="0"/>
        <pt x="829" y="-44" on="0"/>
        <pt x="873" y="-24" on="1"/>
        <pt x="855" y="-24" on="0"/>
        <pt x="817" y="-17" on="0"/>
        <pt x="786" y="5" on="0"/>
        <pt x="766" y="45" on="0"/>
        <pt x="766" y="80" on="1"/>
        <pt x="766" y="108" on="1"/>
        <pt x="743" y="80" on="0"/>
        <pt x="680" y="32" on="0"/>
        <pt x="599" y="-4" on="0"/>
        <pt x="496" y="-24" on="0"/>
        <pt x="433" y="-24" on="1"/>
        <pt x="355" y="-24" on="0"/>
        <pt x="228" y="32" on="0"/>
        <pt x="143" y="127" on="0"/>
        <pt x="102" y="252" on="0"/>
      </contour>
      <contour>
        <pt x="304" y="318" on="1"/>
        <pt x="304" y="259" on="0"/>
        <pt x="336" y="177" on="0"/>
        <pt x="397" y="126" on="0"/>
        <pt x="485" y="103" on="0"/>
        <pt x="540" y="103" on="1"/>
        <pt x="570" y="103" on="0"/>
        <pt x="632" y="119" on="0"/>
        <pt x="689" y="143" on="0"/>
        <pt x="738" y="174" on="0"/>
        <pt x="753" y="189" on="1"/>
        <pt x="753" y="283" on="0"/>
        <pt x="754" y="468" on="0"/>
        <pt x="755" y="562" on="1"/>
        <pt x="713" y="562" on="0"/>
        <pt x="613" y="553" on="0"/>
        <pt x="513" y="531" on="0"/>
        <pt x="419" y="495" on="0"/>
        <pt x="347" y="440" on="0"/>
        <pt x="304" y="366" on="0"/>
      </contour>
    </TTGlyph>
    <TTGlyph name="approxequal" xMin="150" yMin="439" xMax="1122" yMax="1173">
      <contour>
        <pt x="150" y="983" on="1"/>
        <pt x="172" y="1021" on="0"/>
        <pt x="244" y="1090" on="0"/>
        <pt x="334" y="1142" on="0"/>
        <pt x="437" y="1173" on="0"/>
        <pt x="492" y="1173" on="1"/>
        <pt x="531" y="1173" on="0"/>
        <pt x="595" y="1148" on="0"/>
        <pt x="649" y="1111" on="0"/>
        <pt x="697" y="1068" on="0"/>
        <pt x="745" y="1031" on="0"/>
        <pt x="795" y="1006" on="0"/>
        <pt x="824" y="1006" on="1"/>
        <pt x="858" y="1006" on="0"/>
        <pt x="920" y="1026" on="0"/>
        <pt x="973" y="1056" on="0"/>
        <pt x="1018" y="1092" on="0"/>
        <pt x="1036" y="1109" on="1"/>
        <pt x="1108" y="1020" on="1"/>
        <pt x="1085" y="982" on="0"/>
        <pt x="1014" y="913" on="0"/>
        <pt x="924" y="860" on="0"/>
        <pt x="821" y="829" on="0"/>
        <pt x="766" y="829" on="1"/>
        <pt x="727" y="829" on="0"/>
        <pt x="663" y="854" on="0"/>
        <pt x="609" y="891" on="0"/>
        <pt x="561" y="935" on="0"/>
        <pt x="514" y="972" on="0"/>
        <pt x="463" y="997" on="0"/>
        <pt x="434" y="997" on="1"/>
        <pt x="399" y="997" on="0"/>
        <pt x="338" y="977" on="0"/>
        <pt x="285" y="947" on="0"/>
        <pt x="240" y="910" on="0"/>
        <pt x="222" y="894" on="1"/>
      </contour>
      <contour>
        <pt x="164" y="593" on="1"/>
        <pt x="186" y="631" on="0"/>
        <pt x="258" y="700" on="0"/>
        <pt x="348" y="752" on="0"/>
        <pt x="451" y="783" on="0"/>
        <pt x="506" y="783" on="1"/>
        <pt x="545" y="783" on="0"/>
        <pt x="609" y="758" on="0"/>
        <pt x="663" y="721" on="0"/>
        <pt x="711" y="678" on="0"/>
        <pt x="759" y="641" on="0"/>
        <pt x="809" y="616" on="0"/>
        <pt x="838" y="616" on="1"/>
        <pt x="872" y="616" on="0"/>
        <pt x="934" y="636" on="0"/>
        <pt x="987" y="666" on="0"/>
        <pt x="1032" y="702" on="0"/>
        <pt x="1050" y="719" on="1"/>
        <pt x="1122" y="630" on="1"/>
        <pt x="1099" y="592" on="0"/>
        <pt x="1028" y="523" on="0"/>
        <pt x="938" y="470" on="0"/>
        <pt x="835" y="439" on="0"/>
        <pt x="780" y="439" on="1"/>
        <pt x="741" y="439" on="0"/>
        <pt x="677" y="464" on="0"/>
        <pt x="623" y="501" on="0"/>
        <pt x="575" y="545" on="0"/>
        <pt x="528" y="582" on="0"/>
        <pt x="477" y="607" on="0"/>
        <pt x="448" y="607" on="1"/>
        <pt x="413" y="607" on="0"/>
        <pt x="352" y="587" on="0"/>
        <pt x="299" y="557" on="0"/>
        <pt x="254" y="520" on="0"/>
        <pt x="236" y="504" on="1"/>
      </contour>
    </TTGlyph>
    <TTGlyph name="aring" xMin="110" yMin="-24" xMax="1074" yMax="1802">
      <contour>
        <pt x="548" y="1320" on="1"/>
        <pt x="496" y="1320" on="0"/>
        <pt x="405" y="1358" on="0"/>
        <pt x="336" y="1423" on="0"/>
        <pt x="296" y="1511" on="0"/>
        <pt x="296" y="1561" on="1"/>
        <pt x="296" y="1611" on="0"/>
        <pt x="336" y="1699" on="0"/>
        <pt x="405" y="1764" on="0"/>
        <pt x="496" y="1802" on="0"/>
        <pt x="548" y="1802" on="1"/>
        <pt x="600" y="1802" on="0"/>
        <pt x="691" y="1764" on="0"/>
        <pt x="760" y="1699" on="0"/>
        <pt x="800" y="1611" on="0"/>
        <pt x="800" y="1561" on="1"/>
        <pt x="800" y="1511" on="0"/>
        <pt x="760" y="1423" on="0"/>
        <pt x="691" y="1358" on="0"/>
        <pt x="600" y="1320" on="0"/>
      </contour>
      <contour>
        <pt x="548" y="1426" on="1"/>
        <pt x="575" y="1426" on="0"/>
        <pt x="624" y="1447" on="0"/>
        <pt x="660" y="1483" on="0"/>
        <pt x="681" y="1531" on="0"/>
        <pt x="681" y="1559" on="1"/>
        <pt x="681" y="1586" on="0"/>
        <pt x="660" y="1634" on="0"/>
        <pt x="624" y="1670" on="0"/>
        <pt x="575" y="1691" on="0"/>
        <pt x="548" y="1691" on="1"/>
        <pt x="521" y="1691" on="0"/>
        <pt x="472" y="1670" on="0"/>
        <pt x="436" y="1634" on="0"/>
        <pt x="415" y="1586" on="0"/>
        <pt x="415" y="1559" on="1"/>
        <pt x="415" y="1531" on="0"/>
        <pt x="436" y="1483" on="0"/>
        <pt x="472" y="1447" on="0"/>
        <pt x="521" y="1426" on="0"/>
      </contour>
      <contour>
        <pt x="110" y="322" on="1"/>
        <pt x="117" y="392" on="0"/>
        <pt x="193" y="497" on="0"/>
        <pt x="305" y="573" on="0"/>
        <pt x="442" y="623" on="0"/>
        <pt x="580" y="653" on="0"/>
        <pt x="708" y="665" on="0"/>
        <pt x="755" y="665" on="1"/>
        <pt x="755" y="752" on="1"/>
        <pt x="755" y="831" on="0"/>
        <pt x="713" y="930" on="0"/>
        <pt x="639" y="986" on="0"/>
        <pt x="539" y="1006" on="0"/>
        <pt x="481" y="1006" on="1"/>
        <pt x="452" y="1006" on="0"/>
        <pt x="380" y="995" on="0"/>
        <pt x="303" y="975" on="0"/>
        <pt x="225" y="947" on="0"/>
        <pt x="190" y="930" on="1"/>
        <pt x="153" y="1020" on="1"/>
        <pt x="190" y="1050" on="0"/>
        <pt x="297" y="1095" on="0"/>
        <pt x="410" y="1125" on="0"/>
        <pt x="517" y="1139" on="0"/>
        <pt x="555" y="1139" on="1"/>
        <pt x="634" y="1139" on="0"/>
        <pt x="777" y="1106" on="0"/>
        <pt x="885" y="1023" on="0"/>
        <pt x="948" y="882" on="0"/>
        <pt x="948" y="773" on="1"/>
        <pt x="946" y="85" on="1"/>
        <pt x="1074" y="85" on="1"/>
        <pt x="1074" y="19" on="1"/>
        <pt x="1039" y="0" on="0"/>
        <pt x="936" y="-24" on="0"/>
        <pt x="884" y="-24" on="1"/>
        <pt x="866" y="-24" on="0"/>
        <pt x="824" y="-19" on="0"/>
        <pt x="789" y="1" on="0"/>
        <pt x="766" y="43" on="0"/>
        <pt x="766" y="80" on="1"/>
        <pt x="766" y="108" on="1"/>
        <pt x="743" y="80" on="0"/>
        <pt x="680" y="32" on="0"/>
        <pt x="599" y="-4" on="0"/>
        <pt x="496" y="-24" on="0"/>
        <pt x="433" y="-24" on="1"/>
        <pt x="355" y="-24" on="0"/>
        <pt x="228" y="32" on="0"/>
        <pt x="143" y="127" on="0"/>
        <pt x="102" y="252" on="0"/>
      </contour>
      <contour>
        <pt x="304" y="318" on="1"/>
        <pt x="304" y="259" on="0"/>
        <pt x="336" y="177" on="0"/>
        <pt x="397" y="126" on="0"/>
        <pt x="485" y="103" on="0"/>
        <pt x="540" y="103" on="1"/>
        <pt x="570" y="103" on="0"/>
        <pt x="632" y="119" on="0"/>
        <pt x="689" y="143" on="0"/>
        <pt x="738" y="174" on="0"/>
        <pt x="753" y="189" on="1"/>
        <pt x="753" y="283" on="0"/>
        <pt x="754" y="468" on="0"/>
        <pt x="755" y="562" on="1"/>
        <pt x="713" y="562" on="0"/>
        <pt x="613" y="553" on="0"/>
        <pt x="513" y="531" on="0"/>
        <pt x="419" y="495" on="0"/>
        <pt x="347" y="440" on="0"/>
        <pt x="304" y="366" on="0"/>
      </contour>
    </TTGlyph>
    <TTGlyph name="asciicircum" xMin="178" yMin="563" xMax="1142" yMax="1531">
      <contour>
        <pt x="561" y="1531" on="1"/>
        <pt x="758" y="1531" on="1"/>
        <pt x="1142" y="564" on="1"/>
        <pt x="1098" y="564" on="0"/>
        <pt x="1011" y="563" on="0"/>
        <pt x="967" y="563" on="1"/>
        <pt x="650" y="1326" on="1"/>
        <pt x="333" y="563" on="1"/>
        <pt x="294" y="563" on="0"/>
        <pt x="217" y="564" on="0"/>
        <pt x="178" y="564" on="1"/>
      </contour>
    </TTGlyph>
    <TTGlyph name="asciitilde" xMin="149" yMin="714" xMax="1107" yMax="1058">
      <contour>
        <pt x="149" y="868" on="1"/>
        <pt x="171" y="906" on="0"/>
        <pt x="243" y="975" on="0"/>
        <pt x="333" y="1027" on="0"/>
        <pt x="436" y="1058" on="0"/>
        <pt x="491" y="1058" on="1"/>
        <pt x="530" y="1058" on="0"/>
        <pt x="594" y="1033" on="0"/>
        <pt x="648" y="996" on="0"/>
        <pt x="696" y="953" on="0"/>
        <pt x="744" y="916" on="0"/>
        <pt x="794" y="891" on="0"/>
        <pt x="823" y="891" on="1"/>
        <pt x="857" y="891" on="0"/>
        <pt x="919" y="911" on="0"/>
        <pt x="972" y="941" on="0"/>
        <pt x="1017" y="977" on="0"/>
        <pt x="1035" y="994" on="1"/>
        <pt x="1107" y="905" on="1"/>
        <pt x="1084" y="867" on="0"/>
        <pt x="1013" y="798" on="0"/>
        <pt x="923" y="745" on="0"/>
        <pt x="820" y="714" on="0"/>
        <pt x="765" y="714" on="1"/>
        <pt x="726" y="714" on="0"/>
        <pt x="662" y="739" on="0"/>
        <pt x="608" y="776" on="0"/>
        <pt x="560" y="820" on="0"/>
        <pt x="513" y="857" on="0"/>
        <pt x="462" y="882" on="0"/>
        <pt x="433" y="882" on="1"/>
        <pt x="398" y="882" on="0"/>
        <pt x="337" y="862" on="0"/>
        <pt x="284" y="832" on="0"/>
        <pt x="239" y="795" on="0"/>
        <pt x="221" y="779" on="1"/>
      </contour>
    </TTGlyph>
    <TTGlyph name="asterisk" xMin="150" yMin="768" xMax="1145" yMax="1786">
      <contour>
        <pt x="584" y="1126" on="1"/>
        <pt x="611" y="1231" on="1"/>
        <pt x="547" y="1160" on="1"/>
        <pt x="251" y="927" on="1"/>
        <pt x="151" y="1068" on="1"/>
        <pt x="494" y="1248" on="1"/>
        <pt x="586" y="1278" on="1"/>
        <pt x="496" y="1308" on="1"/>
        <pt x="150" y="1482" on="1"/>
        <pt x="248" y="1626" on="1"/>
        <pt x="543" y="1396" on="1"/>
        <pt x="611" y="1327" on="1"/>
        <pt x="584" y="1441" on="1"/>
        <pt x="550" y="1786" on="1"/>
        <pt x="596" y="1786" on="0"/>
        <pt x="687" y="1785" on="0"/>
        <pt x="733" y="1785" on="1"/>
        <pt x="702" y="1441" on="1"/>
        <pt x="670" y="1327" on="1"/>
        <pt x="756" y="1409" on="1"/>
        <pt x="1032" y="1624" on="1"/>
        <pt x="1145" y="1481" on="1"/>
        <pt x="794" y="1314" on="1"/>
        <pt x="694" y="1278" on="1"/>
        <pt x="794" y="1245" on="1"/>
        <pt x="1144" y="1066" on="1"/>
        <pt x="1030" y="929" on="1"/>
        <pt x="741" y="1162" on="1"/>
        <pt x="671" y="1231" on="1"/>
        <pt x="699" y="1126" on="1"/>
        <pt x="733" y="768" on="1"/>
        <pt x="550" y="768" on="1"/>
      </contour>
    </TTGlyph>
    <TTGlyph name="at" xMin="236" yMin="-378" xMax="1901" yMax="1438">
      <contour>
        <pt x="236" y="416" on="1"/>
        <pt x="236" y="572" on="0"/>
        <pt x="309" y="845" on="0"/>
        <pt x="440" y="1072" on="0"/>
        <pt x="622" y="1250" on="0"/>
        <pt x="840" y="1373" on="0"/>
        <pt x="1086" y="1438" on="0"/>
        <pt x="1216" y="1438" on="1"/>
        <pt x="1360" y="1438" on="0"/>
        <pt x="1610" y="1352" on="0"/>
        <pt x="1795" y="1191" on="0"/>
        <pt x="1901" y="959" on="0"/>
        <pt x="1901" y="812" on="1"/>
        <pt x="1901" y="675" on="0"/>
        <pt x="1852" y="453" on="0"/>
        <pt x="1768" y="281" on="0"/>
        <pt x="1659" y="157" on="0"/>
        <pt x="1539" y="76" on="0"/>
        <pt x="1415" y="38" on="0"/>
        <pt x="1360" y="38" on="1"/>
        <pt x="1337" y="38" on="0"/>
        <pt x="1296" y="55" on="0"/>
        <pt x="1264" y="92" on="0"/>
        <pt x="1243" y="151" on="0"/>
        <pt x="1239" y="194" on="1"/>
        <pt x="1234" y="234" on="0"/>
        <pt x="1244" y="361" on="0"/>
        <pt x="1261" y="465" on="1"/>
        <pt x="1229" y="384" on="0"/>
        <pt x="1143" y="226" on="0"/>
        <pt x="1041" y="102" on="0"/>
        <pt x="929" y="25" on="0"/>
        <pt x="871" y="25" on="1"/>
        <pt x="825" y="25" on="0"/>
        <pt x="734" y="80" on="0"/>
        <pt x="662" y="185" on="0"/>
        <pt x="617" y="335" on="0"/>
        <pt x="617" y="430" on="1"/>
        <pt x="617" y="494" on="0"/>
        <pt x="644" y="637" on="0"/>
        <pt x="698" y="775" on="0"/>
        <pt x="775" y="901" on="0"/>
        <pt x="877" y="997" on="0"/>
        <pt x="1000" y="1054" on="0"/>
        <pt x="1072" y="1054" on="1"/>
        <pt x="1097" y="1054" on="0"/>
        <pt x="1164" y="1048" on="0"/>
        <pt x="1234" y="1036" on="0"/>
        <pt x="1302" y="1017" on="0"/>
        <pt x="1328" y="1003" on="1"/>
        <pt x="1334" y="1021" on="0"/>
        <pt x="1354" y="1053" on="0"/>
        <pt x="1373" y="1049" on="1"/>
        <pt x="1401" y="1040" on="0"/>
        <pt x="1459" y="1020" on="0"/>
        <pt x="1491" y="1009" on="1"/>
        <pt x="1479" y="955" on="0"/>
        <pt x="1455" y="803" on="0"/>
        <pt x="1434" y="637" on="0"/>
        <pt x="1415" y="469" on="0"/>
        <pt x="1407" y="398" on="1"/>
        <pt x="1401" y="345" on="0"/>
        <pt x="1400" y="256" on="0"/>
        <pt x="1409" y="192" on="0"/>
        <pt x="1426" y="156" on="0"/>
        <pt x="1438" y="156" on="1"/>
        <pt x="1467" y="156" on="0"/>
        <pt x="1538" y="197" on="0"/>
        <pt x="1610" y="272" on="0"/>
        <pt x="1678" y="377" on="0"/>
        <pt x="1730" y="506" on="0"/>
        <pt x="1762" y="654" on="0"/>
        <pt x="1762" y="735" on="1"/>
        <pt x="1762" y="842" on="0"/>
        <pt x="1713" y="1010" on="0"/>
        <pt x="1626" y="1137" on="0"/>
        <pt x="1507" y="1226" on="0"/>
        <pt x="1368" y="1282" on="0"/>
        <pt x="1215" y="1307" on="0"/>
        <pt x="1137" y="1307" on="1"/>
        <pt x="1037" y="1307" on="0"/>
        <pt x="848" y="1259" on="0"/>
        <pt x="681" y="1166" on="0"/>
        <pt x="541" y="1026" on="0"/>
        <pt x="439" y="843" on="0"/>
        <pt x="383" y="616" on="0"/>
        <pt x="383" y="482" on="1"/>
        <pt x="383" y="348" on="0"/>
        <pt x="436" y="136" on="0"/>
        <pt x="531" y="-24" on="0"/>
        <pt x="663" y="-137" on="0"/>
        <pt x="823" y="-208" on="0"/>
        <pt x="1004" y="-241" on="0"/>
        <pt x="1101" y="-241" on="1"/>
        <pt x="1145" y="-241" on="0"/>
        <pt x="1246" y="-230" on="0"/>
        <pt x="1341" y="-212" on="0"/>
        <pt x="1422" y="-189" on="0"/>
        <pt x="1447" y="-177" on="1"/>
        <pt x="1484" y="-262" on="1"/>
        <pt x="1451" y="-288" on="0"/>
        <pt x="1347" y="-331" on="0"/>
        <pt x="1224" y="-361" on="0"/>
        <pt x="1089" y="-378" on="0"/>
        <pt x="1025" y="-378" on="1"/>
        <pt x="854" y="-378" on="0"/>
        <pt x="565" y="-267" on="0"/>
        <pt x="355" y="-61" on="0"/>
        <pt x="236" y="233" on="0"/>
      </contour>
      <contour>
        <pt x="774" y="506" on="1"/>
        <pt x="774" y="481" on="0"/>
        <pt x="778" y="415" on="0"/>
        <pt x="788" y="345" on="0"/>
        <pt x="807" y="278" on="0"/>
        <pt x="838" y="225" on="0"/>
        <pt x="882" y="193" on="0"/>
        <pt x="913" y="193" on="1"/>
        <pt x="946" y="193" on="0"/>
        <pt x="1024" y="257" on="0"/>
        <pt x="1103" y="363" on="0"/>
        <pt x="1177" y="500" on="0"/>
        <pt x="1239" y="644" on="0"/>
        <pt x="1282" y="784" on="0"/>
        <pt x="1289" y="841" on="1"/>
        <pt x="1274" y="857" on="0"/>
        <pt x="1221" y="882" on="0"/>
        <pt x="1160" y="899" on="0"/>
        <pt x="1099" y="907" on="0"/>
        <pt x="1075" y="907" on="1"/>
        <pt x="992" y="907" on="0"/>
        <pt x="877" y="842" on="0"/>
        <pt x="806" y="731" on="0"/>
        <pt x="774" y="586" on="0"/>
      </contour>
    </TTGlyph>
    <TTGlyph name="atilde" xMin="110" yMin="-24" xMax="1074" yMax="1665">
      <contour>
        <pt x="181" y="1490" on="1"/>
        <pt x="200" y="1525" on="0"/>
        <pt x="261" y="1588" on="0"/>
        <pt x="336" y="1636" on="0"/>
        <pt x="419" y="1665" on="0"/>
        <pt x="458" y="1665" on="1"/>
        <pt x="507" y="1665" on="0"/>
        <pt x="573" y="1623" on="0"/>
        <pt x="628" y="1572" on="0"/>
        <pt x="682" y="1530" on="0"/>
        <pt x="718" y="1530" on="1"/>
        <pt x="747" y="1530" on="0"/>
        <pt x="800" y="1548" on="0"/>
        <pt x="847" y="1576" on="0"/>
        <pt x="887" y="1609" on="0"/>
        <pt x="903" y="1625" on="1"/>
        <pt x="955" y="1552" on="1"/>
        <pt x="936" y="1517" on="0"/>
        <pt x="875" y="1453" on="0"/>
        <pt x="800" y="1405" on="0"/>
        <pt x="717" y="1376" on="0"/>
        <pt x="678" y="1376" on="1"/>
        <pt x="645" y="1376" on="0"/>
        <pt x="595" y="1396" on="0"/>
        <pt x="553" y="1426" on="0"/>
        <pt x="518" y="1462" on="0"/>
        <pt x="482" y="1492" on="0"/>
        <pt x="442" y="1512" on="0"/>
        <pt x="418" y="1512" on="1"/>
        <pt x="389" y="1512" on="0"/>
        <pt x="335" y="1494" on="0"/>
        <pt x="288" y="1466" on="0"/>
        <pt x="248" y="1432" on="0"/>
        <pt x="233" y="1417" on="1"/>
      </contour>
      <contour>
        <pt x="110" y="322" on="1"/>
        <pt x="117" y="392" on="0"/>
        <pt x="193" y="497" on="0"/>
        <pt x="305" y="573" on="0"/>
        <pt x="442" y="623" on="0"/>
        <pt x="580" y="653" on="0"/>
        <pt x="708" y="665" on="0"/>
        <pt x="755" y="665" on="1"/>
        <pt x="755" y="752" on="1"/>
        <pt x="755" y="831" on="0"/>
        <pt x="713" y="930" on="0"/>
        <pt x="639" y="986" on="0"/>
        <pt x="539" y="1006" on="0"/>
        <pt x="481" y="1006" on="1"/>
        <pt x="452" y="1006" on="0"/>
        <pt x="380" y="995" on="0"/>
        <pt x="303" y="975" on="0"/>
        <pt x="225" y="947" on="0"/>
        <pt x="190" y="930" on="1"/>
        <pt x="153" y="1020" on="1"/>
        <pt x="190" y="1050" on="0"/>
        <pt x="297" y="1095" on="0"/>
        <pt x="410" y="1125" on="0"/>
        <pt x="517" y="1139" on="0"/>
        <pt x="555" y="1139" on="1"/>
        <pt x="634" y="1139" on="0"/>
        <pt x="777" y="1106" on="0"/>
        <pt x="885" y="1023" on="0"/>
        <pt x="948" y="882" on="0"/>
        <pt x="948" y="773" on="1"/>
        <pt x="946" y="85" on="1"/>
        <pt x="1074" y="85" on="1"/>
        <pt x="1074" y="19" on="1"/>
        <pt x="1039" y="0" on="0"/>
        <pt x="936" y="-24" on="0"/>
        <pt x="884" y="-24" on="1"/>
        <pt x="866" y="-24" on="0"/>
        <pt x="824" y="-19" on="0"/>
        <pt x="789" y="1" on="0"/>
        <pt x="766" y="43" on="0"/>
        <pt x="766" y="80" on="1"/>
        <pt x="766" y="108" on="1"/>
        <pt x="743" y="80" on="0"/>
        <pt x="680" y="32" on="0"/>
        <pt x="599" y="-4" on="0"/>
        <pt x="496" y="-24" on="0"/>
        <pt x="433" y="-24" on="1"/>
        <pt x="355" y="-24" on="0"/>
        <pt x="228" y="32" on="0"/>
        <pt x="143" y="127" on="0"/>
        <pt x="102" y="252" on="0"/>
      </contour>
      <contour>
        <pt x="304" y="318" on="1"/>
        <pt x="304" y="259" on="0"/>
        <pt x="336" y="177" on="0"/>
        <pt x="397" y="126" on="0"/>
        <pt x="485" y="103" on="0"/>
        <pt x="540" y="103" on="1"/>
        <pt x="570" y="103" on="0"/>
        <pt x="632" y="119" on="0"/>
        <pt x="689" y="143" on="0"/>
        <pt x="738" y="174" on="0"/>
        <pt x="753" y="189" on="1"/>
        <pt x="753" y="283" on="0"/>
        <pt x="754" y="468" on="0"/>
        <pt x="755" y="562" on="1"/>
        <pt x="713" y="562" on="0"/>
        <pt x="613" y="553" on="0"/>
        <pt x="513" y="531" on="0"/>
        <pt x="419" y="495" on="0"/>
        <pt x="347" y="440" on="0"/>
        <pt x="304" y="366" on="0"/>
      </contour>
    </TTGlyph>
    <TTGlyph name="b" xMin="32" yMin="-28" xMax="1164" yMax="1625">
      <contour>
        <pt x="203" y="1466" on="1"/>
        <pt x="32" y="1502" on="1"/>
        <pt x="32" y="1589" on="1"/>
        <pt x="355" y="1625" on="1"/>
        <pt x="395" y="1608" on="1"/>
        <pt x="395" y="1024" on="1"/>
        <pt x="422" y="1047" on="0"/>
        <pt x="487" y="1093" on="0"/>
        <pt x="566" y="1130" on="0"/>
        <pt x="662" y="1153" on="0"/>
        <pt x="720" y="1153" on="1"/>
        <pt x="804" y="1153" on="0"/>
        <pt x="964" y="1094" on="0"/>
        <pt x="1088" y="963" on="0"/>
        <pt x="1164" y="755" on="0"/>
        <pt x="1164" y="605" on="1"/>
        <pt x="1164" y="477" on="0"/>
        <pt x="1082" y="247" on="0"/>
        <pt x="933" y="74" on="0"/>
        <pt x="724" y="-28" on="0"/>
        <pt x="598" y="-28" on="1"/>
        <pt x="527" y="-28" on="0"/>
        <pt x="394" y="-12" on="0"/>
        <pt x="287" y="12" on="0"/>
        <pt x="213" y="39" on="0"/>
        <pt x="203" y="50" on="1"/>
      </contour>
      <contour>
        <pt x="395" y="158" on="1"/>
        <pt x="411" y="116" on="0"/>
        <pt x="534" y="77" on="0"/>
        <pt x="621" y="77" on="1"/>
        <pt x="686" y="77" on="0"/>
        <pt x="811" y="135" on="0"/>
        <pt x="910" y="255" on="0"/>
        <pt x="971" y="441" on="0"/>
        <pt x="973" y="569" on="1"/>
        <pt x="975" y="689" on="0"/>
        <pt x="918" y="859" on="0"/>
        <pt x="824" y="965" on="0"/>
        <pt x="703" y="1014" on="0"/>
        <pt x="640" y="1014" on="1"/>
        <pt x="596" y="1014" on="0"/>
        <pt x="521" y="996" on="0"/>
        <pt x="460" y="968" on="0"/>
        <pt x="411" y="935" on="0"/>
        <pt x="395" y="920" on="1"/>
      </contour>
    </TTGlyph>
    <TTGlyph name="backslash" xMin="30" yMin="-363" xMax="786" yMax="1599">
      <contour>
        <pt x="603" y="-363" on="1"/>
        <pt x="30" y="1599" on="1"/>
        <pt x="213" y="1599" on="1"/>
        <pt x="786" y="-363" on="1"/>
      </contour>
    </TTGlyph>
    <TTGlyph name="bar" xMin="358" yMin="-186" xMax="531" yMax="1780">
      <contour>
        <pt x="358" y="1780" on="1"/>
        <pt x="531" y="1780" on="1"/>
        <pt x="531" y="-186" on="1"/>
        <pt x="358" y="-186" on="1"/>
      </contour>
    </TTGlyph>
    <TTGlyph name="braceleft" xMin="80" yMin="-191" xMax="785" yMax="1737">
      <contour>
        <pt x="330" y="579" on="1"/>
        <pt x="330" y="599" on="0"/>
        <pt x="284" y="639" on="0"/>
        <pt x="212" y="675" on="0"/>
        <pt x="123" y="704" on="0"/>
        <pt x="80" y="714" on="1"/>
        <pt x="80" y="840" on="1"/>
        <pt x="122" y="850" on="0"/>
        <pt x="211" y="877" on="0"/>
        <pt x="283" y="909" on="0"/>
        <pt x="330" y="946" on="0"/>
        <pt x="330" y="967" on="1"/>
        <pt x="330" y="1486" on="1"/>
        <pt x="330" y="1560" on="0"/>
        <pt x="346" y="1657" on="0"/>
        <pt x="388" y="1714" on="0"/>
        <pt x="462" y="1737" on="0"/>
        <pt x="520" y="1737" on="1"/>
        <pt x="561" y="1737" on="0"/>
        <pt x="630" y="1729" on="0"/>
        <pt x="693" y="1717" on="0"/>
        <pt x="753" y="1701" on="0"/>
        <pt x="785" y="1693" on="1"/>
        <pt x="785" y="1671" on="0"/>
        <pt x="784" y="1629" on="0"/>
        <pt x="784" y="1607" on="1"/>
        <pt x="493" y="1607" on="1"/>
        <pt x="493" y="971" on="1"/>
        <pt x="493" y="929" on="0"/>
        <pt x="452" y="872" on="0"/>
        <pt x="418" y="849" on="1"/>
        <pt x="387" y="829" on="0"/>
        <pt x="312" y="795" on="0"/>
        <pt x="272" y="776" on="1"/>
        <pt x="320" y="755" on="0"/>
        <pt x="407" y="711" on="0"/>
        <pt x="439" y="683" on="1"/>
        <pt x="464" y="661" on="0"/>
        <pt x="493" y="608" on="0"/>
        <pt x="493" y="575" on="1"/>
        <pt x="493" y="-59" on="1"/>
        <pt x="784" y="-59" on="1"/>
        <pt x="784" y="-81" on="0"/>
        <pt x="785" y="-125" on="0"/>
        <pt x="785" y="-147" on="1"/>
        <pt x="753" y="-156" on="0"/>
        <pt x="693" y="-172" on="0"/>
        <pt x="630" y="-184" on="0"/>
        <pt x="561" y="-191" on="0"/>
        <pt x="520" y="-191" on="1"/>
        <pt x="462" y="-191" on="0"/>
        <pt x="388" y="-168" on="0"/>
        <pt x="346" y="-111" on="0"/>
        <pt x="330" y="-14" on="0"/>
        <pt x="330" y="60" on="1"/>
      </contour>
    </TTGlyph>
    <TTGlyph name="braceright" xMin="173" yMin="-191" xMax="878" yMax="1737">
      <contour>
        <pt x="174" y="-59" on="1"/>
        <pt x="465" y="-59" on="1"/>
        <pt x="465" y="575" on="1"/>
        <pt x="465" y="608" on="0"/>
        <pt x="494" y="661" on="0"/>
        <pt x="519" y="683" on="1"/>
        <pt x="551" y="711" on="0"/>
        <pt x="637" y="755" on="0"/>
        <pt x="685" y="776" on="1"/>
        <pt x="645" y="795" on="0"/>
        <pt x="570" y="829" on="0"/>
        <pt x="540" y="849" on="1"/>
        <pt x="506" y="872" on="0"/>
        <pt x="465" y="929" on="0"/>
        <pt x="465" y="971" on="1"/>
        <pt x="465" y="1607" on="1"/>
        <pt x="174" y="1607" on="1"/>
        <pt x="174" y="1629" on="0"/>
        <pt x="173" y="1671" on="0"/>
        <pt x="173" y="1693" on="1"/>
        <pt x="205" y="1701" on="0"/>
        <pt x="265" y="1717" on="0"/>
        <pt x="328" y="1729" on="0"/>
        <pt x="397" y="1737" on="0"/>
        <pt x="438" y="1737" on="1"/>
        <pt x="496" y="1737" on="0"/>
        <pt x="570" y="1714" on="0"/>
        <pt x="612" y="1657" on="0"/>
        <pt x="628" y="1560" on="0"/>
        <pt x="628" y="1486" on="1"/>
        <pt x="628" y="967" on="1"/>
        <pt x="628" y="946" on="0"/>
        <pt x="675" y="909" on="0"/>
        <pt x="747" y="877" on="0"/>
        <pt x="836" y="850" on="0"/>
        <pt x="878" y="840" on="1"/>
        <pt x="878" y="714" on="1"/>
        <pt x="835" y="704" on="0"/>
        <pt x="746" y="675" on="0"/>
        <pt x="674" y="639" on="0"/>
        <pt x="628" y="599" on="0"/>
        <pt x="628" y="579" on="1"/>
        <pt x="628" y="60" on="1"/>
        <pt x="628" y="-14" on="0"/>
        <pt x="612" y="-111" on="0"/>
        <pt x="570" y="-168" on="0"/>
        <pt x="496" y="-191" on="0"/>
        <pt x="438" y="-191" on="1"/>
        <pt x="397" y="-191" on="0"/>
        <pt x="328" y="-184" on="0"/>
        <pt x="265" y="-172" on="0"/>
        <pt x="205" y="-156" on="0"/>
        <pt x="173" y="-147" on="1"/>
        <pt x="173" y="-125" on="0"/>
        <pt x="174" y="-81" on="0"/>
      </contour>
    </TTGlyph>
    <TTGlyph name="bracketleft" xMin="200" yMin="-191" xMax="655" yMax="1737">
      <contour>
        <pt x="200" y="1486" on="1"/>
        <pt x="200" y="1560" on="0"/>
        <pt x="216" y="1657" on="0"/>
        <pt x="258" y="1714" on="0"/>
        <pt x="332" y="1737" on="0"/>
        <pt x="390" y="1737" on="1"/>
        <pt x="431" y="1737" on="0"/>
        <pt x="500" y="1729" on="0"/>
        <pt x="563" y="1717" on="0"/>
        <pt x="623" y="1701" on="0"/>
        <pt x="655" y="1693" on="1"/>
        <pt x="655" y="1671" on="0"/>
        <pt x="654" y="1629" on="0"/>
        <pt x="654" y="1607" on="1"/>
        <pt x="363" y="1607" on="1"/>
        <pt x="363" y="-59" on="1"/>
        <pt x="654" y="-61" on="1"/>
        <pt x="654" y="-83" on="0"/>
        <pt x="655" y="-125" on="0"/>
        <pt x="655" y="-147" on="1"/>
        <pt x="623" y="-156" on="0"/>
        <pt x="563" y="-172" on="0"/>
        <pt x="500" y="-184" on="0"/>
        <pt x="431" y="-191" on="0"/>
        <pt x="390" y="-191" on="1"/>
        <pt x="332" y="-191" on="0"/>
        <pt x="258" y="-168" on="0"/>
        <pt x="216" y="-111" on="0"/>
        <pt x="200" y="-14" on="0"/>
        <pt x="200" y="60" on="1"/>
      </contour>
    </TTGlyph>
    <TTGlyph name="bracketright" xMin="200" yMin="-191" xMax="655" yMax="1737">
      <contour>
        <pt x="201" y="-61" on="1"/>
        <pt x="492" y="-59" on="1"/>
        <pt x="492" y="1607" on="1"/>
        <pt x="201" y="1607" on="1"/>
        <pt x="201" y="1629" on="0"/>
        <pt x="200" y="1671" on="0"/>
        <pt x="200" y="1693" on="1"/>
        <pt x="232" y="1701" on="0"/>
        <pt x="292" y="1717" on="0"/>
        <pt x="355" y="1729" on="0"/>
        <pt x="424" y="1737" on="0"/>
        <pt x="465" y="1737" on="1"/>
        <pt x="523" y="1737" on="0"/>
        <pt x="597" y="1714" on="0"/>
        <pt x="639" y="1657" on="0"/>
        <pt x="655" y="1560" on="0"/>
        <pt x="655" y="1486" on="1"/>
        <pt x="655" y="60" on="1"/>
        <pt x="655" y="-14" on="0"/>
        <pt x="639" y="-111" on="0"/>
        <pt x="597" y="-168" on="0"/>
        <pt x="523" y="-191" on="0"/>
        <pt x="465" y="-191" on="1"/>
        <pt x="424" y="-191" on="0"/>
        <pt x="355" y="-184" on="0"/>
        <pt x="292" y="-172" on="0"/>
        <pt x="232" y="-156" on="0"/>
        <pt x="200" y="-147" on="1"/>
        <pt x="200" y="-125" on="0"/>
        <pt x="201" y="-83" on="0"/>
      </contour>
    </TTGlyph>
    <TTGlyph name="breve" xMin="197" yMin="1379" xMax="865" yMax="1699">
      <contour>
        <pt x="531" y="1379" on="1"/>
        <pt x="455" y="1379" on="0"/>
        <pt x="331" y="1433" on="0"/>
        <pt x="244" y="1522" on="0"/>
        <pt x="197" y="1637" on="0"/>
        <pt x="197" y="1698" on="1"/>
        <pt x="291" y="1698" on="1"/>
        <pt x="295" y="1692" on="0"/>
        <pt x="308" y="1661" on="0"/>
        <pt x="329" y="1622" on="0"/>
        <pt x="363" y="1580" on="0"/>
        <pt x="414" y="1545" on="0"/>
        <pt x="484" y="1523" on="0"/>
        <pt x="532" y="1523" on="1"/>
        <pt x="604" y="1523" on="0"/>
        <pt x="693" y="1570" on="0"/>
        <pt x="744" y="1631" on="0"/>
        <pt x="768" y="1689" on="0"/>
        <pt x="775" y="1699" on="1"/>
        <pt x="865" y="1699" on="1"/>
        <pt x="865" y="1638" on="0"/>
        <pt x="815" y="1523" on="0"/>
        <pt x="725" y="1433" on="0"/>
        <pt x="603" y="1379" on="0"/>
      </contour>
    </TTGlyph>
    <TTGlyph name="breve.cap" xMin="-37" yMin="1611" xMax="611" yMax="1920">
      <contour>
        <pt x="287" y="1611" on="1"/>
        <pt x="211" y="1611" on="0"/>
        <pt x="91" y="1662" on="0"/>
        <pt x="7" y="1747" on="0"/>
        <pt x="-37" y="1859" on="0"/>
        <pt x="-37" y="1920" on="1"/>
        <pt x="47" y="1920" on="1"/>
        <pt x="51" y="1914" on="0"/>
        <pt x="64" y="1884" on="0"/>
        <pt x="85" y="1848" on="0"/>
        <pt x="119" y="1808" on="0"/>
        <pt x="170" y="1776" on="0"/>
        <pt x="240" y="1755" on="0"/>
        <pt x="288" y="1755" on="1"/>
        <pt x="360" y="1755" on="0"/>
        <pt x="449" y="1799" on="0"/>
        <pt x="500" y="1856" on="0"/>
        <pt x="524" y="1910" on="0"/>
        <pt x="531" y="1920" on="1"/>
        <pt x="611" y="1920" on="1"/>
        <pt x="611" y="1859" on="0"/>
        <pt x="564" y="1747" on="0"/>
        <pt x="478" y="1662" on="0"/>
        <pt x="359" y="1611" on="0"/>
      </contour>
    </TTGlyph>
    <TTGlyph name="brokenbar" xMin="358" yMin="-186" xMax="531" yMax="1780">
      <contour>
        <pt x="358" y="1780" on="1"/>
        <pt x="531" y="1780" on="1"/>
        <pt x="531" y="886" on="1"/>
        <pt x="358" y="886" on="1"/>
      </contour>
      <contour>
        <pt x="358" y="708" on="1"/>
        <pt x="531" y="708" on="1"/>
        <pt x="531" y="-186" on="1"/>
        <pt x="358" y="-186" on="1"/>
      </contour>
    </TTGlyph>
</ttFont>
